<?xml version="1.0" encoding="utf-8"?>
<!-- Generator: Adobe Illustrator 24.0.1, SVG Export Plug-In . SVG Version: 6.00 Build 0)  -->
<svg version="1.1" id="Layer_1" xmlns="http://www.w3.org/2000/svg" xmlns:xlink="http://www.w3.org/1999/xlink" x="0px" y="0px"
	 viewBox="0 0 29 29" style="enable-background:new 0 0 29 29;" xml:space="preserve">
<style type="text/css">
	.st0{fill:#E65639;}
</style>
<g>
	<path d="M14.5,15c-2.3,0-4.2-1.9-4.2-4.2c0-2.3,1.9-4.2,4.2-4.2s4.2,1.9,4.2,4.2C18.7,13.1,16.8,15,14.5,15z M14.5,8
		c-1.5,0-2.7,1.2-2.7,2.7s1.2,2.7,2.7,2.7s2.7-1.2,2.7-2.7S16,8,14.5,8z"/>
	<path d="M19.8,22.4c-0.4,0-0.7-0.3-0.7-0.7c0-2.5-2-4.5-4.5-4.5s-4.5,2-4.5,4.5c0,0.4-0.3,0.7-0.7,0.7c-0.4,0-0.7-0.3-0.7-0.7
		c0-3.3,2.7-6,6-6s6,2.7,6,6C20.5,22.1,20.2,22.4,19.8,22.4z"/>
</g>
<path class="st0" d="M14.5,29C6.5,29,0,22.5,0,14.5S6.5,0,14.5,0S29,6.5,29,14.5S22.5,29,14.5,29z M14.5,1.3
	C7.2,1.3,1.3,7.2,1.3,14.5s5.9,13.2,13.2,13.2s13.2-5.9,13.2-13.2S21.8,1.3,14.5,1.3z"/>
</svg>
