<?xml version="1.0" encoding="utf-8"?>
<!-- Generator: Adobe Illustrator 24.0.1, SVG Export Plug-In . SVG Version: 6.00 Build 0)  -->
<svg version="1.1" id="Layer_1" xmlns="http://www.w3.org/2000/svg" xmlns:xlink="http://www.w3.org/1999/xlink" x="0px" y="0px"
	 viewBox="0 0 100 100" style="enable-background:new 0 0 100 100;" xml:space="preserve">
<style type="text/css">
	.st0{opacity:0.5;fill:#231F20;}
	.st1{opacity:0.7;}
	.st2{fill:#FFFFFF;}
</style>
<rect class="st0" width="100" height="100"/>
<g class="st1">
	<path class="st2" d="M69.48,35.97c0.78,0,1.45,0.28,2.01,0.85c0.57,0.57,0.85,1.24,0.85,2.01v25.78c0,0.78-0.28,1.45-0.85,2.01
		c-0.57,0.57-1.24,0.85-2.01,0.85h-40.1c-0.78,0-1.45-0.28-2.01-0.85c-0.57-0.57-0.85-1.24-0.85-2.01V38.83
		c0-0.78,0.28-1.45,0.85-2.01c0.57-0.57,1.24-0.85,2.01-0.85H39.4c0.36-1.43,0.81-2.74,1.34-3.94c0.54-1.19,1.52-1.79,2.95-1.79
		h11.46c1.43,0,2.42,0.6,2.95,1.79c0.54,1.19,0.98,2.51,1.34,3.94H69.48z M49.43,64.43c1.76,0,3.41-0.34,4.94-1.01
		c1.54-0.67,2.88-1.58,4.03-2.73c1.15-1.15,2.06-2.49,2.73-4.03c0.67-1.54,1.01-3.18,1.01-4.95c0-1.76-0.34-3.41-1.01-4.95
		c-0.67-1.54-1.58-2.88-2.73-4.03c-1.15-1.15-2.49-2.06-4.03-2.73s-3.19-1.01-4.94-1.01c-1.76,0-3.41,0.34-4.95,1.01
		s-2.88,1.58-4.03,2.73c-1.15,1.15-2.06,2.49-2.73,4.03c-0.67,1.54-1.01,3.19-1.01,4.95c0,1.76,0.34,3.41,1.01,4.95
		c0.67,1.54,1.58,2.88,2.73,4.03c1.15,1.15,2.49,2.06,4.03,2.73C46.02,64.1,47.67,64.43,49.43,64.43z M40.12,51.72
		c0-1.28,0.25-2.49,0.74-3.63c0.49-1.13,1.16-2.12,1.99-2.95c0.83-0.84,1.82-1.5,2.95-1.99c1.13-0.49,2.34-0.74,3.63-0.74
		c1.28,0,2.49,0.25,3.62,0.74s2.12,1.16,2.95,1.99c0.83,0.83,1.5,1.82,1.99,2.95c0.49,1.13,0.74,2.34,0.74,3.63
		c0,1.28-0.25,2.49-0.74,3.63c-0.49,1.13-1.16,2.12-1.99,2.95c-0.84,0.84-1.82,1.5-2.95,1.99c-1.13,0.49-2.34,0.74-3.62,0.74
		c-1.28,0-2.49-0.25-3.63-0.74c-1.13-0.49-2.12-1.16-2.95-1.99c-0.84-0.83-1.5-1.82-1.99-2.95C40.37,54.21,40.12,53,40.12,51.72z
		 M69.48,44.56V41.7h-5.73v2.86H69.48z"/>
</g>
</svg>
