<?xml version="1.0" encoding="utf-8"?>
<!-- Generator: Adobe Illustrator 24.0.1, SVG Export Plug-In . SVG Version: 6.00 Build 0)  -->
<svg version="1.1" id="Layer_1" xmlns="http://www.w3.org/2000/svg" xmlns:xlink="http://www.w3.org/1999/xlink" x="0px" y="0px"
	 viewBox="0 0 50.5 47.6" style="enable-background:new 0 0 50.5 47.6;" xml:space="preserve">
<style type="text/css">
	.st0{fill:url(#SVGID_1_);}
</style>
<radialGradient id="SVGID_1_" cx="25.275" cy="23.7958" r="24.5465" gradientUnits="userSpaceOnUse">
	<stop  offset="0" style="stop-color:#F9AE42"/>
	<stop  offset="7.515688e-02" style="stop-color:#F6973B"/>
	<stop  offset="0.1818" style="stop-color:#F47C34"/>
	<stop  offset="0.2908" style="stop-color:#F2692E"/>
	<stop  offset="0.4028" style="stop-color:#F05E2B"/>
	<stop  offset="0.522" style="stop-color:#F05A2A"/>
	<stop  offset="1" style="stop-color:#BC202E"/>
</radialGradient>
<path class="st0" d="M40.3,30.7c0.7,0.8,0.7,1.9,0,2.7c-0.7,0.7-1.9,0.7-2.7,0L29,24.7c-0.8-0.7-0.8-1.9,0-2.7
	c0.7-0.7,1.9-0.7,2.7,0L40.3,30.7z M24.3,28.4c-0.7-0.7-1.9-0.7-2.7,0c-0.7,0.8-0.7,1.9,0,2.7l9.1,9.3c0.8,0.7,1.9,0.7,2.7,0
	c0.7-0.7,0.7-1.9,0-2.7L24.3,28.4z M22.2,5.2c-2.1-1-4.3-1.5-6.6-1.4C12.6,4,9.7,5.2,7.5,7.5C5,9.9,3.8,13.1,3.8,16.4
	c0,3.2,1.2,6.5,3.7,8.9l19,18.9c0.8,0.7,0.9,1.8,0.3,2.7c-0.7,0.8-1.9,0.9-2.7,0.3L4.8,28C1.6,24.8,0,20.6,0,16.4
	C0,12.2,1.6,8,4.8,4.8C7.7,1.9,11.5,0.3,15.4,0c3.4-0.2,6.9,0.6,9.9,2.6C28,0.9,31,0,34.2,0c4.2,0,8.4,1.6,11.6,4.8
	c2.9,2.9,4.5,6.7,4.7,10.5c0.3,3.9-0.9,7.8-3.4,11.1c-0.6,0.8-1.8,0.9-2.6,0.3L31.9,14.1l-9.4,9.4c-1.2,1.2-2.9,1.9-4.6,1.9
	c-1.8,0-3.4-0.7-4.7-1.9c-2.6-2.6-2.5-6.8,0-9.4L22.2,5.2z M46.7,15.5c-0.2-2.9-1.4-5.8-3.6-8.1c-2.5-2.5-5.7-3.7-9-3.7
	c-3.2,0-6.5,1.2-8.9,3.7c0,0-9.2,9.2-9.4,9.4c-1.1,1.1-1.1,2.9,0,3.9c0.5,0.5,1.2,0.8,2,0.8c0.7,0,1.4-0.3,2-0.8
	c0.2-0.2,10.9-10.6,10.9-10.6c0.8-0.7,1.9-0.7,2.7,0l12,12C46.4,20.1,46.9,17.8,46.7,15.5z"/>
</svg>
