<?xml version="1.0" encoding="utf-8"?>
<!-- Generator: Adobe Illustrator 24.0.1, SVG Export Plug-In . SVG Version: 6.00 Build 0)  -->
<svg version="1.1" id="Layer_1" xmlns="http://www.w3.org/2000/svg" xmlns:xlink="http://www.w3.org/1999/xlink" x="0px" y="0px"
	 viewBox="0 0 160 100" style="enable-background:new 0 0 160 100;" xml:space="preserve">
<style type="text/css">
	.st0{fill:#231F20;}
	.st1{fill:#EC1C24;}
	.st2{fill:#AE1E23;}
	.st3{fill:#FFFFFF;}
</style>
<g>
	<path class="st0" d="M114.5,99c-5.3,0-10.9-1.2-16.6-3.5c-1-0.4-1.6-1.5-1.4-2.6l0.6-2.6l-9,0.5c-3.5,0-5.3,1.3-6.5,2.5
		c-0.9,0.9-2.4,0.9-3.2,0c-1.3-1.3-3-2.5-6.5-2.5l-0.1,0l-8.8-0.5l0.6,2.6c0.2,1.1-0.3,2.2-1.4,2.6C56.3,97.8,50.8,99,45.5,99
		c-13.6,0-20.8-7.8-21.1-8.2c-0.3-0.3-0.5-0.7-0.6-1.2L21.8,77c-0.2-1,0.3-2,1.2-2.4c0.9-0.4,2-0.2,2.7,0.5
		c0.1,0.1,5.9,5.9,17.4,6.2c-7.6-8.8-11.7-20-11.7-31.6C31.4,22.8,53.2,1,80,1c26.8,0,48.6,21.8,48.6,48.6
		c0,11.6-4.2,22.8-11.7,31.6c11.4-0.3,17.1-6,17.4-6.2c0.7-0.7,1.8-0.9,2.7-0.4c0.9,0.5,1.4,1.4,1.2,2.4l-2.1,12.7
		c-0.1,0.4-0.3,0.8-0.6,1.2C135.3,91.2,128.2,99,114.5,99z M97.9,89.6L97.2,93c-0.2,0.8,0.3,1.6,1,1.9c5.6,2.3,11.1,3.5,16.3,3.5
		c13.4,0,20.3-7.6,20.6-8c0.2-0.2,0.4-0.5,0.4-0.9l2.1-12.7c0.1-0.7-0.2-1.4-0.9-1.8c-0.7-0.3-1.5-0.2-2,0.3
		c-0.3,0.3-6.4,6.3-18.5,6.4l-0.7,0l0.5-0.5c7.7-8.8,12-20,12-31.8c0-26.5-21.5-48-48-48c-26.5,0-48,21.5-48,48
		c0,11.7,4.3,23,12,31.8l0.5,0.5l-0.7,0c-12.2-0.1-18.4-6.3-18.5-6.4c-0.5-0.5-1.3-0.7-2-0.3c-0.7,0.3-1,1-0.9,1.8l2.1,12.7
		c0.1,0.3,0.2,0.6,0.4,0.8c0.3,0.3,7.3,8,20.6,8c5.2,0,10.7-1.2,16.3-3.5c0.8-0.3,1.2-1.1,1-1.9l-0.7-3.4l9.7,0.5
		c3.7,0,5.6,1.4,7,2.7c0.6,0.6,1.7,0.6,2.4,0c1.4-1.3,3.2-2.7,7-2.7l0.1,0L97.9,89.6z M107.3,72.8h-4.4l0.1-0.4
		c0.3-1,0.5-2.1,0.5-3.3V23.4l0.5,0.5c7.1,6.6,11.2,16,11.2,25.8c0,8-2.6,15.6-7.6,21.8c-0.2,0.3-0.4,0.7-0.4,1.1L107.3,72.8
		L107.3,72.8z M103.7,72.2h3c0.1-0.4,0.2-0.8,0.5-1.1c4.9-6.2,7.5-13.6,7.5-21.5c0-9.3-3.8-18.3-10.5-24.8v44.3
		C104.1,70.2,104,71.3,103.7,72.2z M57.1,72.8h-4.4v-0.3c0-0.4-0.1-0.8-0.4-1.1c-5-6.3-7.6-13.8-7.6-21.8c0-9.7,4.1-19.1,11.2-25.7
		l0.5-0.5v45.7c0,1.2,0.2,2.3,0.5,3.3L57.1,72.8z M53.4,72.2h2.9c-0.3-1-0.4-2-0.4-3.1V24.8c-6.7,6.5-10.5,15.5-10.5,24.8
		c0,7.9,2.6,15.3,7.5,21.5C53.1,71.4,53.3,71.8,53.4,72.2z M100,20.6H60l0.9-0.6c5.7-3.7,12.3-5.6,19.1-5.6c6.8,0,13.4,2,19.1,5.6
		L100,20.6z M62.1,20h35.8c-5.4-3.3-11.5-5-17.9-5C73.7,15,67.5,16.7,62.1,20z"/>
	<path class="st1" d="M58.2,22.3h43.6v46.8c0,4.4-2.8,7.5-8.3,7.5h-5.1c-3.9,0-6.5,1.4-8.3,3.2c-1.9-1.8-4.4-3.2-8.3-3.2h-5.1
		c-5.5,0-8.3-3.1-8.3-7.5C58.2,69.1,58.2,22.3,58.2,22.3z"/>
	<path class="st2" d="M98.8,93.3c23.1,9.4,35.1-4,35.1-4l2.1-12.7c0,0-11.4,11.9-34.5,4.5L98.8,93.3z M111.1,82.7
		c-3-0.3-6.1-0.9-9.3-1.9l10-6.3L111.1,82.7z M58.6,81.2c-23.2,7.3-34.5-4.5-34.5-4.5l2.1,12.7c0,0,12,13.5,35.1,4L58.6,81.2z
		 M71.9,88.4L61,87.8L59.5,81c-0.1-0.3-0.2-0.5-0.4-0.6c-0.1-0.1-0.8-0.5-1-0.6l-8.2-5.2h7.8c1.7,2.6,4.8,4.2,8.8,4.2h6.6
		c5.2,0,6.8,4,6.8,4s1.7-4,6.8-4h6.6c4,0,7.1-1.5,8.8-4.2h7.8l-8.2,5.2c-0.2,0.1-0.9,0.6-1,0.6c-0.2,0.1-0.4,0.4-0.4,0.6l-1.5,6.9
		l-10.9,0.6c-3.9,0-6.3,1.4-8.2,3.2C78.1,89.8,75.8,88.4,71.9,88.4z M48.2,74.5l10,6.3c-3.2,1-6.3,1.6-9.3,1.9L48.2,74.5z"/>
	<g>
		<path class="st1" d="M46.4,81.5C38.5,73.2,33.7,62,33.7,49.6C33.7,24,54.4,3.3,80,3.3s46.3,20.7,46.3,46.3
			c0,12.4-4.8,23.6-12.7,31.9c-0.1,0-0.2,0-0.4,0l0.6-6.8c0.1-0.8-0.3-1.5-0.9-1.9c-0.3-0.2-0.7-0.3-1-0.3c-0.3,0-2.9,0-2.9,0
			c5-6.3,8-14.2,8-22.9c0-20.4-16.5-36.9-36.9-36.9S43.1,29.2,43.1,49.6c0,8.7,3,16.6,8,22.9c0,0-2.6,0-2.9,0c-0.4,0-0.7,0.1-1,0.3
			c-0.6,0.4-1,1.1-0.9,1.9l0.6,6.8C46.7,81.5,46.6,81.5,46.4,81.5z"/>
	</g>
	<g>
		<path class="st0" d="M66.4,63.3c0.4-1.3,1.2-2,2.5-2.2c1.3-0.2,2.7-1,4.3-1.7c0.7-0.5,0.8-0.3,0.3,0.7L72.8,61
			c-0.4,0.4-0.5,0.9,0.1,1.4c0.8,0.4,1.1,0.7,1,1c-0.8-0.2-1.6-0.1-2.2,0.5c-0.5-0.1-1-0.1-1.8,0.3c-0.4-0.2-0.8-0.2-1.4-0.1
			c-0.1-0.3-0.5-0.4-1.2-0.3C67.1,63.6,66.8,63.4,66.4,63.3L66.4,63.3L66.4,63.3z M75.5,63.3c-0.8-0.8-0.9-1.6,0-2.2
			c0.5-0.4,1.3-1.2,2.2-2.4c0.6,0,1.2-0.2,1.8-0.3c2.5-0.3,4.8-0.8,6.7-1.9c0.4-0.1,0.6,0,0.8,0.2l1.5,1.9L88,58.9l1.1,0.8
			c-0.2,0.2-0.1,0.3,0.2,0.4c-0.1,0.2,0,0.4,0.2,0.4c0.1,0.3,0.3,0.7-0.3,0.1c-0.4-0.2-0.4,0-0.1,0.6l0.6,0.9c0,0.4,0.2,0.7,0.5,1
			l0.5,1c0,0.2,0.1,0.3,0.1,0.4c0.1,0.4,0.2,0.6,0.5,0.6c-0.3,0.6-0.7,1.2-1.4,1.5c-1.3,0.7-2.4,0.4-2.2-1.3
			c0.1-0.9,0.2-1.7,0.3-2.7c0.4-1.5,0-2.2-1.3-2.3c-0.7,0-1.2,0-1.6,0.3c-0.4,0.2-0.9,0.2-1.6-0.2c-1.3-1-2.3-1.5-3-1.5
			c0.6,0.7,0.8,1.5,0.3,2.2c0.5,0.2,0.5,0.5,0,0.7c-1.3,0-2.7-0.2-4.2-0.6c-0.5-0.1-0.6,0-0.2,0.3c1.1,0.4,1.7,1.1,1.7,2
			c-0.7,0-1.3,0.1-1.6,0.1C76.1,63.7,75.8,63.7,75.5,63.3L75.5,63.3L75.5,63.3z M88.1,70.5c-0.4,0.2-0.5,0.4-0.1,0.6
			c0.2,0.2,0.4,0.2,0.4,0.1C88.8,71.1,88.2,70.9,88.1,70.5L88.1,70.5L88.1,70.5z M76.5,69.5c-0.2,0.2-0.4,0.4-0.2,0.6l0.5,0.4
			c0.2-0.2,0.2-0.4-0.1-0.6C76.6,69.9,76.5,69.7,76.5,69.5L76.5,69.5L76.5,69.5z M70.8,67.2c0.4,0.2,0.4,0.5-0.1,0.7
			C70.4,67.8,70.4,67.5,70.8,67.2L70.8,67.2L70.8,67.2z M64.3,54c1.6,1.8,1.9,3.9,0.6,6.3c-0.5,1.2-0.4,1.9,0.2,2.3
			c0.2-0.4,0.3-1,0.4-1.7c0.1-1,0.8-0.9,1.6-1.8c0.9-0.9,0.6-1.9,0.6-3.5c-0.2-3.3,0.5-5.3,1.5-6.3C66.7,48.7,65.2,50.6,64.3,54
			L64.3,54L64.3,54z M65.9,26.5c-0.3,0-0.4,0.2-0.4,0.6l2,2.8c0.1,0.1,0.2,0.3,0.2,0.4c-0.2,0.4-0.2,0.6,0.1,1l0.7,0.6
			c0.1,0.5,0.2,0.8,0.3,1c-0.2,0.3,0,0.6,0.3,0.9c0.1,0.1,0.1,0.2,0.2,0.3l0.1,1c-0.9,0.8-1.4,1.4-1.5,1.7c0,0.2-0.1,0.4,0,0.5
			l1.3-0.1c0.1,0.1,0.2,0.1,0.3,0.2c0.2,0.5-0.1,1.2-0.8,1.3c-1.6,0.4-2.8,1-2.3,2c0.6,0.8,0.3,1.5-0.7,2.1
			c-0.2,0.2-0.4,0.5-0.3,0.9c-0.3,0.2-0.5,0.6-0.7,1c-0.2,0.4-0.2,0.6,0.2,0.6c2.3-0.8,4.5-1.1,6.1,0.2c0.8,0.6,0.6,1,1.9,1
			c-0.1,0.5,0,0.8,0.4,0.9l0.1,0.6c-0.5,0.1-1,0.1-1.5,0.2c-0.6,0.1-1.1,0.4-1.6,0.4c-0.4-0.3-0.9-0.5-1.3-0.8
			c-2-1.3-3.7-1.3-5.2,0.4c-0.8,0.9-1.5,2.1-2.1,4.1c-0.1,0.3-0.4,0.5-0.9,0.2c-1.1-0.9-1.3-1.6-0.7-2.1c0.8-0.7,1-0.3,0.6,0.1
			l0,0.1c0.6,0,0.8,0.4,1,0.8c0.5-1.3,0.2-2.1-0.5-2.8l-0.2,0l0.1,1.1c-1.2-0.2-1.8,0.7-1.9,1.5c-0.1,0.8,0.3,1.6,1.4,2.2
			c0.6,0.2,0.8,0.9,0.3,1.6c-1.2,1.7-1,3.5,0.1,5.8l0.1-0.1c0.2-2.5,0.8-3.8,1.6-4.1c0.3-0.1,0.5-0.3,0.7-0.6
			c0.2-0.4,0.4-0.3,0.6,0.1c0.5,1.1,0.4,2.1-0.2,3.1c-1.5,2.4-1.5,4.2,0.6,5.6l0.1,0.2l-0.6,0.7c-0.2,0.3,0,0.6,0.4,1
			c0.4,0.4,0.5,1.1,0.6,2c-0.2,0.3-0.2,0.6-0.1,1c0.3,0.4,1.1,0.7,2.1,0.6c0.1,0,0.1-0.1,0.1-0.2c0.1-0.5-0.2-0.8-0.6-1.4
			c-1-0.9-1.3-1.8-0.9-2.7l0.2-0.2c0.8,0.3,1.9,0.6,2.8,0.8C68,67,68,68,68.4,68.6c0.7,1.2,1.4,1.7,2.7,1.6c1.8-0.2,2.7-1.6,2-3.7
			c0.6-0.4,1.1-0.3,1.3,0.1c0,0.9,0.4,0.6,0.4,1.5c-1.1,0.9-1.5,1.7-0.3,2.2c0.6,0.6,0.3,0.8-0.5,0.9c-0.8-0.2-1.4-0.2-1.5,0.5
			c-0.7,0-1,0.5-1,1.2c0.2-0.5,0.6-0.6,0.9-0.4c0.4,0,0.8,0.1,1.2-0.1c0.3-0.2,0.7-0.2,1.1,0c0.2,0,0.4,0.1,0.5,0.3
			c0.5,0.6,0.5-0.1,1.6,0.6c0.3,0,0.8,0,0.9,0.5l0.1-0.4c0.1-0.2,0-0.3-0.1-0.5c-0.4-0.4,0.2-0.5,1.3-0.3c0.6,0.2,1.1,0.3,1.5,0.3
			c0.5-0.5,0.6-0.2,0.7,0.4c0.3-0.9,0.1-1.4-0.8-1.4c0.2-0.5,0.2,0.2,0.6-0.4c0.3-0.1,0.6,0,0.9,0.3c0.1-0.4-0.2-0.7-0.8-0.8
			c-0.1-0.4-0.4-0.4-0.8,0c-1.7-0.4-1.9-1.5-0.9-1.7c0.5-0.1,0.7,0.4,1.1,0.6c0.3,0.1,0.5,0.1,0.9,0.1c0.5,0,0.9,0.1,1.2,0.3
			l0.3,0.1c0.2-0.1,0.4-0.1,0.6,0.1c0.2,0.4,0.5,0.4,0.7,0.1c0.7-0.5,1.7-0.5,1.6-0.2c0,0.5,0.1,0.7,0.2,0.6c0.2,0,0.2,0.2,0.2,0.6
			c-0.6,0-1.1,0.1-1.1,0.6c-0.6,0.2-0.6,0.6-0.3,1.2c-0.1-1.1,0.8-0.2,1.7-0.8l0.6-0.1c0.1,0.3,0.4,0.4,0.9,0.4
			c0.2-0.1,0.5-0.1,0.7-0.1c1.1-0.3,1.9-0.2,2.6,0.7c0.1-0.3,0.1-0.6-0.1-0.8c0.8-0.5,1.6-0.3,1.1,0.5c0.4-0.2,0.9-1.4,0.3-1.3
			c0.2-0.7,1.2-0.1,1,0.4c0.4-0.2,0.5-0.6,0-1c-0.1-0.4-0.4-0.5-0.9-0.3c-0.3-0.5-0.7-0.6-1.2-0.1c-0.5,0.2-1,0.3-1.2-0.1
			c-0.3-0.5-0.2-0.7,0.2-0.5c0.2,0.1,0.3-0.2,0.5-0.6c0.1-0.2,0.3-0.4,0.4-0.6c0.6-0.1,1-0.6,1.6-1.6c0.4-0.2,0.6-1,0.6-2.3
			c0.2,0.1,0.4,0,0.7-0.2c-0.2,0-0.3-0.1-0.3-0.6h0.6c0.2-0.1,0.3-0.2,0.3-0.3c0-0.1-0.2-0.1-0.4-0.3c-0.1-0.3-0.2-0.6-0.6-0.9
			l-0.5-0.9c-0.4-1.2-0.8-1.9-1.4-1.4l-0.2-0.1c-0.4-0.5-0.7-1.1-1-1.8c0-0.8-0.9-0.9-1.3-0.1l-0.1-0.7L89,58.1l-1.4-2
			c0.2,0,0.4-0.2,0.6-0.2c1.7-0.1,3.4-0.6,5.2-1.6l1.2-0.4c0.6-0.2,0.7,0,1,0.2l1.3,1.3c0.2,0.3,0.2,0.5,0.1,0.8
			c-0.1,0.3,0.2,0.6,0.6,1c0.4,0.4,0.4,1,0.1,1.8c-0.2,0.5-0.2,0.8,0.1,1l0.9,0.6c0.6,0.5,0.9,0.3,0.8-0.5c0-0.4-0.2-0.8-0.4-1.2
			c-0.3-0.5-0.5-1-0.5-1.5c0-1-0.2-1.6-0.6-1.9c-0.5-0.5-0.9-1-1.2-1.6c-0.1-0.3-0.2-0.5-0.4-0.6c0-1.1-0.8-1.6-1.3-1.3
			c-0.4,0.1-0.8,0.1-1.3,0.1v-0.2c0.6-0.3,1.5-1.3,2.5-2.4c0.4-0.4,0.5-0.3,0.9,0.1l1.4,1.4c0,0.7,0.1,1.2,0.6,1.1
			c0.3,0.6,0.5,1.1,0.2,1.4c-0.3,0.3-0.6,0.4-0.6,0.8c0.1,0.6,0.7,1.1,1.4,1.4c0.1,0,0.2,0,0.2-0.1c0.2-0.5,0.2-1.1,0-1.6l-0.2-0.8
			c0-0.3,0-0.6,0-0.8c0.1-0.6,0.1-1-0.6-1.5c-0.9-0.9-1.6-1.8-2.2-2.7c0-1.3-1.1-1.6-1.8-0.2l-1.3,0.9c-0.3,0.2-0.6-0.1-0.6-0.5
			c-0.1-1.7-1.3-3-2.5-4.3c-0.7-2-1.6-3.7-1.9-5.3c1.3,0.1,2.2,0.4,2.6,0.8c0.6,0.6,1.3,0.9,1.4,0.5c0.1-0.1-0.3-0.4-0.5-0.6
			c0.2,0,0.5,0.2,0.8,0.5c0.6,0,0.7-0.4,0.6-1c0.1-0.5,0-0.8-0.2-1l-0.5-0.3c-0.8-0.8-1.4-1.7-1.9-2.6c-0.1-0.1-0.1-0.2-0.1-0.3
			c0-0.4-0.1-0.7-0.5-1l0.2-0.1l0-0.1l0.4,0.1l-0.4-0.7c-0.2-0.8-1-1-2.1-0.6c-0.2,0-0.4-0.1-0.6-0.4c-0.7-0.7-1.5-1.1-1.2-0.6
			c0,0.1,0.3,0.3,0,0.3l-1.2-0.2c-0.3,0-0.3,0-0.2,0.2c0.2,0.2,0.4,0.5,0.5,0.7l-1.6,0.1c-0.3,0-0.6,0.2-0.9,0.1
			c-0.8-0.7-1.9-0.2-3,0.6L81,33.2l0-1.3h0.1L81,31.1H81c0.1-1.2-0.2-2-0.6-2.6c-0.1-0.4,0.3-0.3,0.4-0.4c0.4-0.4,0.3-1,0.3-1.2
			c-0.1-0.5-0.2-0.7-0.5-0.5h-0.3c-0.3,0-0.6-0.2-0.7-0.3c-0.4-0.2-0.7-0.2-1,0c-1.6,0.4-1.9,1.6-3.8,0.8c-0.2,0-0.3,0.1-0.2,0.2
			c0.3,0.4,0.8,0.7,1.3,1c-0.2,0.1-0.5,0.2-1.1,0.1c0.3,0.4,1,0.7,2,0.6c0.4,0.2,0.8,0.1,1.3-0.1c0.3-0.2,0.3-0.1,0.1,0.3
			c-0.5,0.4-0.9,1.2-0.9,2.7c-0.2,0.3-0.3,0.6-0.4,1c-0.7-0.2-1.4-0.3-1.6-0.1l-0.3,0c-0.6-0.5-1.3-0.5-1.8-0.1L72,33.3
			c-0.4,0.3-0.8,0.3-0.8,0l-0.5-1c0-0.7-0.2-1-0.7-1.1c-0.2-0.2-0.4-0.4-0.4-0.7L69.2,30c0.1-0.4,0-0.5-0.3-0.5
			c-0.3,0-0.6,0-0.7-0.2L65.9,26.5L65.9,26.5z"/>
		<path class="st3" d="M97.9,59.4l0.2-0.5c0.1-0.2,0.2-0.2,0.3,0l0.5,0.5c-0.1,0.1-0.4,0.1-0.5,0.2l0.2,0.3l-0.2,0.1l-0.1,0.2
			C98,59.9,97.8,59.6,97.9,59.4L97.9,59.4L97.9,59.4z M98.4,57.8c0.1,0,0.1,0.2,0.1,0.4c0,0.2-0.1,0.4-0.1,0.4
			c-0.1,0-0.1-0.2-0.1-0.4C98.2,58,98.3,57.8,98.4,57.8L98.4,57.8L98.4,57.8z M98,56c0,0,0.2,0,0.2,0.2c0.1,0.1,0.1,0.3,0.1,0.3
			c0,0-0.2,0-0.2-0.2C98,56.1,98,56,98,56L98,56z"/>
		<path class="st3" d="M99.5,53.8c-0.1-0.1-0.1,0-0.2,0c-0.2,0.3-0.3,0.5-0.2,0.7l0.5,0.4c0.2,0.1,0.3,0.1,0.2-0.1l-0.2-0.2
			c0.1,0,0.2,0.2,0.3,0.2c0.1,0,0.1-0.1,0-0.2c-0.2-0.2-0.2-0.2-0.1-0.4c0,0,0-0.1,0-0.1L99.5,53.8L99.5,53.8z M99.5,51.7
			c-0.2-0.3-0.2-0.4,0.1-0.4c-0.3-0.4,0-0.5,0.3-0.1c0.1,0.2,0.2,0.6,0.1,1.1c0,0.1-0.2,0.2-0.2,0C99.7,52.1,99.6,51.9,99.5,51.7
			L99.5,51.7L99.5,51.7z M99.6,53.5l0.1-0.5c0-0.1,0.1-0.1,0.1,0c0.2,0.2,0.3,0.4,0.4,0.8c0,0.2,0,0.2-0.1,0.3c-0.1,0-0.2,0-0.4-0.2
			C99.7,53.7,99.6,53.6,99.6,53.5L99.6,53.5z"/>
		<path class="st3" d="M91.8,47.8c0-0.9,0.1-1.7,0.1-2.4c0-0.3,0.2-0.3,0.2,0c0,0.7,0,1.5-0.1,2.3C92,47.8,91.8,48,91.8,47.8
			L91.8,47.8L91.8,47.8z M93.1,51.5C93.1,51.5,93.1,51.5,93.1,51.5c0.1,0.1,0,0.2,0,0.2C93,51.7,93,51.6,93.1,51.5
			C93,51.5,93,51.5,93.1,51.5L93.1,51.5L93.1,51.5z M90.9,48.2L90.9,48.2c0.1-0.1,0.2-0.1,0.2,0l0.3,0.4c0,0,0,0.1,0,0.1l-0.1,0.1
			c0,0-0.1,0-0.1,0L90.9,48.2C90.8,48.3,90.8,48.2,90.9,48.2L90.9,48.2L90.9,48.2z M94.1,50.6l0.1-0.9L94,50c-0.1,0-0.2-0.1-0.2-0.4
			c0-0.3,0-0.4,0.2-0.4l0.1,0.3l0.1-0.2c0.2-0.1,0.2,0,0.1,0.3l0,1C94.2,50.7,94.2,51,94.1,50.6L94.1,50.6L94.1,50.6z M96.4,47.9
			c-0.1-0.2-0.2-0.4,0-0.6c0.1-0.2,0.3-0.2,0.5-0.1c0.1,0.1,0.2,0.2,0.2,0.2l-0.3,0.1l0.3,0.1c0.2,0.2,0,0.4-0.1,0.2
			c-0.1-0.1-0.3-0.2-0.4-0.1C96.6,48,96.5,48,96.4,47.9L96.4,47.9L96.4,47.9z M93.2,49.4c0,0,0.1,0.1,0.2,0.2c0,0.1,0.1,0.2,0,0.2
			c0,0-0.1,0-0.2-0.2C93.2,49.6,93.2,49.4,93.2,49.4L93.2,49.4L93.2,49.4z M91.2,49.2c0,0,0.1,0,0.2,0.2c0.1,0.1,0.1,0.2,0,0.3
			c0,0-0.1,0-0.2-0.2C91.1,49.4,91.1,49.3,91.2,49.2L91.2,49.2L91.2,49.2z M91.8,48.1c0.2,0,0.4,0.2,0.4,0.4c0.1,0.3,0,0.5-0.2,0.5
			c-0.2,0-0.4-0.1-0.4-0.4C91.5,48.4,91.6,48.2,91.8,48.1L91.8,48.1L91.8,48.1z M92.1,49.6c-0.1-0.4,0-0.5,0.2-0.1
			c0.2,0.6,0.4,1.3,0.4,2.2c0,0.3-0.3,0.4-0.3,0C92.2,51,92.2,50.3,92.1,49.6L92.1,49.6L92.1,49.6z M94.6,50.3
			c0-0.4,0.1-0.9,0.3-1.3c0.1-0.2,0.2-0.2,0.3-0.1c0.4-0.6,0.3-0.3,0.1,0.2l0.1,0.1c0.5-0.9,0.3-0.2,0.2,0.2
			c-0.4,0.4-0.6,0.5-0.7,0.2l-0.1,0.6C94.7,50.5,94.7,50.5,94.6,50.3L94.6,50.3z"/>
		<path class="st3" d="M64.5,65.7c-0.2,0.6-0.8,0.3-0.5-0.2c0.8-1.3,1.6-2.7,1.8-4.5c0-0.6,0.4-0.9,1-1.2c1.1-0.6,1.5-1.6,1.4-2.8
			c-0.2-5,1.2-7.2,3.3-8.1l-0.1,0.2c-1.9,1.2-2.7,3.4-2.8,6.5c0,0.7-0.1,1.4,0,2.1l0.1-0.2c0.1-1.8,0.1-3.4,0.3-4.4
			c0.2-1.2,0.6-1.9,1-2.4c0.1-0.2,0.2-0.4,0.4-0.5c0.2-0.2,0.4-0.2,0.5-0.4l0,0.2c-0.7,0.7-1.3,1.7-1.6,2.9c-0.3,1.4-0.3,3-0.2,4.7
			c0,0.2-0.1,0.4-0.2,0.6l0.1,0c0.1-0.3,0.2-0.6,0.2-1c-0.2-2,0-4.1,0.7-5.5c0.5-1,0.8-1.4,2.2-2.2l0,0.2c-1.2,0.8-2.3,1.8-2.5,5
			l0.1-0.1c0.2-2.5,1.1-4.3,2.8-4.9c0.6-0.2,1.3-0.2,2-0.2l-0.1,0.1c-1.2-0.1-2.2,0.3-3,1.2l0.1,0c0.8-0.8,1.8-1.3,3-1L74.2,50
			c-0.8-0.1-1.6,0.2-2.2,0.7v0.1c0.8-0.5,1.4-0.8,2.1-0.6c0.2,0,0.3,0.2,0.2,0.5l-0.1,1.2c0,1.2-0.1,2.3-0.4,3.4l-0.1,0.1l0.1-2
			l-0.5,2.5c0,0.3-0.2,0.2-0.2,0c0.1-0.5,0.3-1.3,0.4-2c-0.1,0-0.2,0.1-0.2,0.2c-0.1,1.1-0.3,2-0.6,2.3c0.2-0.7,0.2-1.4,0.3-2.1
			l-0.1,0.1l-0.3,1.9c0.2,0.1-0.1,0.3-0.2,0.1l0.1-1.1l-0.1,0L72,56.9l0.2-1.2l-0.4,1.2h-0.2l0.2-1l-0.7,1.8c-0.2,0-0.2,0-0.1-0.3
			l0.4-1.2l-0.1,0c-0.3,0.9-0.5,1.6-0.8,1.7l-0.1,0c0.5-0.8,0.5-1.2,0.6-1.6c-0.2,0.8-0.5,1.3-0.9,1.8c-0.1-0.1,0-0.3,0.3-0.8
			l0.2-0.6c-0.1-0.1-0.2-0.1-0.2,0.1c-0.2,0.6-0.3,0.9-0.6,1.3l0.3-1.1l0-0.1c-0.2,0.6-0.5,1.2-0.8,1.5l0.2,0.1
			c0.6-0.4,1.4-0.3,2.3-0.6c0.2-0.1,0.4-0.1,0.5,0l-0.2,0.4l-0.2-0.2c-0.1,0.3-0.2,0.6-0.4,0.8l-0.1-0.5c-0.4,0.8-0.6,1.2-0.6,0.8
			l0.1-0.5c-0.3,0.3-0.4,0.6-0.5,1c-0.1,0-0.2-0.3-0.1-0.7l-0.2,0.8c-0.2,0-0.2-0.2-0.1-0.7c-0.2,0.4-0.3,0.8-0.4,0.8
			c-0.1-0.1-0.1-0.4,0-0.6l-0.2,0.4c0,0.3-0.1,0.4-0.2,0.4c0.1-0.5,0.1-0.6,0-0.5l-0.3,0.7c-0.2,0.1-0.2-0.1-0.2-0.5
			c-0.2,0.1-0.2,0.6-0.4,0.8c-0.1-0.1-0.2-0.3-0.1-0.6c-0.1,0.4-0.2,0.6-0.4,0.6l0-0.7c-0.1,0.3-0.2,0.6-0.3,0.8L67,60.2l-0.1,0.5
			c-0.2,0.1-0.3,0-0.4-0.4c0,0.7-0.1,1.3-0.5,1.6c0,0.2-0.2,0.6-0.4,1.2l0.7-1c0.2,0,0.2,0,0.2,0.4l-0.7,1.2c-0.1,0.1-0.2,0.1-0.4,0
			c-0.2,0.6-0.4,1-0.7,1.4c0.3-0.2,0.5-0.6,0.8-1.2c0-0.2,0.2,0,0.2,0.4l-0.2,0.2l0,0.3l-0.2,0v0.4L65,65.1
			C65.2,65.7,65,66,64.5,65.7L64.5,65.7z"/>
		<polygon class="st3" points="68.6,49 69.5,48.9 69.5,49.1 		"/>
		<path class="st3" d="M60.6,55.8c0.1-0.4,0.4-0.7,0.7-1.2c0.2-0.3,0.2-0.1,0.2,0.2C61.1,55.4,60.8,55.6,60.6,55.8L60.6,55.8z"/>
		<path class="st3" d="M69.6,48.6c-1.4-1.3-2.8-1.9-3.9-1.7c-2,0.4-2.9,2.3-3.5,4c0.3-0.6,0.6-1,1-1.1c-1,1.6-1.5,3.1-1.6,4.9
			c-0.1,0.2-0.2,0.4-0.4,0.6c-0.6,0.5-0.6,0.8-0.7,1.2c0.1-0.1,0.3-0.4,0.5-0.6c0.3-0.3,0.6-0.7,0.7-1.3c0.2-0.8,0.3-1.6,0.4-2.1
			c0.2-0.7,0.4-1.3,0.8-1.9c0.7-1.2,1.6-2.2,2.7-2.7v0.1c-1,0.6-1.8,1.4-2.6,2.7c-0.2,0.3-0.3,0.6-0.5,1.1c-0.2,0.4-0.4,0.9-0.4,1.5
			c-0.1,1.2-0.4,2-0.8,2.4c-0.4,0.5-0.6,0.7-0.6,0.9c0,0.1-0.1,0.3-0.1,0.5c0.8-1.5,1.1-1.3,1.5-2.4c0.5-1.6,0.2-3.2,2.3-5.6h0.2
			c-1,1.2-1.7,2.3-2.1,4.7c-0.1,0.4-0.1,1-0.3,1.3c-0.3,0.5-0.8,0.9-1,1.4l0.1,0c0.3-0.3,0.8-0.9,1-1.3c0.6-1.2,0.4-2.9,1.2-4.2
			c1.1-1.8,1.9-2.7,3.2-3.2l0.2,0c-1.8,1-2.1,1.6-2.9,2.7c-0.3,0.4-0.5,0.7-0.7,1.4c-0.2,0.6-0.3,1.5-0.4,2.1
			c-0.1,0.9-0.5,1.4-0.8,1.9c-0.2,0.2-0.4,0.4-0.5,0.6c-0.1,0.2-0.3,0.6-0.3,0.8l0.1,0c0.5-1.3,0.8-1,1.1-1.5
			c0.2-0.3,0.5-0.8,0.6-1.4c0.1-1.3,0.4-2.3,0.8-3.1c0.5-0.9,1.2-1.9,2-2.6c0.4-0.3,0.7-0.5,1.2-0.6h0.1c-0.6,0.4-1,0.5-1.5,1
			c-0.8,0.7-1.5,1.8-1.8,2.7c-0.4,0.9-0.6,1.8-0.7,2.8c0-0.1,0.1,0.1,0.1,0c0.4-2.3,1.2-3.9,2.3-5c0.6-0.6,1.3-1,1.9-1.2l0.4,0
			c-1,0.3-1.9,0.7-2.6,1.8l0.1,0c0.9-0.9,1.7-1.4,2.6-1.6l0.1,0c-0.6,0.2-1.1,0.4-1.4,0.7l0,0.1C67.5,49,68.5,48.7,69.6,48.6
			L69.6,48.6z"/>
		<path class="st3" d="M60.8,58.3c-0.1-0.2-0.2-0.4-0.2-0.6c0-0.3,0.2-0.2,0.3-0.1C60.9,58,60.8,58.1,60.8,58.3L60.8,58.3z"/>
		<path class="st3" d="M63.3,60.7l0.2-0.2c0.1-0.1,0.2-0.1,0.3,0C63.9,60.5,63.6,60.6,63.3,60.7L63.3,60.7z"/>
		<path class="st3" d="M63.1,61.4l0.3-0.3c0.2-0.1,0.3-0.1,0.5-0.1C63.8,61.1,63.5,61.3,63.1,61.4L63.1,61.4z"/>
		<path class="st3" d="M63.2,61.7l0.3-0.3c0.2-0.1,0.4-0.1,0.5,0C63.9,61.5,63.6,61.7,63.2,61.7L63.2,61.7z"/>
		<path class="st3" d="M63.2,62.1l0.3-0.3c0.2-0.1,0.3-0.1,0.5,0C64,61.9,63.6,62,63.2,62.1L63.2,62.1z"/>
		<path class="st3" d="M63.4,62.4l0.2-0.2c0.1-0.1,0.2-0.1,0.3,0C63.9,62.2,63.7,62.3,63.4,62.4L63.4,62.4z"/>
		<path class="st3" d="M64.5,58.8l0.2-0.1c0.1,0,0.2,0,0.2,0C64.9,58.8,64.7,58.8,64.5,58.8L64.5,58.8z"/>
		<path class="st3" d="M64.2,59.2l0.4-0.2c0.2,0,0.4,0,0.4,0.1C65,59.3,64.6,59.3,64.2,59.2L64.2,59.2z"/>
		<path class="st3" d="M64.5,58.3l0.3-0.2c0.1-0.1,0.3-0.1,0.4,0C65.1,58.2,64.8,58.3,64.5,58.3L64.5,58.3z"/>
		<path class="st3" d="M64.7,57.8l0.3-0.1c0.1,0,0.3,0.1,0.3,0.2C65.2,57.9,65,57.9,64.7,57.8L64.7,57.8z"/>
		<path class="st3" d="M64.1,63.7l0.2-0.1c0.1,0,0.2,0,0.2,0C64.5,63.7,64.3,63.8,64.1,63.7L64.1,63.7z"/>
		<path class="st3" d="M64.7,63l-0.5,0.1c-0.2,0.1-0.4,0.3-0.4,0.4C64,63.6,64.3,63.4,64.7,63L64.7,63z"/>
		<path class="st3" d="M64.5,62.8h-0.4c-0.2,0-0.3,0.2-0.3,0.3C63.9,63.2,64.2,63,64.5,62.8L64.5,62.8z"/>
		<path class="st3" d="M66.2,64.6l0.2-0.5c0.1-0.2,0.3-0.2,0.5-0.2C66.9,64.1,66.6,64.4,66.2,64.6L66.2,64.6z"/>
		<path class="st3" d="M67.2,64.2l0.4-0.2c0.2,0,0.4,0.1,0.5,0.2h0c0,0.1-0.3,0.4-0.6,0.6l0.2-0.4c0,0,0.1-0.1,0.2-0.1
			c0,0-0.1,0-0.1,0c-0.1,0.1-0.3,0.2-0.5,0.4l0.2-0.3c0,0,0.1-0.1,0.1-0.1C67.3,64.2,67.3,64.2,67.2,64.2L67.2,64.2z"/>
		<path class="st3" d="M69.1,64.2c0.1-0.1,0.6,0,0.5,0.2l0,0c0,0.1-0.3,0.4-0.6,0.6l0.2-0.4c0-0.1,0.1-0.1,0.1-0.1c0,0-0.1,0-0.2,0
			c-0.1,0.1-0.2,0.2-0.4,0.4l0.1-0.3c0,0,0.1,0,0.1-0.1c0,0-0.1,0-0.1,0c-0.1,0.1-0.2,0.2-0.3,0.3l0.1-0.2
			C68.8,64.3,68.9,64.3,69.1,64.2L69.1,64.2z"/>
		<path class="st3" d="M72,64.2c0-0.4,0.3-0.6,0.8-0.7c0.6-0.1,1.4,0,1.2,0.3c0,0,0,0-0.1,0l-0.1,0.3l-0.2,0.4l0.2-0.5l0.1-0.2
			c-0.1,0-0.2-0.1-0.3-0.1l-0.2,0.2L73,64.3l0.3-0.4l0.1-0.2c0,0-0.1,0-0.1,0L73,63.9l-0.3,0.4l0.3-0.4l0.1-0.2c-0.1,0-0.1,0-0.2,0
			l-0.1,0.2l-0.3,0.4l0.2-0.5l0.1-0.1c-0.1,0-0.2,0-0.2,0.1l-0.2,0.4l0.1-0.4C72.2,63.9,72.1,64,72,64.2L72,64.2z"/>
		<path class="st3" d="M69.9,64.5L69.9,64.5L69.9,64.5L69.9,64.5l0.6-0.4c0.4-0.2,0.8-0.2,0.8,0.1c0,0,0,0.1-0.1,0.1
			c0,0.1,0,0.2,0,0.4L71,64.3c0,0-0.1,0-0.1,0c0,0.2,0,0.4,0,0.5l-0.2-0.5c0,0-0.1,0-0.1,0c0,0.2,0,0.5,0,0.8l-0.3-0.6c0,0,0,0,0,0
			c0,0.1-0.1,0.3-0.1,0.4l-0.1-0.4l0,0c-0.1,0.2-0.2,0.4-0.2,0.6L69.9,64.5C69.9,64.5,69.9,64.5,69.9,64.5
			C69.9,64.5,69.9,64.5,69.9,64.5L69.9,64.5z"/>
		<path class="st3" d="M63.6,49.5c0.3-0.3,0.6-0.6,1-1C64.1,48.7,63.8,49,63.6,49.5L63.6,49.5z"/>
		<path class="st3" d="M68.8,66.8c-0.1-0.2-0.2-0.4,0-0.9c0.2-0.5,0.4-0.6,0.5-0.6c0.2,0.2,0,0.5,0,1L69,66l0.1,0.6l-0.3-0.3
			L68.8,66.8L68.8,66.8z"/>
		<path class="st3" d="M71.9,67.4c0-0.1-0.1-0.1-0.1-0.1C71.8,67.3,71.8,67.4,71.9,67.4c0,0.2,0,0.2,0.1,0.2
			C72,67.6,72,67.5,71.9,67.4L71.9,67.4z"/>
		<path class="st3" d="M71.9,67.8c-0.1-0.1-0.2-0.2-0.2-0.2c0,0,0,0.1,0.1,0.3c0.1,0.1,0.2,0.2,0.2,0.2C72.1,68.1,72,68,71.9,67.8
			L71.9,67.8z"/>
		<path class="st3" d="M71.7,68.2c-0.1-0.1-0.1-0.2-0.2-0.2c0,0,0,0.1,0,0.2c0.1,0.1,0.1,0.2,0.2,0.2C71.8,68.4,71.8,68.3,71.7,68.2
			L71.7,68.2z"/>
		<path class="st3" d="M71.5,68.6c0-0.2-0.2-0.3-0.2-0.3c0,0,0,0.2,0,0.4c0,0.2,0.1,0.3,0.2,0.3C71.6,68.9,71.6,68.8,71.5,68.6
			L71.5,68.6z"/>
		<path class="st3" d="M68.9,68.4c0.1,0,0.2,0.1,0.2,0.1c0,0-0.1,0-0.2,0c-0.1,0-0.2-0.1-0.2-0.1C68.7,68.4,68.8,68.4,68.9,68.4
			L68.9,68.4z"/>
		<path class="st3" d="M68.8,68.1c0.2,0,0.3,0.1,0.3,0.1c0,0-0.1,0.1-0.3,0c-0.2,0-0.3-0.1-0.3-0.1C68.5,68.1,68.7,68.1,68.8,68.1
			L68.8,68.1z"/>
		<path class="st3" d="M68.8,67.8c0.2,0,0.3,0.1,0.3,0.2c0,0.1-0.2,0.1-0.4,0c-0.2,0-0.3-0.1-0.3-0.2C68.4,67.8,68.6,67.8,68.8,67.8
			L68.8,67.8z"/>
		<path class="st3" d="M74.5,64c-0.1-0.4,0.4-0.6,0.9-0.4c0.4,0.2,0.9,0.2,1.5,0.1c0.3-0.1,0.6-0.1,1,0c0.3,0.2,0.3,0.3-0.1,0.4
			c-0.7,0.7-1.2,1.4-1.3,2c-0.2-0.3,0.3-1.2,1.1-2.2c-0.5,0.4-0.9,0.9-1.3,1.4c0.1-0.4,0.4-0.8,0.8-1.4c-0.9,0.6-1.5,1.6-1.4,3.4
			c-0.3-1.1-0.1-2.1,0.6-3.1l-1,1l0.9-1.3l-0.5,0.2l0-0.2L75.3,64v-0.2l-0.4,0.4l0.1-0.4C74.8,63.7,74.7,63.8,74.5,64L74.5,64z"/>
		<path class="st3" d="M74.9,66.5c0,0.3,0,0.6,0.2,0.9c0.1,0.1,0.2,0,0.1-0.2C75.1,67.1,75,66.8,74.9,66.5L74.9,66.5z"/>
		<path class="st3" d="M76,66.6c0,0,0.1,0.1,0.1,0.3s0,0.3-0.1,0.3S76,67.1,76,66.9C76,66.8,76,66.6,76,66.6L76,66.6z"/>
		<path class="st3" d="M77.1,65.5c0,0,0,0.1,0,0.2C77,65.9,76.9,66,76.9,66c0,0,0-0.1,0-0.2C77,65.6,77,65.5,77.1,65.5L77.1,65.5z"
			/>
		<path class="st3" d="M77.3,65c0,0,0,0.1-0.1,0.2c-0.1,0.1-0.2,0.2-0.2,0.2c0,0,0-0.1,0.1-0.2C77.2,65,77.3,65,77.3,65L77.3,65z"/>
		<path class="st3" d="M85.6,65.8c0.4,0.1,0.4,0.7,0.2,1.3C85.9,66.6,85.8,66.2,85.6,65.8L85.6,65.8z"/>
		<path class="st3" d="M83.7,68.6c0-0.1-0.1-0.2-0.1-0.3C83.6,68.4,83.6,68.5,83.7,68.6L83.7,68.6L83.7,68.6z"/>
		<path class="st3" d="M79.3,61.9c0,0,0.1,0,0.2,0l0.2,0.3c-0.1,0-0.1,0-0.2,0L79.3,61.9L79.3,61.9z"/>
		<path class="st3" d="M79,63.8c0,0,0.1,0.1,0.1,0.2c0,0.1,0,0.2,0,0.2c0,0-0.1-0.1-0.1-0.2C78.9,63.9,78.9,63.8,79,63.8L79,63.8z"
			/>
		<path class="st3" d="M79.3,63.8c0,0,0.1,0.1,0.1,0.2c0,0.1,0.1,0.2,0,0.2c0,0-0.1-0.1-0.1-0.2C79.3,63.9,79.3,63.8,79.3,63.8
			L79.3,63.8z"/>
		<path class="st3" d="M79.7,63.7c0,0,0.1,0.1,0.2,0.3c0,0.1,0,0.2-0.1,0.2c-0.1,0-0.1,0-0.1-0.2C79.7,63.9,79.7,63.7,79.7,63.7
			L79.7,63.7z"/>
		<path class="st3" d="M80.1,63.6c0,0,0.1,0.1,0.2,0.3c0,0.2,0.1,0.3,0,0.3c0,0-0.1-0.1-0.2-0.3C80.1,63.7,80.1,63.6,80.1,63.6
			L80.1,63.6z"/>
		<path class="st3" d="M80.5,63.6c0.1,0,0.1,0.1,0.2,0.3c0,0.2,0,0.4,0,0.4c0,0-0.1-0.2-0.2-0.3C80.5,63.7,80.5,63.6,80.5,63.6
			L80.5,63.6z"/>
		<path class="st3" d="M80.9,63.6c0,0,0.2,0.2,0.2,0.4c0,0.2,0.1,0.3-0.1,0.3c-0.2,0-0.1-0.1-0.2-0.3C80.9,63.9,80.9,63.6,80.9,63.6
			L80.9,63.6z"/>
		<path class="st3" d="M81.2,63.6c0.1,0,0.1,0.1,0.2,0.3c0,0.2,0,0.4,0,0.4c0,0-0.1-0.1-0.2-0.3C81.2,63.7,81.2,63.6,81.2,63.6
			L81.2,63.6z"/>
		<path class="st3" d="M81.7,63.5c0,0,0.1,0.2,0.1,0.4c0,0.2,0,0.4-0.1,0.4c0,0-0.1-0.2-0.1-0.4C81.6,63.6,81.6,63.5,81.7,63.5
			L81.7,63.5z"/>
		<path class="st3" d="M82.1,63.6c0,0,0.1,0.2,0.1,0.4c0,0.2,0,0.4-0.1,0.4C82,64.3,82,64.2,82,64C82,63.8,82,63.6,82.1,63.6
			L82.1,63.6z"/>
		<path class="st3" d="M82.5,63.5c0,0,0.1,0.2,0.1,0.4c0,0.2,0,0.4-0.1,0.4c0,0-0.1-0.2-0.1-0.4C82.4,63.7,82.4,63.5,82.5,63.5
			L82.5,63.5z"/>
		<path class="st3" d="M82.9,63.4c0.1,0,0.1,0.2,0.1,0.5c0,0.2-0.1,0.5-0.2,0.5c0,0-0.1-0.2,0-0.5C82.7,63.6,82.8,63.4,82.9,63.4
			L82.9,63.4z"/>
		<path class="st3" d="M83.4,63.3c0.1,0,0.1,0.2,0,0.5c0,0.3-0.1,0.5-0.2,0.5c0,0-0.1-0.2,0-0.5C83.2,63.5,83.3,63.3,83.4,63.3
			L83.4,63.3z"/>
		<path class="st3" d="M83.8,63.1c0.1,0,0.2,0.3,0.1,0.6c-0.1,0.3-0.2,0.6-0.2,0.6c-0.1,0,0-0.3,0-0.6
			C83.8,63.4,83.8,63.1,83.8,63.1L83.8,63.1z"/>
		<path class="st3" d="M81.5,65.6c0,0,0.1,0.1,0.1,0.2c0,0.1,0,0.2,0,0.2c0,0-0.1-0.1-0.1-0.2C81.5,65.7,81.5,65.6,81.5,65.6
			L81.5,65.6z"/>
		<path class="st3" d="M81.9,65.5c0,0,0.1,0.1,0.2,0.2c0,0.1,0,0.2,0,0.2c-0.1,0-0.1,0-0.1-0.2C81.8,65.7,81.8,65.5,81.9,65.5
			L81.9,65.5z"/>
		<path class="st3" d="M84.9,64.6c0,0,0,0.1,0,0.2l0,0c0.1,0,0.1-0.1,0.2-0.1c0-0.4,0-0.8,0-1.1C85,63.9,84.9,64.2,84.9,64.6
			L84.9,64.6z"/>
		<path class="st3" d="M84.6,65c-0.1,0.6-0.1,0.8-0.4,1c0.1-0.4,0-0.6,0-0.7c-0.1,0-0.1,0-0.2,0c0,0,0,0,0,0.1c0,0.2,0,0.5-0.2,0.9
			c0-0.3,0.1-0.6,0.1-0.9c-0.1,0-0.1,0-0.2,0.1c0,0,0,0.3,0,0.3c0,0.1-0.2,0.5-0.2,0.5c0,0,0.1-0.6,0-0.8c0,0-0.1,0-0.2,0
			c0,0,0,0.1,0,0.1c0,0.1,0,0.1-0.1,0.1c0,0,0,0,0-0.1c0,0,0-0.1,0-0.1c0,0-0.1,0-0.1,0v0c0,0.1,0,0.1,0,0.1c0,0-0.1-0.1-0.1-0.1
			c0,0-0.1,0-0.1,0c0,0.1,0,0.2-0.1,0.2c-0.1,0-0.1-0.1-0.1-0.2c-0.1,0-0.1,0-0.2,0c0,0.1,0,0.2,0,0.2c0,0-0.1,0-0.1-0.1
			c-0.1,0-0.1,0-0.2,0c0,0.1,0,0.1,0,0.2c0,0-0.1,0-0.1-0.1l0,0c0,0,0,0,0,0c0,0,0-0.1,0-0.1c-0.1-0.1-0.1-0.3-0.1-0.3
			c0,0,0.1,0.1,0.2,0.2c0,0,0,0.1,0,0.2c0,0,0.1,0,0.2,0c0,0,0-0.1,0-0.1c0-0.2,0-0.3,0-0.4s0.1,0.1,0.2,0.3c0,0,0,0.1,0,0.1
			c0.1,0,0.1,0,0.2-0.1c0-0.1,0-0.2,0-0.2c0-0.1,0-0.1,0-0.1c0,0,0.1,0.1,0.2,0.3c0,0,0.1,0,0.1,0c0,0,0,0,0,0c0-0.1,0-0.2,0-0.3
			c0-0.1,0-0.1,0-0.1c0,0,0.1,0.2,0.2,0.3c0,0,0,0,0,0.1c0,0,0.1,0,0.1,0c0,0,0,0,0,0c0-0.1,0-0.2,0-0.3c0-0.1,0-0.1,0-0.1
			s0,0,0.1,0.1c0,0.1,0,0.2,0.1,0.3l0,0c0,0,0.1,0,0.1,0c0-0.1,0-0.1,0-0.2c0-0.1,0-0.1,0-0.1c0,0,0.1,0.1,0.1,0.2
			c0.1,0,0.1,0,0.2-0.1c0-0.1,0-0.2,0-0.2s0-0.1,0-0.1c0,0,0,0,0,0.1c0,0.1,0,0.1,0,0.2c0,0,0.1,0,0.1-0.1l0,0c0-0.1,0-0.3,0-0.4
			c0-0.1,0-0.2,0.1-0.2c0,0,0,0,0,0.1c0,0.1,0,0.2,0,0.3l0,0c0,0,0.1,0,0.1,0c0.2-0.6,0.4-1.5,0.4-2.2c0-0.1-0.1-0.2-0.1-0.2
			c0,0.8-0.1,1.6-0.4,2c0.1-0.7,0.2-1.4,0-2.3h0c0,0,0,0,0,0c0,0.9,0,1.7-0.2,2.2c0.1-0.7,0.1-1.5-0.2-2.4c0,0-0.1,0-0.1,0
			c0.2,0.2,0.2,0.9,0.1,1c-0.1-0.4,0-0.6-0.4-0.8c0,0-0.1,0-0.1,0c0.2,0.2,0.2,0.6,0.2,0.8c-0.1-0.2-0.3-0.5-0.5-0.7
			c-0.1,0-0.1,0-0.2,0c0.3,0.3,0.3,0.4,0.2,0.7c-0.1-0.3-0.6-0.5-0.7-0.6c-0.1,0-0.1,0-0.2,0c0.2,0.1,0.5,0.5,0.4,0.6
			c-0.2-0.2-0.5-0.4-0.6-0.6c-0.1,0,0,0-0.1,0c0,0.1,0,0.2,0,0.4c-0.2,0-0.3-0.1-0.6-0.3c0,0-0.1,0-0.1,0c0,0.1,0.1,0.2,0.1,0.3
			c0-0.1-0.5-0.3-0.6-0.4c0,0,0.1,0-0.2,0c0,0.1,0.2,0.4,0.2,0.5c0-0.1-0.4-0.4-0.4-0.5c-0.1,0-0.2,0-0.3,0l-0.2-0.3
			c1,0.1,2.1,0,3.4-0.2l1.2-0.2c0.4-0.1,0.7,0.1,0.8,0.7l0.1,0.7c0.3,0.4,0.4,0.8,0.1,1.5c0.1,0.5,0.4,0.9,0.8,1.2
			c0.4,0.3,0.4,0.8,0,1.5c-0.4,1-0.9,1.6-1.4,2.2c0,0,0,0,0,0.1c0,0,0,0-0.1,0.1c0,0,0-0.1,0.1-0.1c0-0.1,0-0.2-0.1-0.3
			c0.1,0.1,0.1,0.2,0.1,0.2c0.1-0.1,0.1-0.2,0.2-0.3c0-0.1,0-0.2-0.1-0.4c0,0.1,0.1,0.2,0.1,0.2c0-0.1,0.1-0.2,0.2-0.3
			c0-0.1-0.1-0.2-0.1-0.4c0.1,0.1,0.1,0.2,0.2,0.3c0.1-0.1,0.1-0.2,0.2-0.3c0-0.1-0.1-0.2-0.1-0.3c0,0.1,0.1,0.1,0.1,0.2
			c0.1-0.2,0.1-0.4,0.1-0.5l-2.3,1.4c0.2-0.2,0.4-0.3,0.6-0.5l0,0c0-0.1,0-0.3-0.1-0.4c0.1,0.1,0.1,0.2,0.2,0.4c0,0,0.1-0.1,0.2-0.1
			c0-0.2,0-0.4-0.1-0.5c0.1,0.2,0.1,0.3,0.2,0.4c0.1,0,0.1-0.1,0.2-0.2c0-0.2,0-0.5-0.1-0.7c0.1,0.2,0.2,0.4,0.2,0.6
			c0.1-0.1,0.1-0.1,0.2-0.2c0-0.3-0.1-0.7-0.1-1c0.1,0.3,0.3,0.6,0.3,0.8c0,0,0.1-0.1,0.1-0.1c0-0.3-0.1-0.7-0.1-1.1
			c0.2,0.3,0.3,0.7,0.3,0.9c0,0,0,0,0.1-0.1c0-0.4-0.1-0.8-0.1-1.3c0.2,0.4,0.3,0.8,0.3,1.1c0,0,0.1-0.1,0.1-0.1
			c0-0.6-0.2-1.2-0.4-1.8c-0.1,0.3-0.1,0.4-0.2,0.4c0-0.4,0-0.5,0-0.6c0,0.5-0.2,0.8-0.3,1l0.1-0.8L84.6,65L84.6,65L84.6,65z"/>
		<path class="st3" d="M82.6,66.4L82.6,66.4c0,0.1,0,0.2-0.1,0.2c-0.1,0-0.1-0.1,0-0.2H82.6L82.6,66.4z"/>
		<path class="st3" d="M82.9,66.2c0,0,0.1,0.1,0.1,0.2c0,0.2,0,0.3-0.1,0.3c-0.1,0-0.1-0.2-0.1-0.3C82.8,66.2,82.8,66.2,82.9,66.2
			L82.9,66.2z"/>
		<path class="st3" d="M83.2,66.2L83.2,66.2c0,0.2,0,0.4-0.1,0.4c-0.1,0-0.1-0.2,0-0.4H83.2L83.2,66.2z"/>
		<path class="st3" d="M83.1,65.9c0,0,0,0,0,0.1h-0.1C83.1,66,83.1,65.9,83.1,65.9L83.1,65.9z"/>
		<path class="st3" d="M83.4,65.9c0,0,0.1,0.1,0.1,0.3c0,0.2,0,0.4-0.2,0.4c-0.2,0-0.1-0.2-0.1-0.4C83.4,66,83.4,65.9,83.4,65.9
			L83.4,65.9z"/>
		<path class="st3" d="M81.9,59.5c0.6,0.1,1.1,0.6,1.7,1.1c0.1,0.2,0,0.2-0.1,0.1C83.1,60.6,82.6,59.9,81.9,59.5L81.9,59.5z"/>
		<path class="st3" d="M84,61c0.1,0.1,0.2,0.1,0.1,0.2c0,0-0.1,0-0.2,0c-0.1-0.1-0.2-0.2-0.1-0.2C83.8,60.9,83.9,60.9,84,61L84,61z"
			/>
		<path class="st3" d="M78.5,61.8c0.2,0,0.4,0,0.6,0.1l0.1,0.2l0,0c-0.1,0,0.2,0.7-0.2,0c0-0.1-0.2-0.1-0.3-0.1
			C78.6,61.9,78.7,61.8,78.5,61.8L78.5,61.8z"/>
		<path class="st3" d="M75.7,71.4c0.1,0,0.2,0,0.2,0.1c0,0-0.1,0.1-0.2,0.1c-0.1,0-0.2,0-0.2-0.1C75.5,71.4,75.6,71.4,75.7,71.4
			L75.7,71.4z"/>
		<path class="st3" d="M76,71.9c0.2,0,0.4-0.1,0.4,0c0,0-0.1,0.1-0.3,0.2c-0.2,0-0.4,0-0.4,0C75.7,72,75.8,72,76,71.9L76,71.9z"/>
		<path class="st3" d="M76.2,72.1c0.2,0,0.4-0.1,0.4,0c0,0-0.1,0.1-0.3,0.2c-0.2,0.1-0.4,0.1-0.4,0C75.8,72.2,75.9,72.1,76.2,72.1
			L76.2,72.1z"/>
		<path class="st3" d="M76.4,72.3c0.1,0,0.3,0,0.3,0c0,0-0.1,0.1-0.2,0.1c-0.2,0-0.3,0-0.3,0C76.2,72.4,76.3,72.3,76.4,72.3
			L76.4,72.3z"/>
		<path class="st3" d="M76.6,72.5c0.1,0,0.2,0,0.2,0.1c0,0-0.1,0.1-0.2,0.1c-0.1,0-0.2,0-0.2-0.1C76.4,72.5,76.5,72.5,76.6,72.5
			L76.6,72.5z"/>
		<path class="st3" d="M79,71.6c0.2-0.1,0.4-0.1,0.4,0c0,0.1-0.1,0.2-0.3,0.3c-0.2,0.1-0.4,0.1-0.4,0C78.7,71.8,78.8,71.7,79,71.6
			L79,71.6z"/>
		<path class="st3" d="M78.7,71.4c0.1-0.1,0.3-0.1,0.3,0c0,0.1-0.1,0.2-0.2,0.2c-0.1,0.1-0.3,0-0.3,0C78.4,71.5,78.5,71.4,78.7,71.4
			L78.7,71.4z"/>
		<path class="st3" d="M78.4,71c0.1,0,0.2,0,0.2,0c0,0.1,0,0.1-0.2,0.2c-0.1,0-0.2,0-0.2,0C78.2,71.1,78.3,71,78.4,71L78.4,71z"/>
		<path class="st3" d="M75.2,69.2c0-0.1-0.1-0.1-0.2,0c0,0.2,0,0.4,0.2,0.4c0.2,0.1,0.2-0.1,0.1-0.2C75.2,69.3,75.2,69.3,75.2,69.2
			L75.2,69.2z"/>
		<path class="st3" d="M74.8,69c0-0.1-0.1-0.2-0.2-0.1c-0.1,0.2-0.2,0.4,0,0.6c0.2,0.2,0.3,0,0.2-0.1C74.8,69.2,74.8,69.1,74.8,69
			L74.8,69z"/>
		<path class="st3" d="M90.3,59c-0.1,0.2-0.2,1,0.5,1.9c0.2,0.3,0,0.5,0.3,0.6c0.1,0,0.2-0.1,0.2-0.3L91.1,61h0.3l-0.3-0.2
			c0.1,0,0.4,0,0.4-0.1c0-0.1-0.3-0.2-0.5-0.2l0.4-0.1c0-0.1-0.2-0.2-0.6-0.3l0.4-0.1l-0.4-0.2l0.3-0.1l-0.5-0.2l0.3-0.1l-0.3-0.1
			l0.3-0.1C90.6,59,90.5,58.8,90.3,59L90.3,59z"/>
		<path class="st3" d="M89.8,59.6c-0.1-0.3-0.2-0.5-0.1-0.8c0.2-0.4,0.3-0.5,0.4-0.5c0.3,0.3-0.2,0.5-0.3,0.7
			C89.8,59.1,89.8,59.2,89.8,59.6L89.8,59.6z"/>
		<path class="st3" d="M89.7,58.2c0.1-0.1,0.2-0.2,0.3-0.1c0,0,0,0.2-0.1,0.3c-0.1,0.1-0.2,0.2-0.3,0.2
			C89.5,58.5,89.6,58.4,89.7,58.2L89.7,58.2z"/>
		<path class="st3" d="M89.6,59.7c0.1,0,0.1,0.1,0.1,0.2c0,0.1-0.1,0.1-0.1,0.1c-0.1,0-0.2-0.1-0.2-0.1
			C89.4,59.7,89.5,59.7,89.6,59.7L89.6,59.7z"/>
		<path class="st3" d="M89.9,60.1c0.1,0,0.1,0.1,0,0.2c0,0.1-0.1,0.2-0.2,0.1c-0.1,0-0.1-0.1,0-0.2C89.7,60.1,89.8,60.1,89.9,60.1
			L89.9,60.1z"/>
		<path class="st3" d="M90.2,60.6c0.1,0,0.1,0.2,0,0.3C90.1,61,90,61,89.9,61c-0.1,0-0.1-0.2-0.1-0.3C89.9,60.6,90,60.5,90.2,60.6
			L90.2,60.6z"/>
		<path class="st3" d="M90.5,61.1c0.1,0.1,0,0.2-0.1,0.2c-0.1,0-0.2,0-0.3-0.1c0-0.1,0-0.2,0.1-0.2C90.3,61,90.4,61,90.5,61.1
			L90.5,61.1z"/>
		<path class="st3" d="M92.1,61.3c0-0.1,0-0.2-0.1-0.2c-0.1,0-0.2,0-0.2-0.1c-0.1-0.3,0-0.4,0.3-0.5c0.2,0,0.2,0.1,0.2,0.2l-0.1,0.1
			c0.2,0.1,0.3,0.1,0.4,0.2c-0.1,0-0.2,0-0.2,0.1c0.4-0.1,0.4,0.5,0,0.4c-0.2-0.1-0.3,0-0.2,0.4c0.1,0.4,0.4,0.6,0.4,0.1
			c0-0.2,0.7-0.3,0.8,0.2L93,62.2c0.1,0.4,0.4,0.2,0.4,0.5l-0.2,0c0.3,0.2,0.5,0.4,0.6,0.7c-0.3,0-0.3-0.4-0.6-0.4
			c0.4,0.5,0.8,0.4,1,0.9c-0.3,0-0.7-0.3-1.1-0.7c0.4,0.5,0.6,1,0.5,1.2c-0.6-0.2-0.7-1.1-0.9-1.3c0,0.4,0.3,0.7,0.2,1.1
			c-0.2-0.3-0.3-0.7-0.3-1.4c0.2,0,0.3-0.1,0.3-0.5c0-0.4-0.2-0.4-0.2,0c0,0.3-0.2,0.4-0.8,0c-0.1,0.1,0,0.2,0.4,0.4l0,0.3l0.2-0.3
			l0.1,0.9c0,0.2-0.1,0.2-0.2,0l-0.1-0.5c0,0.3,0,0.5-0.2,0.5L92.1,63l-0.2,0.3l-0.1-0.5L91.5,63v-0.6c-0.2,0.1-0.3,0-0.5-0.2
			c0.2,0.1,0.4,0,0.6-0.1C91.5,61.6,91.7,61.4,92.1,61.3L92.1,61.3z"/>
		<path class="st3" d="M86.8,64c0-0.2,0.1-0.3-0.1-0.5c-0.1-0.1-0.2-0.1-0.1,0C86.6,63.7,86.8,63.9,86.8,64L86.8,64z"/>
		<path class="st3" d="M86.5,62.7c0.3,0.2,0.4,0.2,0.6,0.6c0,0.2,0,0.3-0.1,0.1C86.8,63.2,86.7,62.9,86.5,62.7L86.5,62.7z"/>
		<path class="st3" d="M86.5,61.8c0.4,0.3,0.5,0.3,0.7,0.9c0,0.2,0,0.4-0.2,0.2C86.8,62.6,86.8,62.2,86.5,61.8L86.5,61.8z"/>
		<path class="st3" d="M86.7,61.2c0.4,0.1,0.7,0.6,0.7,1.1c0,0.2-0.1,0.4-0.2,0.2C87.2,62.2,87,61.5,86.7,61.2L86.7,61.2z"/>
		<path class="st3" d="M86.9,60.9c0.4,0.2,0.6,0.4,0.8,0.8c0,0.2,0,0.3-0.2,0.2C87.4,61.5,87.2,61.2,86.9,60.9L86.9,60.9z"/>
		<path class="st3" d="M89.5,71.9c0.1-0.2,0.4-0.4,0.8-0.3c0.2,0,0.2,0.3,0.2,0.4c-0.1-0.1-0.2-0.2-0.3-0.1
			C89.8,71.7,89.7,71.8,89.5,71.9L89.5,71.9z"/>
		<path class="st3" d="M88.3,71.9c0.1,0,0.2,0,0.2,0.1c0,0.1-0.1,0.1-0.2,0.1c-0.1,0-0.1,0-0.1-0.1C88.1,72,88.2,71.9,88.3,71.9
			L88.3,71.9z"/>
		<path class="st3" d="M87.5,71.9c0,0,0.1,0.1,0.2,0.2c0,0.1,0,0.2,0,0.2c0,0-0.1,0-0.2-0.2C87.5,72.1,87.5,71.9,87.5,71.9
			L87.5,71.9z"/>
		<path class="st3" d="M87.8,71.9c0,0,0.1,0,0.1,0.1c0,0.1,0,0.1,0,0.2c0,0-0.1,0-0.1-0.1C87.7,72,87.7,71.9,87.8,71.9L87.8,71.9z"
			/>
		<path class="st3" d="M87.8,69C87.8,69.1,87.8,69.1,87.8,69c-0.1,0.2-0.2,0.2-0.2,0.2c0,0,0-0.1,0-0.2c0,0,0.1-0.1,0.1-0.1
			c0,0,0,0,0-0.1c0,0,0,0,0,0.1c-0.1,0.1-0.2,0.2-0.2,0.1c0,0,0-0.2,0.1-0.3c0,0,0.1-0.1,0.1-0.1c0,0,0,0,0,0l0,0
			c-0.1,0.1-0.2,0.2-0.2,0.1c0,0,0-0.2,0.1-0.3c0,0,0,0,0,0c0,0,0-0.1-0.1-0.1c-0.1,0-0.1,0.1-0.2,0c0,0,0-0.1,0.1-0.2
			c0-0.1-0.1-0.2,0-0.2c0.1-0.1,0.2,0,0.3,0.3c0,0.1,0,0.2,0.1,0.2c0,0.1,0.2,0.1,0.2,0.2C88,69,88,69.2,88,69.2
			C87.9,69.3,87.9,69.2,87.8,69L87.8,69z"/>
		<path class="st3" d="M87.8,69.3c0.1,0,0,0.2-0.1,0.3c-0.1,0.1-0.2,0.2-0.3,0.2c-0.1,0,0-0.2,0.1-0.3
			C87.7,69.3,87.8,69.2,87.8,69.3L87.8,69.3z"/>
		<path class="st3" d="M90.6,68c0,0,0,0.1,0,0.3c0,0.1-0.1,0.2-0.2,0.2c0,0,0-0.1,0-0.3C90.5,68,90.5,67.9,90.6,68L90.6,68z"/>
		<path class="st3" d="M90.2,67.8c0,0,0,0.2-0.1,0.4c-0.1,0.2-0.2,0.3-0.3,0.3c-0.1,0,0-0.2,0.1-0.4C90,67.9,90.2,67.8,90.2,67.8
			L90.2,67.8z"/>
		<path class="st3" d="M89.5,67.5c0,0,0,0.2,0,0.3c-0.1,0.2-0.2,0.3-0.2,0.2c0,0,0-0.2,0-0.3C89.3,67.6,89.4,67.5,89.5,67.5
			L89.5,67.5z"/>
		<path class="st3" d="M67.9,30c0.1-0.3,0.3-0.5,0.5-0.5l0.5,0.1c0.2,0.1,0.2,0.2,0,0.2c-0.4-0.1-0.6,0-0.7,0.3
			C68,30.3,67.9,30.4,67.9,30L67.9,30z"/>
		<path class="st3" d="M69.5,31c0,0,0.1,0,0.1,0.1c0,0.1-0.1,0.1-0.1,0.1c-0.1,0-0.1-0.1-0.1-0.1C69.4,31,69.4,31,69.5,31L69.5,31z"
			/>
		<path class="st3" d="M67.9,30.5c-0.2,0.2-0.1,0.4,0.2,0.7l0.4,0.4c0.3,0.2,0.5,0.2,0.4-0.2c0-0.2,0-0.3,0.2-0.3
			c0.1,0,0.2-0.1,0.3-0.2c0-0.2,0-0.3-0.1-0.3c-0.3,0.2-0.5,0.3-0.7,0.3c0.3-0.2,0.5-0.3,0.5-0.4c0.1-0.1,0.2-0.1,0.3,0
			c0-0.1,0-0.2-0.2-0.3c-0.3,0-0.6,0.2-0.9,0.5c0.2-0.4,0.4-0.6,0.8-0.6c0-0.1,0-0.2-0.1-0.3c-0.2,0-0.5,0-0.7,0.2L67.9,30.5
			L67.9,30.5z"/>
		<path class="st3" d="M69.7,33.3c0.7,0.7,1.4,1.6,1.8,2.5v0.8l-0.3-0.9c0,0.6,0,1.1-0.1,0.9L71,35.3l-0.2,0.6L70.7,35
			c-0.1-0.1-0.1,0.4-0.1,1.1c-0.2-0.2-0.2-0.8-0.2-1.4l-0.2,0.6c-0.1-0.3-0.1-0.8,0-1.2c-0.1-0.1-0.2,0.1-0.3,0.8
			c-0.2-0.4-0.1-0.8,0-1.2L69.7,34L69.7,33.3L69.7,33.3z"/>
		<path class="st3" d="M75.1,27c0.2,0.2,0.6,0.2,0.9,0.2l0,0.2c0.5,0,1.1-0.2,1.6-0.6c0,0-0.1,0-0.2,0c-0.4,0.2-0.4,0.1,0.4-0.3
			c0.1-0.1,0.2,0,0.4,0l0.5-0.1c-0.4,0.4-0.8,0.7-1.2,1c-0.6,0.4-1.2,0.4-1.7,0.3c-0.3-0.1-0.6-0.3-0.8-0.5
			C74.9,27,74.8,26.9,75.1,27L75.1,27z"/>
		<path class="st3" d="M78.2,27.1c0.1,0,0.1,0,0.1,0.1c0,0,0,0.1-0.1,0.1C78.1,27.3,78.1,27.3,78.2,27.1
			C78.1,27.2,78.1,27.1,78.2,27.1L78.2,27.1z"/>
		<path class="st3" d="M78.8,28.5c0-0.1,0.1-0.1,0.1,0c0,0,0,0.1,0,0.1c0,0.1-0.1,0.1-0.1,0.1C78.8,28.6,78.8,28.5,78.8,28.5
			L78.8,28.5z"/>
		<path class="st3" d="M80.4,27.9c0.1,0,0.1,0,0.2,0c0,0,0,0.1-0.1,0.2c-0.1,0-0.1,0-0.2,0C80.3,28,80.3,27.9,80.4,27.9L80.4,27.9z"
			/>
		<path class="st3" d="M80.1,27.6c0.1,0,0.1-0.1,0.2,0c0,0,0,0.1,0,0.2c-0.1,0-0.1,0.1-0.2,0C80,27.7,80,27.7,80.1,27.6L80.1,27.6z"
			/>
		<path class="st3" d="M77.6,28.1c0.1,0,0.1,0,0.2,0c0,0,0,0.1-0.1,0.1c-0.1,0-0.1,0-0.2,0C77.5,28.1,77.6,28.1,77.6,28.1L77.6,28.1
			z"/>
		<path class="st3" d="M78.5,29.7c0.1,0,0.2,0,0.2,0c0,0,0,0.1-0.1,0.2c-0.1,0-0.2,0-0.2,0C78.3,29.8,78.4,29.7,78.5,29.7L78.5,29.7
			z"/>
		<path class="st3" d="M75.7,28.2c0.2,0,0.6-0.1,1-0.3l0.5-0.2c0.2-0.1,0.3-0.1,0.1,0.1c-0.2,0.2-0.5,0.3-0.7,0.5
			c-0.2,0.1-0.5,0.3-1,0.2C75.4,28.4,75.4,28.2,75.7,28.2L75.7,28.2z"/>
		<path class="st3" d="M77.2,28c0.3-0.3,0.5-0.3,0.9-0.5c0.4-0.2,0.8-0.2,1.1-0.2c0.3-0.2,0.5,0.1,0.2,0.4c-0.1,0.1-0.2,0.1-0.3,0.2
			c-0.3,0.2-0.6,0.3-0.9,0.4c-0.4,0.1-0.4,0.1-0.1-0.2c0.1-0.1,0.2-0.2,0.3-0.2c0.2-0.2,0.5-0.2,0.8-0.2c-0.4-0.2-1.1,0.1-1.8,0.5
			C77.1,28.2,77,28.2,77.2,28L77.2,28z"/>
		<path class="st3" d="M79.2,26.8c0.2,0,0.3,0,0.5,0c0.3,0.1,0.4,0.2,0.4,0.4c-0.1,0.2-0.2,0.3-0.3,0.4c-0.1-0.4-0.2-0.6-0.4-0.6
			c-0.1,0-0.1,0-0.2,0L79.2,26.8L79.2,26.8z"/>
		<path class="st3" d="M78.9,26.9c0.1,0,0.1-0.1,0.2-0.1V27C79,27,79,27,78.9,26.9C78.8,27,78.7,27,78.9,26.9L78.9,26.9z"/>
		<path class="st3" d="M78.5,26.7c0.2-0.2,0.4-0.3,0.7-0.4c0.3,0,0.6,0,0.8,0c0.6,0.2,0.3,0.4,0,0.2c-0.2-0.1-0.5-0.1-0.8,0
			c0,0.2-0.4,0-0.6,0.2C78.4,26.9,78.4,26.8,78.5,26.7L78.5,26.7z"/>
		<path class="st3" d="M80.1,26.8c0.2,0,0.3,0,0.3,0.2c0,0.2,0,0.4-0.2,0.4C80.3,27,80.1,27,80.1,26.8L80.1,26.8z"/>
		<path class="st3" d="M80.6,26.7c0,0.1,0.1,0.2,0,0.5l-0.2,0.3c0,0.2,0,0.2,0.1,0.2c0.2-0.1,0.3-0.3,0.3-0.5c0-0.3,0-0.5,0.1-0.6
			C80.7,26.3,80.5,26.3,80.6,26.7L80.6,26.7z"/>
		<path class="st3" d="M79.2,28.6c0,0.2,0.5,0.3,0.6,0c0.1-0.3-0.1-0.5,0-0.7C79.4,28,79.2,28.2,79.2,28.6L79.2,28.6z"/>
		<path class="st3" d="M79,29.2c0.1-0.2,0.3-0.3,0.6-0.2c0.2,0,0.3,0,0.3,0.2c0,0.2,0,0.4,0,0.6c-0.1,0.2-0.1,0.2-0.3,0.2
			c-0.2,0-0.3-0.1-0.6,0C79.1,29.6,78.9,29.5,79,29.2L79,29.2z"/>
		<path class="st3" d="M80,28.3c-0.1-0.2,0-0.2,0.1-0.1c0.1,0.1,0.2,0.3,0.2,0.4c0,0.2-0.2,0.3-0.3,0.2C80,28.7,80.1,28.5,80,28.3
			L80,28.3z"/>
		<path class="st3" d="M80.1,29.2c-0.1-0.2,0-0.2,0.3-0.1c0.2,0.2,0.2,0.3,0.1,0.4c0.2,0.2,0.2,0.4,0,0.7c-0.1-0.1-0.2,0-0.3-0.2
			c0-0.1-0.1,0,0-0.4C80.2,29.4,80.2,29.3,80.1,29.2L80.1,29.2z"/>
		<path class="st3" d="M80.4,31c0.1,0,0.2,0.1,0.2,0.1c0,0.1-0.1,0.1-0.2,0.1c-0.1,0-0.2-0.1-0.2-0.1C80.2,31,80.3,31,80.4,31
			L80.4,31z"/>
		<path class="st3" d="M79,30.8c0.1,0,0.2,0.1,0.2,0.1c0,0.1-0.1,0.1-0.2,0.1c-0.1,0-0.2-0.1-0.2-0.1C78.8,30.8,78.9,30.8,79,30.8
			L79,30.8z"/>
		<path class="st3" d="M80.7,30.5c-0.1-0.2-0.5-0.4-1-0.4c-0.3,0-0.7,0-1.2,0.2c-0.2,0.3-0.3,0.7-0.3,1.2l0.2,0l-0.2,0.1h0.2
			l-0.2,0.2l0.1,0l-0.1,0.3l0.1,0.1l-0.1,0.2l0.2,0l0,0.2l0.1,0l0,0.2l0.1,0c0.1,0.1,0.2,0.2,0.4,0.4c0.1,0.1,0.3,0.1,0.4,0
			c0.3-0.2,0.3-0.4,0.6-0.6c0.1,0,0.1-0.2,0.1-0.4c0.1-0.1,0.2-0.2,0.2-0.3l0.1-0.2v-0.5c-0.1,0-0.2,0.1-0.3,0L80,31.2l-0.1,0.7
			c0,0.1-0.1,0.3-0.2,0.3L79.3,32c-0.1,0-0.1-0.2,0-0.2l0.1,0v-0.6c-0.2,0.1-0.5,0.1-0.7-0.1c-0.1,0-0.2,0-0.3,0
			c0.1-0.1,0.2-0.2,0.2-0.3l-0.1-0.2c0,0,0.1,0,0.2,0c0.3,0,0.5-0.1,0.6,0c0.1,0.1,0.2,0.2,0.2,0.2l0-0.2c0.1-0.2,0.2-0.2,0.4-0.2
			l0,0.4l0.7-0.2L80.7,30.5L80.7,30.5z M79.1,32.4c0.2,0,0.4,0,0.6,0c0.4,0.1,0.4,0.2,0,0.4c-0.2,0-0.4,0-0.6-0.1
			C79.2,32.6,79.2,32.6,79.1,32.4L79.1,32.4L79.1,32.4z M79.3,32.5c0.1-0.1,0.2-0.1,0.4,0c0.1,0,0,0.1,0,0.2c-0.1,0-0.2,0-0.2,0
			C79.4,32.6,79.4,32.6,79.3,32.5L79.3,32.5z"/>
		<path class="st3" d="M79.4,31.8C79.5,31.8,79.5,31.8,79.4,31.8c0.1,0.1,0,0.1,0,0.1C79.4,31.9,79.3,31.9,79.4,31.8
			C79.3,31.8,79.4,31.8,79.4,31.8L79.4,31.8z"/>
		<path class="st3" d="M79.8,30.8c0,0,0-0.1,0-0.2c0.1-0.1,0.2-0.2,0.2-0.1c0,0.1,0,0.2,0,0.2H79.8L79.8,30.8z"/>
		<path class="st3" d="M79.6,31.9c0-0.3,0.1-0.5,0.1-0.9h0.2c0,0.2,0,0.5-0.1,0.9C79.7,32,79.7,32,79.6,31.9L79.6,31.9z"/>
		<path class="st3" d="M77.9,30.4c0-0.2,0.2-0.2,0.2,0c0,0.3,0,0.6-0.2,0.7c-0.1,0.1-0.3,0-0.2-0.1C77.9,30.7,78,30.6,77.9,30.4
			L77.9,30.4z"/>
		<path class="st3" d="M77.8,31.6c0-0.2,0.1-0.3,0.1,0c0.2,0.6,0.4,1.2,1,1.7c0.2,0.2,0,0.4-0.2,0.2C78.1,33,77.9,32.3,77.8,31.6
			L77.8,31.6z"/>
		<path class="st3" d="M80,33.4c0-0.2,0-0.4,0.2-0.5c0.1-0.1,0.2,0.1,0.1,0.2C80.2,33.2,80.1,33.2,80,33.4L80,33.4z"/>
		<path class="st3" d="M74.2,35.9c0-0.2,0-0.3,0.1-0.4c0,0-0.1-0.1-0.2-0.1c-0.1,0.2-0.3,0.4-0.5,0.7c0.2-0.5,0.3-0.8,0.6-1.2
			c0,0.2-0.1,0.3-0.1,0.4c0,0,0.1,0.1,0.2,0.1c0,0,0.1-0.1,0.1-0.1c0,0.1,0,0.1,0,0.2h0l0,0.1l0,0C74.4,35.7,74.3,35.8,74.2,35.9
			L74.2,35.9z"/>
		<path class="st3" d="M74,36.3c0-0.1,0.1-0.2,0.2-0.3C74.1,36.2,74.1,36.2,74,36.3L74,36.3z"/>
		<path class="st3" d="M75.1,36.5c0-0.1,0-0.2,0.1-0.2l0,0l0,0c0,0,0-0.1,0-0.1l0,0c0,0,0.1-0.1,0.1-0.2
			C75.4,36.2,75.3,36.3,75.1,36.5L75.1,36.5z"/>
		<path class="st3" d="M75.1,37.1c-0.1-0.2,0-0.4,0.3-0.5C75.4,36.9,75.3,37,75.1,37.1L75.1,37.1z"/>
		<path class="st3" d="M75.6,36.9c0.2-0.5,0.2-0.8,0.2-1.4C76,36.1,76,36.3,75.6,36.9L75.6,36.9z"/>
		<path class="st3" d="M79.2,38.9c0.1-0.5,0.2-0.9,0.1-1.4c0,0-0.1,0-0.1,0c0,0.2-0.1,0.5-0.2,0.9c0.1-0.3,0.1-0.6,0.1-0.9
			c0,0-0.1,0-0.1,0c0,0.2-0.1,0.4-0.2,0.7c0-0.2,0.1-0.5,0.1-0.7c-0.1,0-0.1,0-0.2,0c0,0.3-0.1,0.6-0.1,1c0-0.3,0-0.7,0-1
			c-0.1,0-0.1,0-0.2,0c0,0.3,0,0.7-0.1,1.1c0-0.4,0-0.8,0-1.2c-0.1,0-0.1,0-0.2,0c0,0.4,0,0.7-0.1,1.2c0-0.4,0-0.8,0-1.2
			c-0.1,0-0.1,0-0.2-0.1c0,0.3-0.1,0.7-0.2,1.1c0-0.4,0-0.8,0-1.2c-0.1,0-0.1,0-0.2-0.1c0,0.4-0.1,0.8-0.1,1.3
			c-0.1-0.6-0.1-1-0.1-1.4c-0.1,0-0.1,0-0.2-0.1c-0.1,0.5-0.2,1-0.1,1.5c-0.2-0.7-0.2-1.1,0-1.6c0,0-0.1-0.1-0.1-0.1
			c-0.1,0.2-0.2,0.4-0.3,0.6c0.1-0.2,0.2-0.4,0.2-0.6c-0.1,0-0.2-0.1-0.2-0.1c0,0.3-0.2,0.6-0.4,1c0.3-0.7,0.3-1.4,0.3-2.2
			c0.1,0.3,0.1,0.6,0.1,0.8c0.1,0,0.2,0.1,0.2,0.1c0-0.4,0.1-0.7,0.1-1.2c0.1,0.5,0.2,0.8,0.1,1.2c0.1,0,0.1,0.1,0.2,0.1
			c0,0,0.1-0.1,0.1-0.2c0,0.1,0,0.1-0.1,0.2c0,0,0.1,0,0.2,0c0-0.1,0.1-0.3,0.1-0.5c0,0.2,0,0.3,0,0.5c0.1,0,0.1,0,0.2,0
			c0-0.1,0-0.2,0-0.4c0,0.2,0,0.3,0.1,0.4c0.1,0,0.2,0,0.2,0c0-0.2,0-0.3,0-0.5c0,0.2,0.1,0.4,0.1,0.5c0.1,0,0.2,0,0.3,0
			c0-0.2,0-0.3,0-0.5c0,0.2,0.1,0.4,0.1,0.5c0.1,0,0.2,0,0.2,0c0-0.3,0-0.5,0-0.8c0.1,0.3,0.1,0.6,0.2,0.8c0.1,0,0.1,0,0.2,0
			c0-0.2,0-0.4-0.1-0.6c0.1,0.2,0.2,0.4,0.2,0.6c0,0,0.1,0,0.1,0c0-0.2-0.1-0.4-0.1-0.6c0.1,0.2,0.2,0.4,0.2,0.6c0,0,0.1,0,0.1,0
			c0-0.3-0.1-0.6-0.1-1C79.7,37.1,79.7,37.7,79.2,38.9L79.2,38.9z"/>
		<path class="st3" d="M79.9,37.5l0.1,0.2l0.3-0.3c0.1-0.1,0.2-0.1,0.2,0.1l0-0.4c0.1-0.1,0.2,0,0.3,0.1c0.1-0.1,0.1-0.2,0-0.3
			l0-0.4c-0.2-0.3-0.3-0.5-0.5-0.5c0.1,0.2,0.1,0.4,0,0.6c0-0.3-0.2-0.5-0.4-0.6c0.1,0.2,0.1,0.4,0.1,0.5c0-0.1-0.1-0.1-0.2-0.2
			l0,0.3l-0.1,0.1L79.9,37.5L79.9,37.5z"/>
		<path class="st3" d="M81.9,35.9c0,0.1,0,0.1,0,0.1c0,0-0.1,0-0.2-0.1H81.9L81.9,35.9z"/>
		<path class="st3" d="M81.8,35.5L81.8,35.5c0,0.1,0.1,0.2,0.1,0.3h-0.2c0-0.1-0.1-0.1-0.1-0.2c0,0,0,0,0,0L81.8,35.5L81.8,35.5z"/>
		<path class="st3" d="M81.4,35.1c0.1,0,0.2,0.1,0.3,0.3h-0.3C81.3,35.3,81.3,35.1,81.4,35.1L81.4,35.1z"/>
		<path class="st3" d="M81.2,35.9c0,0,0.1,0.1,0.2,0.2c0.1,0.1,0.1,0.2,0.1,0.3c0,0-0.1-0.1-0.2-0.2C81.2,36,81.2,35.9,81.2,35.9
			L81.2,35.9z"/>
		<path class="st3" d="M80.8,35.8c0,0,0.1,0.1,0.2,0.2c0.1,0.2,0.1,0.3,0.1,0.3c0,0-0.1-0.1-0.2-0.2C80.8,35.9,80.8,35.8,80.8,35.8
			L80.8,35.8z"/>
		<path class="st3" d="M73.6,34.9c0.1,0,0.1,0.1,0.2,0.1c0,0,0.1-0.1,0.1-0.1c0,0.2-0.1,0.2-0.2,0.3c0-0.1,0-0.1,0.1-0.2
			C73.8,35,73.7,35,73.6,34.9L73.6,34.9z"/>
		<polygon class="st3" points="71.7,57.2 71.6,57.5 71.5,57.4 71.5,57.2 		"/>
		<path class="st3" d="M64.8,67c0.3-0.1,0.4,0,0.4,0.4c0.2,0.2,0.4,0.4,0.4,0.6c0.5,0.4,0.4,0.6-0.3,0.5c-0.2-0.1-0.4-0.2-0.4-0.5
			L64.8,67L64.8,67z"/>
		<path class="st3" d="M64.9,68.7c-0.2,0.3-0.1,0.6,0.1,0.9c0.1,0.2,0.3,0.2,0.4,0.2l-0.1-0.2l0.3,0.2c0-0.1-0.1-0.3-0.4-0.5
			l0.3,0.1c0-0.2-0.2-0.3-0.4-0.5h0.2C65.3,68.5,65.1,68.4,64.9,68.7L64.9,68.7z"/>
		<path class="st3" d="M65.8,68.8c0.1,0,0.2,0.1,0.2,0.2c0,0.1,0,0.2-0.1,0.3c-0.1,0-0.2-0.1-0.2-0.2C65.7,68.9,65.7,68.8,65.8,68.8
			L65.8,68.8z"/>
		<path class="st3" d="M70.3,53.6c0-0.7,0.3-1.4,0.7-2.1C70.7,52.2,70.5,52.9,70.3,53.6L70.3,53.6z"/>
		<path class="st3" d="M71.9,49.5c-0.3,0.1-0.3-0.1-0.1-0.3c0.4-0.4,0.9-0.5,1.4-0.5h0.9c0.4,0,0.3,0.4,0,0.3h-0.7
			C72.9,49.1,72.4,49.2,71.9,49.5L71.9,49.5z"/>
		<path class="st3" d="M73.9,49.2c0.2,0,0.4,0,0.4,0.1c0,0.1-0.2,0.1-0.4,0.1c-0.2,0-0.4,0-0.4-0.1C73.4,49.2,73.6,49.2,73.9,49.2
			L73.9,49.2z"/>
		<path class="st3" d="M75.7,44.5c0,0-0.2,0.1-0.3,0.3c-0.1,0.2-0.2,0.4-0.2,0.4c0,0,0.2-0.1,0.3-0.3C75.6,44.6,75.7,44.5,75.7,44.5
			L75.7,44.5z"/>
		<path class="st3" d="M74.2,46c-0.1,0.2-0.1,0.3,0.2,0.4c0.9,0.3,1.8,0,2.6-0.5l1.1-0.5c0.2-0.2,0.2-0.3-0.1-0.2l-0.5,0.3l0.1-0.4
			c-0.3,0.2-0.5,0.4-0.6,0.7l-0.1-0.2c-0.1,0.1-0.2,0.3-0.3,0.5l-0.1-0.2c-0.1,0.1-0.2,0.2-0.3,0.3l0-0.3c-0.1-0.1-0.2,0.1-0.4,0.4
			l0.1-0.3c-0.1-0.1-0.2,0.1-0.3,0.4l0.4-1.1c-0.2,0-0.4,0.4-0.7,1.1c-0.1,0-0.2,0-0.1-0.1l0.4-0.8c-0.2,0-0.4,0.3-0.7,0.8l0.3-0.9
			L74.5,46v-0.3C74.4,45.7,74.3,45.8,74.2,46L74.2,46z"/>
		<path class="st3" d="M74.3,60.4c-0.1-0.1,0.1-0.2,0.1-0.1l0.3,0.2c0.1,0.1-0.1,0.2-0.2,0.1L74.3,60.4L74.3,60.4z"/>
		<path class="st3" d="M74.5,60.3c0-0.1,0.1-0.2,0.1-0.1l0.2,0.2c0.1,0.1-0.1,0.2-0.1,0.1L74.5,60.3L74.5,60.3z"/>
		<path class="st3" d="M74.6,60.1c-0.1-0.1,0.1-0.2,0.1-0.1l0.3,0.3c0.1,0.1-0.1,0.2-0.2,0.1L74.6,60.1L74.6,60.1z"/>
		<path class="st3" d="M74.7,59.7c-0.1-0.1,0.1-0.3,0.2-0.2l0.4,0.4c0.1,0.1-0.2,0.3-0.2,0.2L74.7,59.7L74.7,59.7z"/>
		<path class="st3" d="M75.1,59.4c-0.1-0.1,0-0.3,0.2-0.2l0.5,0.4c0.1,0.1-0.1,0.3-0.2,0.2L75.1,59.4L75.1,59.4z"/>
		<path class="st3" d="M75.4,59.2c-0.1-0.1,0-0.3,0.1-0.2l0.4,0.4c0.1,0.1-0.1,0.3-0.2,0.2L75.4,59.2L75.4,59.2z"/>
		<path class="st3" d="M75.8,59c-0.1-0.1,0-0.2,0.1-0.2l0.4,0.3c0.1,0.1-0.1,0.2-0.1,0.2L75.8,59L75.8,59z"/>
		<path class="st3" d="M74,56.5c0-0.1-0.2-0.1-0.2,0l0,0.4c0,0.1,0.2,0,0.2,0L74,56.5L74,56.5z"/>
		<path class="st3" d="M73.4,57.1c0-0.2-0.2-0.1-0.2,0l0,0.3c0,0.2,0.2,0.1,0.2,0L73.4,57.1L73.4,57.1z"/>
		<path class="st3" d="M72.8,57.5c0-0.2-0.1-0.1-0.1,0l0,0.3c0,0.2,0.2,0.1,0.2,0V57.5L72.8,57.5z"/>
		<path class="st3" d="M73.6,56.9c0,0,0.1,0,0.1,0.1c0,0.1,0,0.1-0.1,0.1c0,0-0.1,0-0.1-0.1C73.6,57,73.6,56.9,73.6,56.9L73.6,56.9z
			"/>
		<path class="st3" d="M73,57.3c0.1,0,0.1,0.1,0.1,0.1c0,0.1,0,0.1-0.1,0.1c-0.1,0-0.1,0-0.1-0.1C72.9,57.4,72.9,57.3,73,57.3
			L73,57.3z"/>
		<path class="st3" d="M72.4,57.7c0-0.1-0.2-0.1-0.2,0V58c0,0.1,0.2,0.1,0.2,0L72.4,57.7L72.4,57.7z"/>
		<path class="st3" d="M77.3,41c0.1,0,0.1,0.1,0.1,0.2c0,0.1,0,0.2-0.1,0.2c0,0-0.1-0.1-0.1-0.2C77.2,41,77.2,41,77.3,41L77.3,41z"
			/>
		<path class="st3" d="M77.5,41.4c0,0-0.1-0.1-0.1-0.2c0-0.2,0-0.3,0.1-0.3c0,0,0.1,0.1,0.1,0.3C77.6,41.3,77.6,41.4,77.5,41.4
			L77.5,41.4z"/>
		<path class="st3" d="M77.9,41.3c0.1,0,0.2,0,0.2,0.1c0,0-0.1,0.1-0.2,0.1c-0.1,0-0.2,0-0.2-0.1C77.8,41.3,77.9,41.3,77.9,41.3
			L77.9,41.3z"/>
		<path class="st3" d="M78.2,41.6C78.2,41.6,78.3,41.7,78.2,41.6c0.1,0.2,0,0.2,0,0.2C78.1,41.8,78.1,41.8,78.2,41.6
			C78.1,41.7,78.1,41.6,78.2,41.6L78.2,41.6z"/>
		<path class="st3" d="M78.5,41.6h0.8c0.3,0,0.3,0.1,0.1,0.4c0.1,0.4-0.5,0.7-0.4,0c0-0.1-0.2-0.2-0.5-0.2
			C78.4,41.8,78.4,41.6,78.5,41.6L78.5,41.6z"/>
		<path class="st3" d="M77.2,46.8c0.1,0,0.1,0,0.1,0.1c0,0.1,0,0.1-0.1,0.1c0,0-0.1-0.1-0.1-0.1C77.2,46.9,77.2,46.8,77.2,46.8
			L77.2,46.8z"/>
		<path class="st3" d="M76.9,47C77,47,77,47,77,47.1c0,0.1-0.1,0.1-0.1,0.1c-0.1,0-0.1-0.1-0.1-0.1C76.8,47,76.8,47,76.9,47L76.9,47
			z"/>
		<path class="st3" d="M77.3,47.2c0.3-0.2,0.6-0.3,0.6-0.3c0,0.1-0.2,0.3-0.5,0.5c-0.3,0.2-0.6,0.3-0.6,0.2
			C76.8,47.6,77,47.4,77.3,47.2L77.3,47.2z"/>
		<path class="st3" d="M78.4,46.5c0.2-0.2,0.4-0.2,0.4-0.2c0,0-0.1,0.2-0.3,0.4c-0.2,0.1-0.4,0.2-0.4,0.2
			C78.1,46.8,78.2,46.6,78.4,46.5L78.4,46.5z"/>
		<path class="st3" d="M77.7,48.2c0.1-0.2,0.1-0.3,0.2-0.4l0,0c0-0.3,0.2-0.5,0.5-0.6l0,0c0.1-0.1,0.2-0.2,0.3-0.2
			c-0.1,0.1-0.1,0.2-0.2,0.3l0.1,0c0.2-0.2,0.4-0.3,0.6-0.4c-0.1,0.2-0.3,0.3-0.4,0.4l0.1,0.1c0.2-0.2,0.4-0.3,0.6-0.4
			c-0.2,0.2-0.3,0.3-0.5,0.5l0.2,0.1c0.2-0.2,0.4-0.3,0.7-0.3c-0.1,0.1-0.2,0.2-0.3,0.3c0.2,0,0.3,0,0.6-0.1
			c-0.3,0.1-0.5,0.2-0.7,0.3l0.2,0.1c0.2-0.1,0.5-0.2,0.7-0.2c-0.2,0.1-0.3,0.2-0.5,0.3l0.2,0.1c0.2-0.1,0.4-0.2,0.6-0.1
			c-0.2,0.1-0.3,0.1-0.5,0.2l0.1,0.1c0.2-0.1,0.4-0.1,0.6-0.1c-0.2,0.1-0.3,0.2-0.5,0.2l0.1,0.1c0.2-0.1,0.4-0.1,0.5,0
			c-0.1,0-0.3,0.1-0.4,0.1l0.5,0.3l-0.1,0l-0.7-0.2c0,0-0.1,0-0.1,0c0,0,0,0,0-0.1l-0.2,0c-0.1,0-0.2,0.1-0.3,0.2
			c0.1-0.1,0.1-0.2,0.2-0.2l-0.2-0.1c-0.1,0-0.2,0.1-0.3,0.2c0-0.1,0.1-0.2,0.2-0.2l-0.2-0.1c-0.1,0.1-0.2,0.2-0.4,0.2
			c0.1-0.1,0.1-0.2,0.2-0.3L79,48.1c-0.1,0.1-0.2,0.2-0.3,0.3c0-0.1,0.1-0.2,0.2-0.3L78.6,48c-0.1,0.1-0.2,0.2-0.4,0.3
			c0.1-0.1,0.1-0.3,0.2-0.4l-0.4-0.1C78,47.9,77.9,48.1,77.7,48.2L77.7,48.2z"/>
		<path class="st3" d="M75.2,48.9c-0.3,0.6-0.6,1.5-0.8,3.3c-0.1,0.8-0.2,1.6,0,2.4c0.1,0.4,0.3,0.6,0.5,0.6l3.3-0.5
			c0.2,0,0.5-0.2,0.4-0.5l-0.1-0.3l-0.1,0.4l-0.2-0.3L78,54.3l-0.2-0.4l-0.2,0.5L77.5,54l-0.1,0.4L77.3,54l-0.1,0.5L77,54.1
			l-0.1,0.5l-0.2-0.5l-0.1,0.4l-0.2-0.3l-0.1,0.3l-0.2-0.2c-0.2-0.1-0.3-0.1-0.5,0l-0.1,0.1l-0.1-0.1c-0.2-0.1-0.5-0.1-0.8-0.2
			l0.3-0.2c0-0.1-0.1-0.2-0.3-0.1l0.3-0.2l-0.4-0.1l0.3-0.2c0-0.1-0.1-0.2-0.4-0.3l0.4-0.1v-0.1l-0.4,0l0.4-0.2
			c0-0.1-0.1-0.2-0.3-0.2l0.3-0.1c0-0.1,0-0.2-0.3-0.3l0.3-0.1l-0.3-0.2l0.3-0.1c0-0.1,0-0.2-0.2-0.2l0.4-0.2c0-0.1-0.1-0.2-0.3-0.2
			l0.3-0.1L75,50.6l0.3-0.1L75,50.3l0.3-0.2c0.1-0.1,0-0.1-0.3-0.2l0.3-0.1l0-0.1l-0.3,0l0.2-0.1L75,49.5l0.5-0.1l0-0.1l-0.3-0.1
			l0.3-0.2C75.4,48.9,75.4,48.9,75.2,48.9L75.2,48.9L75.2,48.9z M75.7,49.3L75.7,49.3c-0.2,1.6-0.4,3.1-0.1,4.4
			c-0.1-2.1,0.2-4.4,0.6-4.7l0.1,0.2c-0.5,1.7-0.5,3.2-0.2,4.5c-0.2-2.3,0-3.6,0.4-4.3v0.2c-0.3,1.6-0.3,2.9,0,4l0.1-0.1
			c-0.2-1.7-0.1-3,0.2-4.3l0.2,0c-0.3,1.7-0.3,3-0.1,4.3l0.1-0.1c-0.2-1.8-0.2-3,0.1-4.1l0.1,0c-0.2,1.7-0.3,3,0,4.1l0.1,0
			c-0.2-1.8-0.1-3.1,0.2-4.1l0.1,0.1c-0.2,1.5-0.2,2.8,0,4l0.1,0c0-1.6-0.1-2.9,0.1-3.8l0.1-0.1c-0.2,1.2-0.2,2.5,0,3.9h0.1
			c-0.2-1.7-0.1-3,0.1-4.1l0.1,0.1c-0.1,1.4-0.1,2.7,0,4.1l0.1,0c-0.1-1.9,0-3.2,0.2-4c0.2-0.1,0.2,0.2,0,0.4
			c-0.1,1.2-0.2,2.3,0,3.6l0.1,0c-0.1-1.8,0-2.9,0.2-3.9c0.1-0.1,0.2,0,0.1,0.3c-0.2,1.3-0.2,2.2-0.1,3.7h0.2c0.2,0.1,0.2,0.1,0,0.2
			c-1.1,0.2-2.1,0.4-3.1,0.5c-0.2,0-0.3-0.1-0.3-0.4C75.2,52.1,75.4,50.7,75.7,49.3L75.7,49.3L75.7,49.3z M79.4,50.3l0.1-0.7
			c0.2-0.1,0.2,0,0.2,0.1L79.4,50.3L79.4,50.3L79.4,50.3z M79.1,49.5c-0.2,1.1-0.2,1.8-0.3,2.9l0.1,0.2c0-1.3,0.2-2.1,0.4-3.1
			C79.4,49.4,79.2,49.4,79.1,49.5L79.1,49.5L79.1,49.5z M78.8,49.5c0.1-0.1,0.2-0.1,0.2,0c-0.2,1-0.3,2.1-0.3,3.4h-0.1
			C78.5,51.7,78.6,50.6,78.8,49.5L78.8,49.5L78.8,49.5z M74.2,56.8c0-0.4,0-0.7,0.2-1.1c0-0.2,0.2-0.2,0.5-0.3l3-0.4
			c0.2,0,0.2,0.1,0.2,0.3c0,0.3-0.1,0.6-0.2,0.8c-0.1,0.1-0.1-0.3-0.1-0.9c-0.2,0.5-0.1,1.1-0.5,1.2c-0.2-0.2,0.1-0.7,0.1-1.1
			c-0.3,0.3-0.2,0.7-0.5,1.1c-0.1,0-0.1-0.4,0-1c-0.2,0.4-0.3,0.8-0.4,1c-0.1-0.1-0.1-0.5-0.1-0.8c-0.1,0.6-0.3,1-0.4,1
			c0-0.3,0-0.6,0-1l-0.1-0.1c-0.1,0.6-0.2,0.9-0.3,1c-0.1-0.3-0.1-0.7,0-1h-0.1c-0.1,0.3-0.1,0.5-0.3,0.6c-0.2,0-0.3-0.2-0.3-0.6
			C74.7,56.2,74.4,56.6,74.2,56.8L74.2,56.8z"/>
		<path class="st3" d="M79.8,50.5c-0.2,0.1-0.2,0.3,0.1,0.3c-0.2,0.2-0.3,0.4-0.1,0.4c-0.4,0.6-0.4,0.7,0,0.5
			c-0.5,0.6-0.4,0.7-0.1,0.6c-0.4,0.5-0.4,0.6-0.2,0.6c-0.3,0.4-0.3,0.6,0,0.6c-0.2,0.1-0.4,0.3-0.4,0.6c-0.1,0.4-1,0.8-0.2,1.1
			c0.2,0.1,0.4,0.5,0.6,1c0.1,0.3,0.2,0.3,0.5,0.2c0.2-0.1,0.4-0.1,0.7-0.1c0.4,0,0.4-0.4,0-0.5c0-0.2-0.1-0.3-0.4-0.2
			c0.2-0.3,0-0.2-0.1-0.3c0.1-0.1,0.1-0.2-0.2,0l0-0.1c0.2-0.1,0.3-0.2,0.3-0.3l-0.6,0.2c0.2-0.2,0.3-0.3,0.2-0.4l-0.4,0.1
			c0.4-0.3,0.6-0.5,0.6-0.6l-0.5,0.1c0.3-0.3,0.6-0.5,0.5-0.6l-0.4,0.2c0-0.1,0.2-0.3,0.5-0.4c0.3-0.1,0.4-0.3,0.4-0.6l-0.6,0.3
			c0.5-0.4,0.9-0.8,1-1.1c0-0.2-0.5,0.2-1.2,0.7v-0.1c0.6-0.4,1.1-0.9,1.4-1.5l-1.2,0.9l1.1-1.3c-0.1-0.2-0.4,0-1,0.6l0-0.1l0.6-0.6
			c0.4-0.2,0.7-0.6,0.9-0.9c0.1-0.3-0.3,0.1-0.8,0.6c-0.1,0.1-0.3,0.2-0.4,0.4l1.3-1.4l0-0.2C81.4,49.1,80.5,50.1,79.8,50.5
			L79.8,50.5L79.8,50.5z M78.2,56c-0.2-0.2,0-0.5,0.2-0.4l0.7,0.5c0.2,0.2,0,0.4-0.2,0.3L78.2,56L78.2,56z M78.5,55.5
			c-0.2-0.2,0-0.5,0.2-0.3l0.4,0.4c0.2,0.2,0.1,0.3-0.1,0.2L78.5,55.5L78.5,55.5z M79.9,56.9c-0.2-0.1-0.3,0-0.2,0.1
			c0.3,0.2,0.6,0.4,0.9,0.6c0.3,0.2,0.7,0.2,1,0.2c0.2,0,0.4-0.2,0-0.2C81.2,57.4,80.6,57.2,79.9,56.9L79.9,56.9L79.9,56.9z
			 M80.1,56.8c-0.1-0.1-0.1-0.2,0.1-0.3l0.8-0.1c0.2,0,0.3,0.1,0.4,0.3l0.4,0.4c0.2,0.2,0,0.4-0.1,0.3
			C81.1,57.3,80.6,57.1,80.1,56.8L80.1,56.8z"/>
		<path class="st3" d="M80.9,54.7c0.1-0.2,0.3-0.4,0.6-0.5c0.8-0.1,1.5-0.3,2.2-0.5c0.2-0.2,0.3-0.1,0.3,0.1
			c-0.1,0.7-0.2,1.3-0.4,1.4V54l-0.1,0c-0.1,0.6-0.2,1-0.3,1.2l0-1.1h-0.1l-0.2,1.1l0.1-1c0-0.1,0-0.2-0.1-0.1
			c-0.2,1.1-0.4,1.6-0.6,1.7c0.2-0.7,0.2-1.2,0.2-1.6l-0.1,0c-0.1,0.6-0.2,1.1-0.4,1.6c-0.2-0.3,0.2-0.9,0.1-1.5h0l-0.4,1.4
			c-0.1,0-0.1-0.2,0-0.5l0-0.8l-0.1,0c-0.1,0.4-0.2,0.7-0.4,1l0.1-1l-0.3,0.7l0-0.6L80.9,54.7L80.9,54.7z M84.2,53.9
			c0-0.2,0.3-0.2,0.2,0.1l-0.1,0.3h-0.1L84.2,53.9L84.2,53.9z M84.1,54.8c0,0,0,0.1,0,0.2c0,0.1,0,0.2,0,0.2c0,0,0-0.1,0-0.2
			C84,54.9,84.1,54.8,84.1,54.8L84.1,54.8L84.1,54.8z M84.2,54.5C84.2,54.5,84.3,54.5,84.2,54.5c0.1,0.1,0,0.2,0,0.2
			C84.2,54.6,84.1,54.6,84.2,54.5C84.1,54.5,84.2,54.5,84.2,54.5L84.2,54.5L84.2,54.5z M84.2,53.1c0.1,0,0.1,0.1,0.1,0.2
			c0,0.1,0,0.2,0,0.2c0,0-0.1-0.1-0.1-0.2C84.1,53.2,84.2,53.1,84.2,53.1L84.2,53.1L84.2,53.1z M83.8,52.5c0.2,0.2,0.2,0.4,0.2,0.5
			c0,0.2-0.2,0.4-0.2,0.2c0-0.2,0-0.4-0.2-0.7C83.6,52.4,83.8,52.4,83.8,52.5L83.8,52.5L83.8,52.5z M82.2,52.1c0-0.2,0.2,0,0.2,0.1
			l-0.1,0.4c-0.1,0.1-0.1,0-0.2-0.1L82.2,52.1L82.2,52.1z M81.5,53.2c-0.2,0.1-0.2,0.2,0,0.3l0.1,0v0c0,0.1,0,0.2,0.1,0.2
			c0,0,0.1-0.1,0.1-0.2c0,0,0,0,0-0.1l0.2,0v0.4c-0.1,0-0.1,0-0.2,0c0,0,0-0.1-0.1-0.1c0,0-0.1,0-0.1,0.1c0,0,0,0,0,0
			c0,0,0,0,0.1,0.1l1.5-0.3c0.4,0,0.6-0.3,0.4-0.9c0.1-0.2,0-0.2-0.1-0.2l-0.3,0l0.2-0.1c0.3-0.1,0.3-0.2,0-0.2l-0.5-0.1l0.4-0.1
			c0.1,0,0.2-0.2,0-0.2l-0.4,0l0.3-0.1c0.2-0.2,0.1-0.3-0.3-0.3c0.1-0.2,0.1-0.3,0-0.3c-0.1-0.2-0.3-0.3-0.2,0l0.1,1.5
			c0,0.2,0,0.3-0.2,0.3L81.5,53.2L81.5,53.2z M82.3,52.6c0.1,0,0.1,0,0.1,0.1c0,0.1,0,0.1-0.1,0.1c0,0-0.1,0-0.1-0.1
			C82.2,52.7,82.3,52.6,82.3,52.6L82.3,52.6L82.3,52.6z M83.2,53.1C83.2,53.1,83.2,53.1,83.2,53.1c0,0.1,0,0.1,0,0.1
			C83.2,53.2,83.1,53.2,83.2,53.1C83.1,53.1,83.2,53.1,83.2,53.1L83.2,53.1L83.2,53.1z M83.1,52.8c0.1,0,0.2,0,0.2,0
			c0,0.1,0,0.1-0.1,0.1c-0.1,0-0.2,0-0.2-0.1C82.9,52.9,83,52.8,83.1,52.8L83.1,52.8L83.1,52.8z M82.1,53.8
			C82.1,53.8,82.1,53.8,82.1,53.8l0-0.4l-0.1,0L82.1,53.8L82.1,53.8z M82.3,53.7c0,0,0.1,0,0.1,0v-0.4l-0.2,0L82.3,53.7L82.3,53.7z
			 M82.6,53.6C82.6,53.6,82.6,53.6,82.6,53.6l0.1-0.4l-0.1,0L82.6,53.6L82.6,53.6z M82.8,53.5C82.8,53.5,82.8,53.5,82.8,53.5
			c0.2-0.2,0.2-0.3,0-0.3h0V53.5L82.8,53.5z"/>
		<path class="st3" d="M86.2,32.6c-1.8-0.2-2.7,0.4-3.2,1.1c-0.4,0.5-0.6,1.1-0.7,1.8c0,0.1,0.2-0.1,0.5-0.5l-0.2-0.1
			c0-0.1,0.1-0.2,0.2-0.4c0-0.1,0-0.2,0.2-0.2c0.1-0.1,0.2-0.2,0.2-0.2h-0.2c0.5-0.6,1.2-0.8,2-0.8c0.2,0,0.4,0,0.6,0.1
			c0.1,0,0.2,0,0.3-0.1c0.1,0,0.1-0.1,0-0.1c-0.7-0.1-1.4-0.1-2.1,0.1c0.5-0.3,1.2-0.4,2.3-0.3C86.6,32.9,86.6,32.6,86.2,32.6
			L86.2,32.6L86.2,32.6z M83,44.4c0.1,0,0.1,0.2,0,0.3c0,0.1-0.2,0.2-0.2,0.2c-0.1,0-0.1-0.2-0.1-0.3C82.8,44.5,82.9,44.4,83,44.4
			L83,44.4L83,44.4z M81.4,45.1c0,0,0.1,0.1,0.1,0.2c0,0.1,0,0.2-0.1,0.2c0,0-0.1-0.1-0.1-0.2C81.3,45.2,81.4,45.1,81.4,45.1
			L81.4,45.1L81.4,45.1z M81.5,45.8c0.1-0.4,0.3-0.8,0.6-1c0.3-0.2,0.4-0.2,0.1,0.2c-0.2,0.3-0.4,0.6-0.5,1
			C81.7,46,81.5,46.2,81.5,45.8L81.5,45.8L81.5,45.8z M82.5,44.2c-0.3,0.1-0.6,0.3-0.7,0.6c-0.1,0.3-0.1,0.3,0.1,0.1
			c0.2-0.2,0.4-0.4,0.7-0.5C82.7,44.2,82.7,44.1,82.5,44.2L82.5,44.2L82.5,44.2z M80.6,45.6c-0.2,0.2-0.1,0.3,0.1,0.2
			c0.4-0.6,0.7-1.1,1-1.2l0.8-0.7c0.6-0.1,0.9-0.8,1-1.8l0-0.1c-0.3,0.7-0.6,1.3-1.1,1.6c-0.4,0.3-0.7,0.6-1,1.1
			c-0.1,0.1-0.1,0.3-0.2,0.5C80.9,45.3,80.7,45.4,80.6,45.6L80.6,45.6L80.6,45.6z M80.4,45.2c-0.1,0.2,0,0.3,0.1,0.1
			c0.5-0.7,0.9-1.2,1.4-1.6c0.5-0.4,1.2-1.1,1.5-2c0.2-0.5,0-0.7-0.2-0.4c-0.3,0.8-0.6,1.5-1.2,1.9C81.5,43.8,80.8,44.3,80.4,45.2
			L80.4,45.2L80.4,45.2z M80.3,44.4c-0.1,0.2-0.1,0.4,0,0.5c0.4-0.2,0.3-0.8,1.3-1.4c0.1-0.2,0.1-0.2-0.1-0.2l-1,0.7
			c0.3-0.5,0.7-1,1.2-1.1c0.3,0,0.6-0.2,0.9-0.5c0.1-0.2,0.1-0.3-0.1-0.2c-0.6,0.4-1.1,0.6-1.6,0.9c-0.4,0.4-0.7,0.8-0.8,1.3
			L80.3,44.4L80.3,44.4z M80.3,43.2c0.2-0.4,0.7-0.6,1.4-0.8c0.5-0.2,0.8-0.5,1.2-0.9c0.4-0.2,0.3,0,0.2,0.2
			c-0.1,0.2-0.2,0.3-0.4,0.4c-0.3,0.2-0.7,0.4-1,0.6c-0.4,0.1-0.7,0.4-1.1,0.8C80.3,43.5,80.2,43.5,80.3,43.2L80.3,43.2L80.3,43.2z
			 M81.3,41.9c0.3-0.2,0.6-0.4,0.8-0.7c0.3-0.4,0.4-0.5,0.4,0c-0.1,0.4-0.4,0.8-0.9,1C81.1,42.3,81,42.1,81.3,41.9L81.3,41.9
			L81.3,41.9z M82.7,40.9l0.2-0.8c0-0.3,0.1-0.6,0.3-0.8l0.2-0.7c0.1-0.3,0.2-0.2,0.2,0.1l-0.2,0.4c0.1,0.1,0.1,0.2,0,0.3
			c0,0.2,0,0.3-0.2,0.4c0,0.6-0.1,1.1-0.3,1.2C82.7,41.4,82.6,41.3,82.7,40.9L82.7,40.9L82.7,40.9z M81.6,40.8l0.4-0.9
			c0.1-0.3,0.2-0.5,0.4-0.5l0.5-0.5c0.1-0.1,0.2,0,0.1,0.2l-0.4,0.6c-0.1,0.5-0.2,0.9-0.7,1.4c-0.1,0.1-0.2,0.1-0.2,0l0.4-0.8
			l-0.5,0.7C81.6,41.1,81.6,40.9,81.6,40.8L81.6,40.8L81.6,40.8z M81,41.1c0.2-0.5,0.3-0.8,0.5-1c0.2-0.2,0.3-0.2,0.2,0.1
			c-0.1,0.2-0.3,0.5-0.3,1.1C81.4,41.7,80.8,41.6,81,41.1L81,41.1L81,41.1z M81,40.4c0,0.2,0,0.1,0.1,0l0.2-0.6
			c0.2-0.2,0.5-0.4,0.8-0.8c0.1,0.2,0.4,0,0.7-0.5c0.5-0.2,0.7-0.6,0.8-1c0.1-0.4,0-0.4-0.2-0.2c-0.4,0.5-0.6,0.6-0.8,1
			c-0.4,0.1-0.8,0.6-1.2,0.8c-0.1,0.1-0.2,0.2-0.2,0.4C81.1,39.7,81,39.9,81,40.4L81,40.4L81,40.4z M81,39.3c0-0.1,0.1-0.1,0.2-0.1
			c0,0,0,0.1,0,0.2c0,0.1-0.1,0.1-0.2,0.1C80.9,39.5,80.9,39.4,81,39.3L81,39.3L81,39.3z M83.5,35.5c0.3-0.4,0.7-0.6,1-0.8
			c0.4-0.2,0.4,0.2,0.1,0.2c-0.2,0-0.5,0.2-1,0.8C83.4,35.9,83.3,35.7,83.5,35.5L83.5,35.5L83.5,35.5z M80.5,40.1
			c-0.1-0.8,0.1-1.3,0.5-1.5c1-0.6,1.4-1.5,1.7-1.5c0.3-0.6,0.8-1.2,1.4-1.7c0.4-0.3,0.5-0.2,0.3,0.2c-0.6,0.9-1.3,2-1.9,2.3
			c-0.3,0-0.5,0.2-0.6,0.4l0.4-0.2c0.2,0,0.2,0,0.1,0.2c-0.3,0.2-0.9,1-1,0.5c-0.2,0.4-0.6,0.4-0.6,0.8l0,0.6
			C80.7,40.2,80.6,40.2,80.5,40.1L80.5,40.1L80.5,40.1z M84.5,34.2c0.2,0,0.3,0.1,0.1,0.3c-0.5,0.2-1,0.6-1.4,1.1
			c0,0.2,0,0.4-0.3,0.5c0,0.3-0.2,0.5-0.5,0.5l-0.5,0.6c0.1,0.2-0.1,0.4-0.4,0.8c-0.2,0.2-0.3,0.2-0.3-0.2c0.3-0.7,0.8-1.8,1-1.8
			c0.1,0,0.1,0,0.2-0.3c0-0.2,0.2-0.1,0.2,0c0,0.2,0,0.2,0.1,0.1C83.3,34.9,83.9,34.4,84.5,34.2L84.5,34.2L84.5,34.2z M83,34.5
			c0.4-0.5,1.1-0.8,2.4-0.8c0.3,0,0.2,0.3,0,0.3c-0.2,0-0.4,0.1-0.6,0.1c-0.2,0.1-0.5,0.1-0.7,0.2c-0.4,0.2-0.8,0.6-1.2,1.2
			c-0.1,0.1-0.2,0-0.1-0.1c0.4-0.8,1-1.2,1.5-1.3l0,0C84,34,83.6,34.1,83,34.6C83,34.7,82.9,34.6,83,34.5L83,34.5L83,34.5z
			 M83.5,33.8c0.5-0.3,1-0.5,1.7-0.4c0.4,0,0.4,0.3,0.2,0.3C84.7,33.6,84.1,33.6,83.5,33.8C83.3,34,83.4,33.9,83.5,33.8L83.5,33.8z"
			/>
		<path class="st3" d="M86.6,32c-0.2-0.2,0-0.3,0.2-0.3c0.7,0.1,1.3,0.2,1.7,0.5c0.2,0.2,0,0.3-0.1,0.2l-0.5-0.2
			c0,0.2-0.2,0.1-0.4-0.1c-0.2,0.2-0.4,0.1-0.6-0.2l0.2,0.4c0,0.1-0.1,0.1-0.1,0L86.6,32L86.6,32z M87.5,32.3
			c-0.1,0.1,0,0.2,0.1,0.3c0.1,0.1,0.2,0,0.2-0.1C87.8,32.4,87.6,32.2,87.5,32.3L87.5,32.3z"/>
		<path class="st3" d="M88.9,32.9c-0.1,0-0.2-0.1,0-0.2c-0.2-0.1-0.1-0.3,0-0.3c0.6,0,1.1-0.4,1.8,0l0.3,0.4c0.2,0.5,0,0.7-0.2,0.4
			c-0.1-0.2,0-0.4-0.4-0.5c0.2,0.3,0.3,0.7,0.3,1c0.5,0.5,0,0.6-0.1,0.3L90.4,33c0,0.4,0.1,0.8,0,0.8c-0.2,0-0.1-0.3-0.1-0.7
			c0-0.2-0.1-0.4-0.2-0.5c-0.4-0.1-0.7,0-1,0c0.5,0,0.8,0,0.9,0.1c0.2,0.2,0.2,0.5,0.1,0.7C90,33.6,90,33.6,90,33.4l-0.1-0.3
			c0-0.2-0.2-0.2-0.4-0.2C89.3,32.9,89.1,33,88.9,32.9L88.9,32.9z"/>
		<path class="st3" d="M82.8,49.4c0.7,1.2,1.5,2.3,2.5,3.4c0.1,0.1,0-0.3,0.1-0.1c0.2,0.4,0.5,0.8,0.6,1c0.1-0.1-0.3-0.5-0.4-0.9
			l1.3,1.5c0.1-0.2-0.6-1.1-1.2-1.8l0.1-0.1l1.4,1.9l0.1,0c-0.2-0.6-0.9-1.4-1.3-2.1l0-0.2c0.3,0.3,0.6,0.8,0.9,1.3
			c0.4,0.6,0.8,1.1,0.9,1.2c0.5,0.1-1.3-1.8-2.1-3.3l0-0.1c1,1.5,1.8,2.8,2.8,3.5c0.1,0.1,0.2-0.1,0.1-0.2c-0.9-1-1.9-2.1-2.5-3.1
			l0-0.1c0.9,1.1,1.4,2.4,3.2,3.4c0.1,0.1,0.2,0.2,0.3,0.1c0.4-0.3-1.5-0.8-3-3.3l0-0.2c0.6,0.8,0.6,1,1.2,1.5
			c0.7,0.8,1.8,1.7,2,1.6c0.2-0.2-1.6-1.4-2.6-2.9l0,0c0.8,1,1.8,2.3,3.4,3.1c0.2,0.1,0.1,0.1,0.4,0.1c0.7,0-1.5-1.1-2.7-2.4l0-0.1
			c0.3,0.3,0.8,0.7,1.2,1c0.6,0.4,1.1,0.8,1.6,1c0.4,0.2,0.8,0.4,0.9,0.3c0.4-0.2-1.5-0.9-2-1.4c0.3,0.2,0.6,0.3,0.8,0.4
			c0.8,0.4,1.4,0.7,1.6,0.6c0.1-0.1-0.4-0.4-1.1-0.6c-0.1-0.1,0-0.1,0.2-0.1c0.9,0.4,1.4,0.6,1.5,0.5c0.3-0.1-0.2-0.3-0.7-0.6
			c0.7,0.3,1.2,0.6,1.6,0.5c0.1,0-0.4-0.3-0.8-0.7c0.6,0.4,2,0.9,0.7-0.1l0.1,0c0.5,0.4,1.2,0.5,0.4-0.1h0.1
			c0.4,0.4,0.7,0.6,0.4-0.1c0.4,0.6,0.9,0.9,0.3,0l0.7,0.5c-0.2,0.1-0.2,0.2,0,0.3c0.6,0.4,0.6,0.3,0.5,0c0.1-0.6-0.2-1-0.6-1.2
			c-0.4-0.3-0.4,0,0.1,0.8c-0.2-0.2-0.4-0.3-0.5-0.5c-0.1-0.2-0.3-0.3-0.5-0.3c-1,0-2.1,0.2-3,0.4c-0.8,0.1-1.3,0-1.6-0.2
			c-0.3-0.2-0.4-0.3-0.2-0.6c0.1-0.2,0-0.4-0.1-0.4l-0.7-1.4c0.1,0.2,0.2,0.2,0.3,0.4c0.3,0.5,0.5,0.8,0.6,0.8
			c-0.1-0.3-0.5-1-0.8-1.8c0.6,1,1,1.8,1.2,1.7c-0.1-0.4-0.5-1.1-1-1.9c0.1,0.1,0.2,0.2,0.3,0.3c0.2,0.2,0.3,0.4,0.4,0.4
			c-0.4-0.7-0.7-1.2-1.1-1.3c-0.6-0.2-1-0.3-0.9,0.1l-0.3-0.4l-0.3,0c-0.1,0,0,0.2,0.3,0.6l-0.1,0l-0.4-0.6c-0.1-0.1-0.3-0.1-0.3,0
			l0.2,0.4l-0.4-0.5c-0.2-0.1-0.4-0.2-0.4-0.1l0.6,1c-0.1-0.2-0.3-0.3-0.4-0.5c-0.2-0.3-0.4-0.6-0.7-0.6c-0.3,0,0.3,0.4,0.7,1.4
			l-1-1.4c-0.1-0.1-0.5-0.1-0.5,0l1.1,1.6c-0.5-0.6-1-1.1-1.3-1.6c-0.1-0.1-0.1-0.1-0.2-0.1c0,0-0.1,0-0.1,0l1.4,1.8
			c-0.3-0.2-0.5-0.5-0.7-0.8c-0.3-0.4-0.6-0.7-0.8-1c-0.1-0.1-0.3-0.1-0.3,0c-0.1,0.2,1,1.3,1.5,2c-0.7-0.6-1.2-1.3-1.7-2
			c-0.2-0.1-0.4-0.1-0.4,0c-0.1,0.1,1.4,1.5,1.9,2.4c-0.8-0.8-1.5-1.6-2.1-2.4c-0.1-0.1-0.4-0.1-0.4,0c0,0.2,1.2,1.4,2.2,2.7
			c-0.7-0.8-1.6-1.9-2-2.1c-0.2,0,0.4,0.8,1.9,2.4c-0.7-0.6-1.3-1.3-1.9-2.1c-0.2,0.2,0.6,1.1,1.7,2.4l-1.8-1.9
			C82.7,49.2,82.7,49.2,82.8,49.4L82.8,49.4L82.8,49.4z M90.3,49c-0.2-0.2,0.1-0.3,0.2-0.1c0.4,0.6,0.7,1.1,0.9,1.7
			c0.1,0.3,0,0.3-0.2,0.1C91.1,50.1,90.7,49.6,90.3,49L90.3,49L90.3,49z M89.6,48.8c-0.1-0.2,0.2-0.3,0.4,0c0.5,0.7,1,1.4,1.3,2.2
			c0.2,0.4,0,0.6-0.2,0.2C90.7,50.3,90.2,49.5,89.6,48.8L89.6,48.8z"/>
		<path class="st3" d="M86.5,33.8c0,0.4,0.2,0.9,0.6,1.2c0-0.1-0.2-0.4-0.3-0.6C86.6,34.1,86.6,33.8,86.5,33.8L86.5,33.8z
			 M87.8,47.6c0-0.6-0.4-1.1-1.1-1.6c0,0.2,0.5,0.5,0.7,1C87.7,47.4,87.7,47.5,87.8,47.6L87.8,47.6L87.8,47.6z M87.8,47
			c-0.1-0.1-0.2-0.3-0.4-0.7c-0.2-0.4-0.6-0.8-0.6-0.9C87.4,45.9,87.8,46.5,87.8,47L87.8,47L87.8,47z M87.7,46.1
			c-0.1-0.1-0.1-0.2-0.3-0.5C87.3,45.3,87,45,87,45C87.4,45.3,87.7,45.7,87.7,46.1L87.7,46.1L87.7,46.1z M87.6,45.3
			c0-0.3-0.2-0.6-0.5-0.8c0,0.1,0.2,0.2,0.3,0.4C87.6,45.1,87.6,45.2,87.6,45.3L87.6,45.3L87.6,45.3z M87.3,33.1
			c-0.1,0.4,0,0.9,0.4,1.4c0-0.1-0.1-0.4-0.2-0.7C87.4,33.4,87.4,33.2,87.3,33.1L87.3,33.1L87.3,33.1z M83.4,47.4
			c-0.3,0-0.4,0-0.4-0.4C83.1,47.2,83.2,47.2,83.4,47.4L83.4,47.4L83.4,47.4z M82.9,46.8c0.2,0.2,0.4,0.4,0.7,0.6c0.1,0,0.2,0,0.3,0
			c-0.4-0.4-0.7-0.6-1.1-1C82.9,46.5,82.9,46.7,82.9,46.8L82.9,46.8L82.9,46.8z M82.9,46.2c0.5,0.5,0.8,0.8,1.2,1.2
			c0.1,0.1,0.2,0.1,0.3,0c-0.5-0.6-1-1.1-1.5-1.8C82.9,45.8,82.9,46,82.9,46.2L82.9,46.2L82.9,46.2z M82.9,45.5
			c0.6,0.7,1.1,1.2,1.7,2c0.2,0.1,0.3,0.1,0.4,0c-0.6-0.8-1.3-1.6-2-2.4c0,0.1-0.1,0.2-0.1,0.3C82.9,45.4,82.9,45.4,82.9,45.5
			L82.9,45.5L82.9,45.5z M83.1,44.9c0.8,0.9,1.4,1.6,2.2,2.6c0.1,0.1,0.2,0.1,0.3,0c-0.1-0.1-0.6-0.7-0.7-0.8
			c-0.6-0.8-1-1.2-1.8-2.1C83.2,44.7,83.1,44.8,83.1,44.9L83.1,44.9L83.1,44.9z M83.2,44.5c0.8,0.9,1.1,1.3,1.9,2.3
			c0.1,0.1,0.6,0.6,0.6,0.7c0.1,0.2,0.5,0.2,0.3,0.1c-0.2-0.2,0,0-0.2-0.3c-0.7-0.9-1.9-2.3-2.6-3.2C83.3,44.2,83.2,44.3,83.2,44.5
			L83.2,44.5L83.2,44.5z M83.3,43.9c0-0.1,0-0.2,0.1-0.4c0.7,0.8,2,2.4,2.7,3.3c0.4,0.5,0.4,0.5,0.6,0.7c0,0.1-0.1,0.1-0.2,0
			c-0.2-0.2-0.2-0.2-0.4-0.5C85.2,46.1,84.2,44.8,83.3,43.9L83.3,43.9L83.3,43.9z M83.4,43.5c0-0.2,0-0.3,0.1-0.5
			c0.7,1.1,1.7,2.3,2.9,3.3c-0.1-0.4-1.5-1.7-2.4-2.8c-0.2-0.3-0.3-0.6-0.4-0.8c0-0.1,0-0.2,0-0.4c0.6,1.2,1.6,2.4,2.9,3.5
			c-0.2-0.4-1.5-1.5-2.3-2.7c-0.3-0.5-0.5-0.8-0.6-1.2c0-0.1,0-0.1,0-0.2c0.6,1.2,1.6,2.4,2.9,3.5c-0.1-0.4-1.6-1.6-2.2-2.7
			c-0.3-0.5-0.5-0.9-0.6-1.2c0-0.1,0-0.2,0-0.2c0.6,1.2,1.9,2.7,3,3.7c-0.1-0.4-1.7-1.8-2.4-2.9c-0.3-0.5-0.5-0.9-0.6-1.2
			c0-0.1,0-0.2,0-0.3c0.5,1.2,1.7,2.7,3,3.7c-0.1-0.4-1.7-1.6-2.3-2.7c-0.3-0.6-0.5-1-0.6-1.3c0-0.1,0-0.2,0-0.3
			c0.4,1.2,1.6,2.6,2.8,3.5c-0.1-0.3-1.6-1.5-2.1-2.5c-0.4-0.6-0.6-1.1-0.7-1.4c0-0.1,0-0.2,0-0.4c0.4,1.2,1.5,2.6,2.7,3.5
			c-0.1-0.3-1.4-1.4-2-2.3c-0.4-0.7-0.6-1.2-0.7-1.5c0,0,0,0,0-0.1c0-0.1,0-0.3,0-0.4c0.2,1.2,1.3,2.6,2.6,3.7
			c-0.1-0.3-1.3-1.3-1.8-2.2c-0.5-0.8-0.6-1.3-0.8-1.6c0.4-3.2,1.7-5.1,3.7-5.4l0,0c-0.1,0.4,0,0.8,0.2,1.3c0-0.1-0.1-0.5-0.1-0.9
			c0-0.1,0-0.2,0-0.3l0.2,0c0,0.4,0.2,0.9,0.4,0.9c-0.2-0.2-0.2-0.6-0.2-0.8l0.2,0.1c0,0.5,0.1,1,0.4,1c-0.2-0.3-0.2-0.6-0.2-0.9
			l0,0c0,0.2,0.1,0.4,0.2,0.4c0.1-0.1,0-0.3,0-0.6c0.2-0.1,0.5-0.1,0.8,0.1c0.1,0.1,0.1,0.2-0.1,0.2h-0.2l0.4,0.2
			c0,0,0.1,0.1-0.1,0.1l-0.1,0.1l0.5,0c0.2,0.1,0.1,0.1,0.1,0.2L90,34.2c0.4,0,0.8,0.1,1.3,0.4c0,0.2-0.2,0.2-0.6,0
			c0.1,0.2,0.4,0.2,0.4,0.4c0,0.2-0.6,0-0.8,0.3l0.6,0c0.1,0.1,0.1,0.2-0.1,0.2c0.3,0.4,0.6,0.5,0.6,0.2c0.1-0.2,0.2-0.2,0.3,0
			c0.4,0.2,0.4,0.2,0.2,0.3L91.6,36l0.4,0c0.1,0,0.1,0.1,0,0.2c-0.3,0-0.3,0.1,0.2,0.1c0.2,0.1,0.3,0.2,0.2,0.3
			c-0.5,0-0.4,0.1,0.1,0.1c0.1,0.1,0.2,0.2,0.2,0.2c-0.3,0.1-0.2,0.1,0.1,0.1c0,0.1,0.1,0.1,0,0.2c-0.3,0.1-0.3,0.1,0.1,0.1
			c0,0.2,0.3,0.1,0.4,0.3c0.4-0.1,0.5,0.2,0.2,0.2l0,0.1c0.5,0,0.7,0.2,0.7,0.5c0,0.1-0.7-0.3-0.4,0.8l0.1,0.1c0.2,0,0-0.5,0.3-0.4
			c0,0,0.1,0.2,0,0.4c-0.1,0.2-0.2,0.4-0.5,0.2c-0.2-0.2-0.4-0.3-0.3-0.5l0-0.3c-0.2,0-0.3-0.1-0.3-0.4c0,0-0.1,0-0.1-0.1
			c-0.4-0.1-0.6,0.1-0.7,0.4c0,0.1-0.1,0-0.2-0.1c0-0.1-0.1,0-0.2,0c-0.1,0,0-0.2-0.1-0.1c0,0,0,0.1-0.1,0.1c-0.1,0,0-0.2-0.2,0
			c-0.1,0.1-0.1,0.1-0.1,0c0-0.1,0.1-0.3-0.1,0c-0.1,0-0.1,0-0.2-0.1c-0.1-0.4-0.2-0.4-0.3-0.1c-0.1,0.1-0.1,0.2-0.1,0
			c-0.1-0.6-0.2-0.6-0.1,0c0,0.2-0.1,0.2-0.2-0.1c-0.2-0.5-0.2,0-0.3-0.2c-0.2-0.3,0-0.6-0.3-0.8l0.2,0.8c0,0.1-0.2,0.1-0.2,0
			c-0.1-0.5-0.4-1.4-0.4-1.1l0.2,1.1c0,0.1-0.2,0-0.3-0.1L89,36.4c-0.1-0.4-0.1,0.7,0.1,1.2c0,0.1-0.2,0.1-0.2,0
			c0-0.1-0.2-1.4-0.3-1.3c-0.2,0.2,0.3,1.4-0.1,1.2c0,0-0.2-1.3-0.2-1.3c0,0,0,1.2,0,1.2c-0.4-0.4,0-1.6-0.2-1.7
			c0,0-0.2,1.5-0.2,1.4c0.2,1.1,1.1,1.2,1,1.5l-0.6-0.3c0.2,0.3,0.4,0.7,0.6,1.1c-0.2,0.1,0,0.3,0.2,0.5c-0.2,0-0.2,0.1,0.2,0.5
			c0.1,0.1,0.1,0.1,0.1,0.2c-0.5-0.1-0.5-0.1,0.2,0.5c-0.5-0.1-0.5,0,0,0.3c0.1,0.1,0.2,0.2,0.2,0.3c0,0.1-0.1,0-0.1,0
			c-0.1,0-0.2-0.1-0.3-0.2c-0.1,0,0,0.2,0.6,0.6c0.2,0.1,0.2,0.2,0.1,0.3c-0.8-0.5-0.7-0.4,0.1,0.4c0.2,0.3,0.2,0.4,0.2,0.5
			c-0.7-0.6-1.1-0.9,0,0.2c0.2,0.2,0.2,0.3,0.1,0.4c-1.2-0.9-0.5-0.3,0.2,0.5c0,0,0,0.1,0,0.1c-1.1-0.8-1.2-0.6,0,0.6
			c0,0.1,0.1,0.2,0.1,0.3c0,0-0.1,0-0.2,0c-0.8-0.8-0.7-0.6,0.2,0.6c0.1,0.2,0.2,0.4,0,0.3c-1-1.1-1.3-1.4,0,0.4
			c0.1,0.2,0.2,0.3,0,0.3c-0.9-1.2-0.9-1.1,0,0.2c0.1,0.2,0.1,0.2,0,0.2c-0.8-1-1.1-1.2,0,0.2c0.1,0.3,0.1,0.3,0,0.2
			c-1-1.2-1-1.1,0,0.2c0.1,0.2,0.1,0.2,0,0.2c-1.2-1.3-1.2-1.3,0,0.2c0,0.4,0,0.3-0.2,0.2c-0.1-0.1-0.1-0.2-0.2-0.4
			c-0.7-0.9-0.8-0.8,0,0.3c-0.1,0.1-0.2,0.1-0.3,0c-0.7-1-0.8-1-0.2,0l-0.4-0.1c-0.1-0.1-0.1-0.2-0.2-0.3c-0.7-0.7-0.9-0.7-0.2,0.1
			c0,0,0,0,0,0.1L88,48c-0.1,0-0.2,0-0.3-0.2c-0.3-0.6-0.5-0.8-1.1-1.3c0,0.2,0.5,0.6,0.8,1.1c0.1,0.4-0.3,0.2-0.4,0.1
			c-0.2-0.3-0.3-0.4-0.7-0.8C85.3,45.7,84.3,44.4,83.4,43.5L83.4,43.5L83.4,43.5z M86.1,34.2c0.1,0,0.2,0.3,0.3,0.7
			c0.2,0.4,0.4,0.7,0.5,0.8C86.4,35.2,86.1,34.6,86.1,34.2L86.1,34.2L86.1,34.2z M85.8,34.5c0.1,0.1,0.2,0.4,0.4,0.8
			c0.2,0.4,0.6,0.8,0.6,0.9C86.1,35.7,85.8,35.1,85.8,34.5L85.8,34.5L85.8,34.5z M85.4,34.9c0.1,0.1,0.2,0.4,0.4,0.9
			c0.2,0.4,0.7,0.9,0.7,1C85.9,36.3,85.4,35.5,85.4,34.9L85.4,34.9L85.4,34.9z M85.2,35.3c0,0.7,0.5,1.5,1.3,2.1
			c0-0.2-0.5-0.7-0.8-1.2C85.4,35.8,85.3,35.4,85.2,35.3L85.2,35.3L85.2,35.3z M84.9,35.7c0,0.8,0.6,1.7,1.4,2.4
			c0-0.2-0.6-0.8-0.9-1.3C85.1,36.2,85,35.8,84.9,35.7L84.9,35.7L84.9,35.7z M84.7,36.2c0.1,0.8,0.7,1.8,1.6,2.5
			c0-0.2-0.7-0.8-1-1.4C84.9,36.7,84.9,36.3,84.7,36.2L84.7,36.2L84.7,36.2z M84.5,36.6c0.1,0.9,0.8,2,1.8,2.8
			c0-0.2-0.8-0.9-1.2-1.6C84.7,37.1,84.6,36.7,84.5,36.6L84.5,36.6L84.5,36.6z M84.3,37c0.1,1,0.8,2.1,1.9,3c-0.1-0.2-0.9-1-1.3-1.7
			C84.6,37.6,84.5,37.2,84.3,37L84.3,37L84.3,37z M84.2,37.4c0.1,1,0.9,2.3,2.1,3.2c-0.1-0.3-1-1-1.4-1.8
			C84.4,38.1,84.3,37.6,84.2,37.4L84.2,37.4L84.2,37.4z M84,37.9c0.2,1.1,1.1,2.5,2.3,3.5c-0.1-0.3-1.1-1.2-1.6-2
			C84.3,38.5,84.2,38.1,84,37.9L84,37.9L84,37.9z M86.9,33.5c0.1,0,0.2,0.3,0.2,0.5c0.1,0.2,0.2,0.5,0.2,0.5
			C87,34.2,86.9,33.8,86.9,33.5L86.9,33.5L86.9,33.5z M92.7,39.3c-0.2-0.2-0.4,0-0.1,0.4c0.3,0.3,0.6,0.2,0.5,0.1L92.7,39.3
			L92.7,39.3z M90.9,36.6c0,0,0,0.3,0,0.4c0,0.1,0,0.2,0.1,0.3c0.1,0.1,0.1,0.1,0.1,0.1c-0.1-0.2-0.2-0.5-0.2-0.7
			C91,36.7,90.9,36.6,90.9,36.6L90.9,36.6L90.9,36.6z M90.6,36.3c0,0,0,0.3,0,0.5c0,0.1,0,0.3,0.1,0.4c0.1,0.1,0.1,0.2,0.1,0.1
			c-0.1-0.3-0.2-0.6-0.2-0.8C90.7,36.3,90.6,36.3,90.6,36.3L90.6,36.3L90.6,36.3z M90.3,35.9c0,0,0,0.3,0,0.5s0,0.3,0.1,0.5
			c0.1,0.1,0.1,0.2,0.1,0.1c-0.1-0.3-0.2-0.6-0.2-0.9C90.4,36,90.3,35.9,90.3,35.9L90.3,35.9L90.3,35.9z M89.9,35.6c0,0,0,0.4,0,0.6
			c0,0.2,0,0.4,0.1,0.6c0.1,0.2,0.2,0.2,0.1,0.1c-0.1-0.4-0.2-0.7-0.2-1C90,35.7,90,35.6,89.9,35.6L89.9,35.6L89.9,35.6z M89.6,35.2
			c0,0,0,0.4,0,0.7c0,0.2,0,0.4,0.1,0.6c0.1,0.2,0.2,0.2,0.1,0.2c-0.1-0.4-0.2-0.8-0.1-1.2C89.7,35.3,89.7,35.3,89.6,35.2L89.6,35.2
			L89.6,35.2z M89.3,34.9c0,0,0,0.5,0,0.7c0,0.2,0,0.4,0.1,0.7c0.1,0.2,0.1,0.3,0.1,0.2c-0.1-0.5-0.2-0.9-0.1-1.3
			C89.4,35,89.4,35,89.3,34.9L89.3,34.9L89.3,34.9z M89,34.9c0,0,0,0.4,0,0.6c0,0.2,0,0.4,0.1,0.6c0.1,0.2,0.1,0.2,0.1,0.2
			c0-0.4-0.1-0.7-0.1-1C89.1,35,89.1,35,89,34.9L89,34.9L89,34.9z M88.8,34.9c0,0,0,0.3-0.1,0.5c0,0.1,0,0.3,0,0.4
			c0.1,0.2,0.1,0.2,0.1,0.1c0-0.3-0.1-0.6,0-0.8C88.8,35,88.8,35,88.8,34.9L88.8,34.9z"/>
		<path class="st3" d="M65.9,26.9c0.7,0.8,1.3,1.6,2,2.5c0,0.2-0.1,0.2-0.2,0.2C66.9,28.7,66.4,27.8,65.9,26.9
			C65.7,26.9,65.8,26.9,65.9,26.9L65.9,26.9L65.9,26.9z M69.3,32.6c0.1,0.2-0.1,0.3-0.2,0.1c-0.3-0.3-0.2-0.8,0.1-1.1
			c0.3-0.4,0.8-0.4,1.1-0.1c0.2,0.2,0.2,0.2-0.1,0.2C69.4,31.7,69.1,32.1,69.3,32.6L69.3,32.6L69.3,32.6z M70,32.3
			c-0.3-0.1-0.4,0-0.3,0.4c4.4,6.3,11.2,15.4,19.1,26.2l0,0.2l0.7,0.4l-0.2-0.9L89,58.5C82.9,50,75.9,40,70,32.3L70,32.3z"/>
		<path class="st3" d="M80.8,33.9c0-0.2,0.6-0.6,1.3-1.1c0.3-0.3,0.6-0.4,0.9-0.4c0.1,0,0.2,0,0.4,0c0.2,0.1,0.1,0.2-0.1,0.2
			c-0.1-0.1-0.2-0.1-0.3,0c-0.2,0-0.2,0.2-0.4,0.2l-0.1-0.1c-0.3,0.2-0.4,0.7-0.6,0.9l0-0.2c-0.1,0-0.2,0.3-0.4,0.5
			c0-0.2,0-0.3-0.1-0.3C81.1,33.9,80.9,34,80.8,33.9L80.8,33.9L80.8,33.9z M72,45.6c0.2,0,0.4,0.1,0.4,0.1c0,0.1-0.2,0.2-0.4,0.2
			c-0.2,0-0.4-0.1-0.4-0.2C71.6,45.6,71.8,45.6,72,45.6L72,45.6L72,45.6z M73.5,45.2c0.1-0.2,0.3-0.3,0.3-0.2c0,0.1,0,0.3-0.1,0.4
			c-0.1,0.2-0.3,0.3-0.3,0.2C73.3,45.6,73.4,45.4,73.5,45.2L73.5,45.2L73.5,45.2z M73,45.5c0.1-0.2,0.2-0.2,0.2-0.2
			c0,0,0,0.2-0.1,0.4c-0.1,0.2-0.2,0.2-0.3,0.2C72.9,45.8,72.9,45.7,73,45.5L73,45.5L73,45.5z M72.6,45.6c0.1-0.1,0.2-0.2,0.2-0.2
			c0,0,0,0.2-0.1,0.3c-0.1,0.1-0.2,0.2-0.2,0.2C72.4,45.8,72.5,45.7,72.6,45.6L72.6,45.6L72.6,45.6z M65.2,44l-0.1,0.2
			c0.1,0,0.2-0.1,0.3-0.2l-0.1,0.4c0.1,0,0.4-0.3,0.7-0.5l-0.2,0.4c0.2,0,0.3-0.3,0.5-0.4l-0.1,0.4c0.2,0,0.4-0.3,0.6-0.5l0,0.4
			c0.2,0,0.3-0.3,0.5-0.4l0.1,0.3c0.2,0,0.2-0.2,0.4-0.3l0.1,0.3l0.3-0.3l0.1,0.3l0.4-0.1l0.1,0.2l0.3-0.2l0,0.3l0.4-0.2l0,0.2
			l0.3-0.2v0.3l0.4-0.1l0,0.3l0.5-0.2l-0.2,0.4l0.5-0.3l-0.1,0.3l0.5-0.2L71.1,45c0.3,0,0.4-0.2,0.7-0.3l-0.2,0.4
			c0.3-0.1,0.6-0.3,0.9-0.7c0.1,0.1,0,0.3-0.2,0.7c0.4-0.2,0.5-0.4,0.7-0.7l-0.1,0.5c0.2,0,0.4-0.2,0.6-0.5l0,0.4
			c0.2-0.1,0.3-0.3,0.4-0.5c0.2,0.1,0.5,0,0.6-0.4c0.1-0.3,0-0.4-0.2-0.3c-1,0.7-2.2,0.8-4.1,0.3c-1.2-0.3-2.4-0.4-3.7-0.4
			C65.9,43.4,65.4,43.5,65.2,44L65.2,44L65.2,44z M68,39.3c0.1-0.2,0.3-0.3,0.5-0.4l0,0.2l0.5-0.2l0,0.2l0.6-0.3
			c-0.3,0.4-0.4,0.6-0.3,0.6c0.1,0,0.5-0.5,0.6-0.4c-0.3,0.4,0,0.3,0.5-0.1c0.1,0-0.2,0.4-0.1,0.4c0,0,0.2-0.1,0.6-0.3
			c0.1-0.1,0.3-0.3,0.3-0.2c0,0.1-0.1,0.2-0.2,0.3c-0.4,0.4-0.3,0.4,0.4,0c0.1,0,0.2-0.2,0.3-0.1c-0.4,0.6-0.2,0.4,0.4,0.1
			c0.1,0,0.2-0.2,0.3-0.1c-0.8,0.7-0.6,0.8,0.4,0.3c-0.5,0.5-0.4,0.6,0.4,0.1c0.1,0,0.2,0,0.2,0c-0.3,0.3-0.4,0.6-0.2,0.5
			c0.2-0.1,0.6-0.2,0.7-0.2c-0.3,0.3-0.3,0.4,0.1,0.4c0.1,0,0,0.2-0.4,0.5c-0.1,0.1-0.1,0-0.2-0.3c0,0.2-0.1,0.2-0.2,0.1l-0.1,0.6
			l-0.1,0v-0.3c-0.1-0.1-0.1-0.1-0.2,0l-0.1,0.4l-0.2-0.1c-0.1,0.2-0.2,0.3-0.3,0.4c-0.1-0.2-0.2-0.1-0.3,0c-0.1,0-0.1,0-0.2,0
			c-0.1,0.2-0.1,0.2-0.2,0.1c-0.2,0.1-0.3,0.2-0.5,0.4l-0.1-0.2c-0.2,0.2-0.3,0.4-0.4,0.3l-0.2-0.2L70.1,42l-0.4,0.1
			c0,0.1,0.2,0.1,0.4,0.1c0.4,0,1-0.2,1.5-0.3c0.4-0.1,0.9-0.2,1.5-0.4c0.4-0.2,0.9-0.6,1.4-0.8c0.1,0.1,0,0.3-0.9,1l-0.4-0.1
			l0.2,0.3C73.2,41.9,73.2,42,73,42l-0.4-0.2l0.1,0.4c-0.3,0-0.4-0.4-0.7-0.2l0.1,0.3l-0.6-0.2l0.1,0.4l-0.5-0.2l-0.1,0.2
			c-0.2,0-0.2,0-0.3,0.1c1.2,0.2,2.5-0.2,3.8-0.9c0.1,0,0.1,0,0.1,0.1c-0.1,0.5-0.5,1-1.1,1.4l0.2-0.7c-0.4,0.2-0.8,1-1.2,1.2
			l0.4-0.9l-1,0.9c-0.1-0.1,0-0.4,0.3-0.7c-0.3,0-0.8,0.7-0.9,0.7c-0.2-0.1,0.2-0.3,0.3-0.5c-0.3,0-0.5,0.2-0.7,0.4
			c0-0.1,0.1-0.3,0.4-0.5l-0.9,0.4c0-0.2,0.3-0.3,0.4-0.5c-0.4,0.3-0.8,0.4-0.8,0.4l0.3-0.4l-0.8,0.4l0.5-0.5l-0.8,0.4l0.2-0.4
			l-0.6,0.4l0.2-0.5c-0.3,0.2-0.6,0.4-0.7,0.4c0.2-0.2,0.3-0.4,0.2-0.5c-0.3,0.2-0.5,0.4-0.6,0.4l0.1-0.4c-0.2,0.2-0.5,0.4-0.7,0.5
			l0.3-0.4c0-0.1,0-0.2-0.1-0.1l-0.6,0.5c0.1-0.2,0.2-0.4,0.1-0.5l-0.4,0.2l0-0.2l-0.5,0.5c-0.1,0,0-0.2,0.1-0.4l-0.5,0.3
			c0.3-0.5,0.7-0.9,1.3-1.1c0.7-0.2,1.3-0.2,1.7-0.3c0.8-0.1,1.3-0.2,1.9-0.5c0.3-0.1,0.6-0.2,1-0.5c0.2-0.1,0.1-0.2-0.1-0.1l-0.8,0
			v-0.4l-0.3,0.4l-0.1-0.4L70,41l-0.1-0.8L69.7,41l-0.1-0.9l-0.3,1l-0.1-1.1L69,41.2l-0.2-1.1l-0.1,1.1l-0.2-1l-0.1,1l-0.3-1l0,1.1
			l-0.3-1l-0.1,0.9l-0.2-0.9L67.3,41l-0.2-0.7L67,41.1c-0.3-0.6-0.5-1.1-0.2-1.4C67.1,39.3,67.5,39.2,68,39.3L68,39.3L68,39.3z
			 M70.5,36.8c0.1,0,0.1,0.1,0.2,0.2c0,0.2,0,0.3,0,0.3c-0.1,0-0.1-0.1-0.2-0.2C70.5,37,70.5,36.9,70.5,36.8L70.5,36.8L70.5,36.8z
			 M68.3,36.6c0.3-0.5,0.6-0.7,0.8-0.3c0.2-0.7,0.5-0.8,0.8-0.2c0.4,0,0.5,0.6,0.4,1.6l-0.4-1.1v0.7C69.6,36.2,67.9,36.9,68.3,36.6
			L68.3,36.6L68.3,36.6z M75.6,32.7c0.5,0,1,0.2,1.4,0.5c0,0.1,0,0.1,0,0.1c-0.2-0.1-0.3-0.2-0.5-0.2c0,0.2,0,0.3-0.1,0.3
			C76.3,33,76.2,33,76,33c0,0-0.1,0-0.1,0c-0.1-0.3-0.2-0.3-0.3-0.2C75.5,32.8,75.5,32.7,75.6,32.7L75.6,32.7L75.6,32.7z M73.1,32.8
			C73,32.9,73,33,73.1,33c0.2-0.1,0.3-0.2,0.5,0c0-0.3,0.1-0.3,0.4,0.1c-0.1-0.4,0-0.4,0.4,0.1c0-0.3,0-0.3,0.3,0.2
			c0.1,0.1,0.1,0.1,0.2,0c-0.1-0.5-0.1-0.5,0.2,0c0.1,0.1,0.1,0.1,0.1,0c0-0.4,0.1-0.3,0.5,0.2c0.1,0.1,0.1,0.2,0.2,0
			c-0.1-0.3,0.1-0.3,0.4,0.1c0.2,0,0.5,0.2,0.9,0.5c0,0.1,0.1,0.1,0.1,0.1c-0.2-0.4,0-0.2,0.4,0c0.2-0.1,0.2-0.2,0.1-0.2
			c-0.8-0.3-1.4-0.6-1.8-0.9c-0.5-0.4-0.7-0.3-1.3-0.7C74,32.4,73.5,32.5,73.1,32.8L73.1,32.8L73.1,32.8z M72,33.6
			c-0.3,0.1-0.3,0.2,0,0.2c0.1,0,0.2,0,0.3,0c0.2,0,0.2,0,0.3,0.1c0.1,0.2,0.2,0.3,0.4,0.2c0.1-0.1-0.4-0.4-0.2-0.4h0.1
			c0.4,0.4,0.7,0.6,0.7,0.5l-0.2-0.4c0-0.1,0.2-0.1,0.2,0l0.5,0.4c0.1,0.1,0-0.1-0.1-0.4c0-0.1,0.1-0.1,0.2,0
			c0.3,0.3,0.7,0.8,0.7,0.6v-0.2c0-0.1,0.1-0.1,0.2,0c0.2,0.2,0.4,0.4,0.4,0.3l0-0.2c0-0.1,0.1-0.1,0.2,0l0.5,0.4
			c0.1,0.1,0.2,0,0.2,0l-0.1-0.1c-0.1-0.1,0-0.1,0.1,0l0.5,0.3c0.1,0.1,0.1,0,0-0.2h0.3c0,0.2,0.2,0.2,0.4,0.3c0.1,0,0.1,0,0.2-0.1
			l0.6-0.2c0.2-0.1,0.2-0.2,0-0.2c-0.9,0.2-1.9-0.2-3-0.8C74.1,33.2,73,33.2,72,33.6L72,33.6z M81.2,34.1c0,0,0,0.1-0.1,0.2
			c-0.1,0.1-0.2,0.1-0.2,0.1c0,0,0-0.1,0.1-0.2C81.1,34.1,81.1,34,81.2,34.1L81.2,34.1L81.2,34.1z M81.9,34.2
			C81.7,34.1,81.7,34.4,81.9,34.2l0.4-0.3c0.2-0.3,0.1,0.1,0.2,0.1c0.1,0,0.3-0.4,0.3-0.6l0.3-0.2c0.2-0.2,0.1-0.2-0.1-0.2
			c-0.3,0.2-0.6,0.5-0.8,0.8L81.9,34.2L81.9,34.2z"/>
	</g>
	<g>
		<path class="st3" d="M43.7,74l-1.6-2.6l0.1-0.1c0.1,0.2,0.2,0.3,0.3,0.3c0.1,0,0.2,0,0.4-0.2l1.7-1.1c0.3-0.2,0.5-0.4,0.6-0.4
			c0.1-0.1,0-0.2-0.1-0.4l1-0.6l0,0.1c-0.2,0.2-0.3,0.4-0.4,0.6c-0.1,0.2-0.1,0.4-0.1,0.5c0,0.2,0.1,0.3,0.2,0.5l0.5,0.8
			c0.2,0.4,0.5,0.5,0.8,0.6c0.3,0,0.6,0,0.8-0.1l0,0.1l-1,0.6c-0.2-0.2-0.4-0.3-0.8-0.3c-0.4,0-0.8,0.1-1.2,0.3
			c-0.4,0.2-0.8,0.4-1,0.5c-0.1,0.1-0.3,0.2-0.3,0.3c0,0.1-0.1,0.2,0,0.2C43.6,73.6,43.7,73.8,43.7,74L43.7,74z M43.4,73.1
			c0.9-0.5,1.6-0.9,2-1c0.4-0.1,0.8-0.2,1.1-0.1l-0.7-1.1c-0.1-0.2-0.2-0.3-0.3-0.3c-0.1,0-0.2,0-0.4,0.2l-2.4,1.5L43.4,73.1z"/>
		<path class="st3" d="M41.4,69.8l1.3-0.7l-0.4-0.7c-0.1-0.2-0.2-0.3-0.3-0.3c-0.1,0-0.3,0-0.5,0.1l0-0.1l1.1-0.6l0,0.1
			c-0.1,0.1-0.2,0.2-0.3,0.2c0,0.1-0.1,0.1-0.1,0.2c0,0.1,0,0.2,0.1,0.3l0.4,0.7l1.1-0.6c0.1-0.1,0.2-0.1,0.3-0.2c0,0,0-0.1,0-0.1
			c0,0,0-0.1-0.1-0.2l-0.3-0.6c-0.1-0.2-0.2-0.3-0.2-0.4c-0.1-0.1-0.2-0.1-0.3-0.2c-0.1,0-0.4-0.1-0.6-0.1l0-0.1l1-0.1l1.3,2.5
			l-0.1,0l-0.1-0.1c0-0.1-0.1-0.1-0.2-0.2c-0.1,0-0.1-0.1-0.2,0c-0.1,0-0.2,0.1-0.3,0.1l-2.1,1.1c-0.2,0.1-0.3,0.2-0.4,0.3
			c0,0.1,0,0.2,0,0.3l0.1,0.1l-0.1,0l-1.3-2.5l0.7-0.4l0,0.1c-0.2,0.1-0.3,0.2-0.3,0.3c0,0.1-0.1,0.2-0.1,0.3c0,0.1,0.1,0.2,0.1,0.4
			L41.4,69.8z"/>
		<path class="st3" d="M39.2,64.8l0.6,1.6l2.6-1c0.2-0.1,0.4-0.2,0.4-0.3c0-0.1,0-0.2-0.1-0.4l0.1,0l0.6,1.5l-0.1,0
			c-0.1-0.2-0.2-0.3-0.3-0.4c-0.1,0-0.2,0-0.5,0.1l-2.2,0.9c-0.2,0.1-0.4,0.2-0.4,0.3c0,0.1,0,0.2,0.1,0.4l-0.1,0l-1.4-3.5l0.1,0
			c0.1,0.2,0.2,0.3,0.3,0.4c0.1,0,0.2,0,0.5-0.1l2.2-0.9c0.2-0.1,0.4-0.2,0.4-0.3c0-0.1,0-0.2-0.1-0.4l0.1,0l0.6,1.5l-0.1,0
			c-0.1-0.2-0.2-0.3-0.3-0.4c-0.1,0-0.2,0-0.5,0.1L39.2,64.8z"/>
		<path class="st3" d="M40.1,60.2l0.4,1.4l0.6,0.1c0.2,0,0.3,0,0.3,0c0.1,0,0.1-0.1,0.1-0.1c0-0.1,0-0.2,0-0.4l0.1,0l0.3,1.1l-0.1,0
			c-0.1-0.1-0.1-0.2-0.2-0.3c-0.1-0.1-0.3-0.1-0.6-0.2l-3.3-0.4l0-0.1l2.6-2c0.2-0.2,0.3-0.3,0.4-0.4c0-0.1,0.1-0.2,0-0.4l0.1,0
			l0.4,1.4l-0.1,0c0-0.1-0.1-0.2-0.1-0.3c-0.1,0-0.1-0.1-0.2,0c-0.1,0-0.2,0.1-0.3,0.2L40.1,60.2z M39.9,60.3l-1.3,1l1.6,0.2
			L39.9,60.3z"/>
		<path class="st3" d="M39,57.5l1-0.2c0.2,0,0.4-0.1,0.4-0.2c0.1-0.1,0.1-0.2,0.1-0.3l0-0.1l0.1,0l0.3,1.5l-0.1,0l0-0.1
			c0-0.2-0.1-0.2-0.2-0.3c-0.1,0-0.2,0-0.4,0l-2.3,0.4c-0.2,0-0.4,0.1-0.4,0.1c-0.1,0.1-0.1,0.2-0.1,0.3l0,0.1l-0.1,0L37,57.6
			c-0.1-0.3-0.1-0.6,0-0.8c0-0.2,0.1-0.4,0.3-0.5c0.1-0.2,0.3-0.3,0.5-0.3c0.3-0.1,0.6,0,0.8,0.2c0.2,0.2,0.4,0.4,0.4,0.8
			c0,0.1,0,0.2,0,0.3C39,57.3,39,57.4,39,57.5z M38.8,57.5c0-0.1,0-0.2,0-0.3c0-0.1,0-0.1,0-0.2c0-0.2-0.1-0.3-0.3-0.4
			c-0.2-0.1-0.4-0.1-0.6-0.1c-0.2,0-0.3,0.1-0.4,0.2c-0.1,0.1-0.2,0.2-0.3,0.3c0,0.1-0.1,0.3,0,0.4c0,0.1,0.1,0.2,0.1,0.3L38.8,57.5
			z"/>
		<path class="st3" d="M36.3,52.3l0.9-0.1l0,0.1c-0.1,0-0.3,0.1-0.3,0.1c-0.1,0.1-0.2,0.1-0.2,0.2c0,0.1,0,0.2,0,0.4l0,0.5l2.8-0.3
			c0.2,0,0.4-0.1,0.4-0.1c0.1-0.1,0.1-0.2,0.1-0.3l0-0.1l0.1,0l0.1,1.6l-0.1,0l0-0.1c0-0.2-0.1-0.3-0.2-0.3c-0.1,0-0.2,0-0.4,0
			L36.7,54l0,0.4c0,0.2,0,0.3,0.1,0.4c0,0.1,0.1,0.2,0.2,0.2c0.1,0.1,0.2,0.1,0.4,0.1l0,0.1l-0.9,0L36.3,52.3z"/>
		<path class="st3" d="M38.7,49.4l0,1.4l0.6,0.2c0.1,0.1,0.3,0.1,0.3,0.1c0.1,0,0.1,0,0.1-0.1c0-0.1,0.1-0.2,0.1-0.3H40l0,1.2
			l-0.1,0c0-0.2-0.1-0.3-0.1-0.3c-0.1-0.1-0.3-0.2-0.5-0.3l-3-1.2v-0.1l3-1.3c0.2-0.1,0.4-0.2,0.5-0.3c0.1-0.1,0.1-0.2,0.1-0.4h0.1
			l0,1.4h-0.1c0-0.1,0-0.2-0.1-0.3c0-0.1-0.1-0.1-0.2-0.1c-0.1,0-0.2,0-0.4,0.1L38.7,49.4z M38.5,49.4L37,50.1l1.5,0.6L38.5,49.4z"
			/>
		<path class="st3" d="M40.2,45.5l-3.2,1.1l2.4,0.3c0.2,0,0.4,0,0.4,0c0.1-0.1,0.1-0.2,0.1-0.3l0-0.1l0.1,0l-0.1,1.3l-0.1,0l0-0.1
			c0-0.2,0-0.3-0.1-0.3c-0.1,0-0.2-0.1-0.4-0.1L37,46.8c-0.2,0-0.3,0-0.4,0c-0.1,0-0.1,0.1-0.1,0.1c0,0.1-0.1,0.2-0.1,0.3l-0.1,0
			l0.1-1l3-1l-2.7-1.6l0.1-1l0.1,0l0,0.1c0,0.2,0,0.3,0.1,0.3c0.1,0,0.2,0.1,0.4,0.1l2.4,0.3c0.2,0,0.4,0,0.4,0
			c0.1-0.1,0.1-0.2,0.1-0.3l0-0.1l0.1,0l-0.2,1.5l-0.1,0l0-0.1c0-0.2,0-0.3-0.1-0.3C40,44,39.9,44,39.7,44l-2.4-0.3L40.2,45.5
			L40.2,45.5z"/>
		<path class="st3" d="M37.3,40.9l1.4,0.3l0.2-0.8c0-0.2,0-0.4,0-0.4c-0.1-0.1-0.2-0.2-0.4-0.2l0-0.1l1.2,0.3l0,0.1
			c-0.2,0-0.3,0-0.4,0c-0.1,0-0.1,0.1-0.2,0.1c0,0.1-0.1,0.2-0.1,0.3L39,41.2l1.2,0.3c0.2,0,0.3,0,0.3,0c0,0,0.1,0,0.1-0.1
			c0,0,0.1-0.1,0.1-0.2l0.1-0.6c0-0.2,0.1-0.4,0.1-0.5c0-0.1,0-0.2-0.1-0.3c-0.1-0.1-0.2-0.3-0.4-0.4l0-0.1l0.8,0.5l-0.6,2.8l-0.1,0
			l0-0.1c0-0.1,0-0.2,0-0.3c0-0.1,0-0.1-0.1-0.1c-0.1,0-0.2-0.1-0.3-0.1l-2.3-0.5c-0.2,0-0.4-0.1-0.4,0c-0.1,0-0.1,0.1-0.2,0.3
			l0,0.1l-0.1,0l0.6-2.8l0.8,0.1l0,0.1c-0.2,0-0.3,0-0.4,0c-0.1,0-0.1,0.1-0.2,0.2c0,0.1-0.1,0.2-0.1,0.4L37.3,40.9z"/>
		<path class="st3" d="M39.7,37.6l0.5-1.6l-1-0.3c-0.2-0.1-0.3-0.1-0.4-0.1c0,0-0.1,0-0.1,0.1c-0.1,0.1-0.1,0.1-0.1,0.2l0,0.1
			l-0.1,0l0.5-1.5l0.1,0l0,0.1c0,0.1,0,0.2,0,0.3c0,0.1,0,0.1,0.1,0.2c0,0,0.2,0.1,0.3,0.1l2.3,0.7C41.8,36,41.9,36,42,36
			c0,0,0.1,0,0.1-0.1c0.1-0.1,0.1-0.1,0.1-0.2l0-0.1l0.1,0l-0.5,1.5l-0.1,0l0-0.1c0-0.1,0-0.3,0-0.3c0-0.1-0.2-0.1-0.4-0.2l-1.1-0.3
			l-0.5,1.6L41,38c0.2,0.1,0.3,0.1,0.4,0.1c0,0,0.1,0,0.1-0.1c0.1-0.1,0.1-0.1,0.1-0.2l0-0.1l0.1,0l-0.5,1.5l-0.1,0l0-0.1
			c0-0.1,0-0.3,0-0.4c0-0.1-0.2-0.1-0.4-0.2l-2.3-0.7c-0.2-0.1-0.3-0.1-0.4-0.1c0,0-0.1,0-0.1,0.1c-0.1,0.1-0.1,0.1-0.1,0.2l0,0.1
			l-0.1,0l0.5-1.5l0.1,0l0,0.1c0,0.1,0,0.2,0,0.3c0,0.1,0,0.1,0.1,0.1c0,0,0.2,0.1,0.3,0.1L39.7,37.6z"/>
		<path class="st3" d="M40.4,31l0.8,0.3l0,0.1c-0.1,0-0.3-0.1-0.3-0.1c-0.1,0-0.2,0-0.3,0.1c-0.1,0.1-0.2,0.2-0.2,0.3l-0.2,0.5
			l2.6,1.1c0.2,0.1,0.3,0.1,0.4,0.1c0.1,0,0.2-0.1,0.2-0.2l0-0.1l0.1,0l-0.6,1.4l-0.1,0l0-0.1c0.1-0.1,0.1-0.3,0-0.4
			c0-0.1-0.1-0.1-0.3-0.2l-2.6-1.1l-0.2,0.4c-0.1,0.2-0.1,0.3-0.1,0.4c0,0.1,0,0.2,0.1,0.3c0.1,0.1,0.2,0.2,0.3,0.3l0,0.1l-0.8-0.4
			L40.4,31z"/>
		<path class="st3" d="M46.1,28.2l-0.8,1.4l-0.1-0.1c0.1-0.2,0.2-0.3,0.1-0.4c0-0.1-0.1-0.2-0.2-0.3c-0.3,0.5-0.7,0.8-1,0.9
			c-0.4,0.1-0.7,0-1-0.2c-0.2-0.1-0.4-0.3-0.5-0.6c-0.1-0.2-0.1-0.5-0.1-0.7c0.1-0.2,0.2-0.5,0.4-0.8c-0.1-0.1-0.2-0.1-0.3-0.1
			c-0.1,0-0.1,0-0.2,0.1s-0.1,0.1-0.2,0.3l-0.1,0l0.8-1.4l0.1,0c-0.1,0.2-0.1,0.3-0.1,0.4c0,0.1,0.1,0.2,0.2,0.3
			c0.2-0.3,0.4-0.6,0.6-0.7c0.2-0.1,0.4-0.2,0.7-0.3c0.2,0,0.5,0,0.7,0.2c0.3,0.2,0.5,0.5,0.6,0.8c0.1,0.4,0,0.8-0.4,1.3
			c0.1,0.1,0.3,0.1,0.3,0.1C45.8,28.5,45.9,28.4,46.1,28.2L46.1,28.2z M45,28.8l-1.9-1.2c-0.1,0.2-0.2,0.4-0.2,0.6
			c0,0.2,0,0.3,0.1,0.5c0.1,0.2,0.2,0.3,0.5,0.5c0.2,0.1,0.5,0.2,0.7,0.2c0.2,0,0.4-0.1,0.5-0.2C44.7,29.1,44.8,29,45,28.8z
			 M45.2,28.3c0.1-0.2,0.2-0.4,0.2-0.6c0-0.2,0-0.3-0.1-0.5c-0.1-0.2-0.3-0.3-0.5-0.5c-0.2-0.1-0.4-0.2-0.6-0.2
			c-0.2,0-0.4,0.1-0.5,0.2c-0.1,0.1-0.3,0.3-0.4,0.5L45.2,28.3z"/>
		<path class="st3" d="M46.2,22.8c-0.2-0.1-0.3-0.2-0.4-0.2c-0.1,0-0.2,0.1-0.3,0.3l-0.1-0.1l1-1.3l0.1,0.1
			c-0.1,0.2-0.2,0.3-0.2,0.4c0,0.1,0.1,0.2,0.3,0.4l1.9,1.4c0.2,0.1,0.3,0.2,0.4,0.2s0.2-0.1,0.4-0.3l0.1,0.1l-1,1.3l-0.1-0.1
			c0.1-0.2,0.2-0.3,0.2-0.4c0-0.1-0.1-0.2-0.3-0.4L46.4,23l0.7,2.7c0.1,0.1,0.2,0.1,0.3,0.2c0.1,0,0.1,0,0.2,0
			c0.1,0,0.2-0.1,0.3-0.3l0.1,0.1l-1,1.3l-0.1-0.1c0.1-0.2,0.2-0.3,0.2-0.4c0-0.1-0.1-0.2-0.3-0.4l-1.9-1.4
			c-0.2-0.1-0.3-0.2-0.4-0.2c-0.1,0-0.2,0.1-0.3,0.3L44,24.7l1-1.3l0.1,0.1c-0.1,0.2-0.2,0.3-0.2,0.4c0,0.1,0.1,0.2,0.3,0.4l1.7,1.3
			L46.2,22.8z"/>
		<path class="st3" d="M47.6,21.7L46.8,21l0.1-0.1c0.1,0.1,0.2,0,0.3,0c0,0,0.1-0.1,0.1-0.2c0.1-0.2,0.2-0.4,0.4-0.5
			c0.2-0.2,0.4-0.3,0.7-0.4c0.3,0,0.5,0.1,0.7,0.2c0.2,0.1,0.3,0.3,0.3,0.5c0,0.2,0,0.4-0.1,0.6c0.2-0.2,0.4-0.2,0.7-0.2
			c0.2,0,0.4,0.1,0.6,0.3c0.2,0.2,0.3,0.5,0.3,0.8c0,0.3-0.1,0.6-0.4,0.8c-0.3,0.4-0.8,0.5-1.4,0.4l0-0.1c0.2,0,0.4,0,0.6,0
			c0.2-0.1,0.4-0.2,0.5-0.3c0.2-0.2,0.2-0.4,0.2-0.6c0-0.2-0.1-0.4-0.3-0.5c-0.2-0.2-0.4-0.2-0.6-0.2c-0.2,0-0.5,0.2-0.7,0.5
			l-0.1-0.1c0.2-0.2,0.3-0.4,0.4-0.5c0-0.1,0.1-0.3,0-0.4c0-0.2-0.1-0.3-0.2-0.4c-0.1-0.1-0.3-0.2-0.5-0.2c-0.2,0-0.3,0.1-0.5,0.2
			c-0.2,0.2-0.3,0.4-0.2,0.6C47.5,21.2,47.5,21.4,47.6,21.7L47.6,21.7z"/>
		<path class="st3" d="M51.4,17.3c-0.2-0.2-0.3-0.2-0.4-0.2c-0.1,0-0.2,0.1-0.4,0.2l-0.1-0.1l1.2-1.1l0.1,0.1
			c-0.2,0.2-0.2,0.3-0.2,0.4c0,0.1,0.1,0.2,0.2,0.4l1.6,1.7c0.2,0.2,0.3,0.3,0.4,0.3c0.1,0,0.2-0.1,0.4-0.2l0.1,0.1L53.1,20L53,19.9
			c0.2-0.2,0.3-0.3,0.3-0.4c0-0.1-0.1-0.2-0.2-0.4l-1.4-1.5l0.2,2.8c0.1,0.1,0.2,0.2,0.2,0.2c0,0,0.1,0,0.2,0c0.1,0,0.2-0.1,0.3-0.2
			l0.1,0.1l-1.2,1.1l-0.1-0.1c0.2-0.2,0.2-0.3,0.2-0.4c0-0.1-0.1-0.2-0.2-0.4l-1.6-1.7c-0.2-0.2-0.3-0.3-0.4-0.3
			c-0.1,0-0.2,0.1-0.4,0.2L49,18.8l1.2-1.1l0.1,0.1c-0.2,0.2-0.2,0.3-0.2,0.4c0,0.1,0.1,0.2,0.2,0.4l1.4,1.6L51.4,17.3z"/>
		<path class="st3" d="M55.2,15.8l-0.7-0.9c-0.1-0.2-0.2-0.3-0.3-0.3c-0.1,0-0.1,0-0.2,0c-0.1,0-0.2,0.1-0.3,0.2l-0.1-0.1l1.3-1
			l0.1,0.1c-0.1,0.1-0.2,0.2-0.2,0.2c0,0.1-0.1,0.1,0,0.2c0,0.1,0.1,0.2,0.2,0.3l1.4,1.8c0.1,0.2,0.2,0.3,0.3,0.3c0.1,0,0.1,0,0.2,0
			c0.1,0,0.2-0.1,0.3-0.2l0.1,0.1l-1.3,1l-0.1-0.1c0.1-0.1,0.2-0.2,0.2-0.3c0-0.1,0-0.1,0-0.2c0-0.1-0.1-0.2-0.2-0.3l-0.6-0.8
			c-0.2,0.4-0.5,0.7-0.7,0.9c-0.2,0.1-0.3,0.2-0.5,0.2c-0.2,0-0.3,0-0.4-0.1c-0.1-0.1-0.2-0.2-0.4-0.4L53,16.1
			c-0.1-0.2-0.2-0.3-0.3-0.3c-0.1,0-0.1,0-0.2,0c-0.1,0-0.2,0.1-0.3,0.2l-0.1-0.1l1.3-1l0.1,0.1c-0.1,0.1-0.2,0.2-0.2,0.3
			c0,0.1-0.1,0.1,0,0.2c0,0.1,0.1,0.2,0.2,0.3l0.3,0.4c0.1,0.2,0.3,0.3,0.3,0.4c0.1,0.1,0.2,0.1,0.3,0.1c0.1,0,0.2,0,0.3-0.1
			C54.9,16.3,55.1,16.1,55.2,15.8z"/>
		<path class="st3" d="M56.5,12.9l0.8,1.2l0.7-0.4c0.2-0.1,0.3-0.2,0.3-0.3c0-0.1,0-0.3-0.1-0.5l0.1,0L59,14l-0.1,0.1
			c-0.1-0.1-0.2-0.2-0.2-0.3c-0.1,0-0.1,0-0.2,0c-0.1,0-0.2,0.1-0.3,0.1l-0.7,0.4l0.6,1c0.1,0.1,0.1,0.2,0.2,0.2c0,0,0.1,0,0.1,0
			s0.1,0,0.2-0.1l0.5-0.3c0.2-0.1,0.3-0.2,0.4-0.3c0.1-0.1,0.1-0.2,0.1-0.3c0-0.1,0-0.4,0-0.6l0.1-0.1l0.2,0.9l-2.4,1.5l-0.1-0.1
			l0.1-0.1c0.1,0,0.1-0.1,0.2-0.2c0-0.1,0-0.1,0-0.2c0-0.1-0.1-0.2-0.2-0.3l-1.3-2c-0.1-0.2-0.2-0.3-0.3-0.3c-0.1,0-0.2,0-0.3,0.1
			l-0.1,0.1l-0.1-0.1l2.4-1.5l0.5,0.7l-0.1,0.1c-0.1-0.1-0.2-0.2-0.3-0.3c-0.1,0-0.2,0-0.3,0c-0.1,0-0.2,0.1-0.3,0.2L56.5,12.9z"/>
		<path class="st3" d="M61.7,9.8l0.6,1.1l-0.1,0c-0.3-0.3-0.5-0.5-0.8-0.5c-0.3-0.1-0.5,0-0.8,0.1c-0.2,0.1-0.4,0.3-0.5,0.5
			C60,11.2,60,11.4,60,11.7c0,0.3,0.1,0.6,0.3,1c0.1,0.3,0.3,0.5,0.5,0.7c0.2,0.2,0.4,0.3,0.7,0.3c0.2,0,0.5,0,0.7-0.2
			c0.2-0.1,0.4-0.2,0.5-0.4c0.1-0.2,0.2-0.4,0.3-0.8l0.1,0c0,0.4-0.1,0.7-0.3,0.9c-0.2,0.2-0.4,0.4-0.7,0.6c-0.5,0.3-1.1,0.3-1.6,0
			c-0.4-0.2-0.7-0.5-0.9-0.9c-0.2-0.3-0.2-0.7-0.2-1c0-0.3,0.1-0.7,0.3-0.9c0.2-0.3,0.4-0.5,0.7-0.7c0.2-0.1,0.5-0.2,0.8-0.2
			c0.1,0,0.1,0,0.2,0c0,0,0.1-0.1,0.1-0.1C61.6,10,61.6,9.9,61.7,9.8L61.7,9.8z"/>
		<path class="st3" d="M67.2,11.5L67.2,11.5l-0.8,0.4c-0.2-0.1-0.5-0.3-0.9-0.6c-0.5-0.3-0.7-0.5-0.8-0.5c-0.1,0-0.2,0-0.3,0l0.4,1
			c0.1,0.2,0.2,0.4,0.3,0.4c0.1,0,0.2,0,0.4-0.1l0,0.1l-1.5,0.6l0-0.1c0.2-0.1,0.3-0.2,0.4-0.3c0-0.1,0-0.2-0.1-0.5l-0.8-2.2
			c-0.1-0.2-0.2-0.4-0.3-0.4c-0.1,0-0.2,0-0.4,0.1l0-0.1L64,8.9l0,0.1c-0.2,0.1-0.3,0.2-0.4,0.3c0,0.1,0,0.2,0.1,0.5l0.4,1
			c0.2-0.1,0.3-0.1,0.4-0.2c0.1,0,0.1-0.1,0.2-0.2s0.1-0.2,0.1-0.3c0-0.1,0-0.3,0-0.5c0-0.2,0-0.4,0-0.5c0-0.1,0.1-0.2,0.2-0.3
			c0.1-0.1,0.2-0.2,0.3-0.2c0.3-0.1,0.4-0.1,0.5,0.1c0,0.1,0,0.1,0,0.2c0,0.1-0.1,0.1-0.1,0.1c0,0-0.1,0-0.3,0c-0.1,0-0.2,0-0.2,0
			c-0.1,0-0.1,0.1-0.1,0.1c0,0.1,0,0.2,0,0.5c0,0.5-0.1,0.8-0.3,1.1c0.2,0,0.5,0.1,0.9,0.4c0.5,0.3,0.8,0.5,1,0.6
			C66.8,11.6,67,11.6,67.2,11.5z"/>
		<path class="st3" d="M68.1,7.4c0.5-0.1,0.9-0.1,1.3,0.2s0.7,0.6,0.9,1.2c0.1,0.5,0.1,1-0.1,1.5c-0.2,0.4-0.6,0.7-1.1,0.9
			c-0.5,0.1-0.9,0.1-1.4-0.2c-0.4-0.3-0.7-0.7-0.9-1.2c-0.2-0.6-0.1-1.1,0.2-1.5C67.3,7.8,67.7,7.6,68.1,7.4z M68.1,7.6
			c-0.3,0.1-0.5,0.3-0.7,0.6c-0.2,0.4-0.2,0.8,0,1.4c0.2,0.6,0.4,1,0.7,1.2c0.3,0.2,0.5,0.2,0.9,0.1c0.3-0.1,0.6-0.3,0.7-0.6
			c0.1-0.3,0.1-0.8,0-1.3c-0.2-0.6-0.4-1-0.7-1.3C68.8,7.6,68.5,7.5,68.1,7.6z"/>
		<path class="st3" d="M73.5,7c0-0.2-0.1-0.3-0.2-0.4c-0.1,0-0.2,0-0.4,0l0-0.1l1.6-0.3l0,0.1c-0.2,0-0.4,0.1-0.4,0.2
			s-0.1,0.2,0,0.5l0.4,2.3c0,0.2,0.1,0.4,0.2,0.4c0.1,0.1,0.2,0.1,0.4,0l0,0.1l-1.6,0.3l0-0.1c0.2,0,0.4-0.1,0.4-0.2
			c0-0.1,0.1-0.2,0-0.5l-0.4-2.1l-1.3,2.4c0,0.2,0.1,0.3,0.1,0.3c0,0,0.1,0.1,0.2,0.1c0.1,0,0.2,0,0.4,0l0,0.1l-1.6,0.3l0-0.1
			c0.2,0,0.4-0.1,0.4-0.2c0-0.1,0.1-0.2,0-0.5l-0.4-2.3c0-0.2-0.1-0.4-0.2-0.4c-0.1-0.1-0.2-0.1-0.4,0l0-0.1l1.6-0.3l0,0.1
			c-0.2,0-0.4,0.1-0.4,0.2c0,0.1-0.1,0.2,0,0.5l0.4,2.1L73.5,7z M73.1,5.2c0.1,0,0.1,0,0.2,0c0,0,0.1,0.1,0.1,0.2
			c0,0.2,0,0.3-0.2,0.5c-0.1,0.1-0.4,0.2-0.7,0.3c-0.4,0.1-0.6,0-0.8,0c-0.2-0.1-0.3-0.2-0.3-0.4c0-0.1,0-0.1,0-0.2
			c0-0.1,0.1-0.1,0.1-0.1c0.1,0,0.1,0,0.2,0c0,0,0.1,0.1,0.2,0.3C72,6,72.2,6.1,72.4,6c0.2,0,0.4-0.2,0.4-0.4c0-0.2,0.1-0.3,0.1-0.3
			C73,5.2,73.1,5.2,73.1,5.2z"/>
		<path class="st3" d="M80.5,9.4L80.5,9.4l-0.9,0.1c-0.1-0.2-0.3-0.5-0.7-0.9s-0.6-0.7-0.6-0.7c-0.1,0-0.2-0.1-0.3-0.1l0,1.1
			c0,0.2,0,0.4,0.1,0.5c0.1,0.1,0.2,0.1,0.4,0.1l0,0.1l-1.6,0.1V9.5c0.2,0,0.4-0.1,0.4-0.1c0.1-0.1,0.1-0.2,0.1-0.5l-0.1-2.3
			c0-0.2,0-0.4-0.1-0.5c-0.1-0.1-0.2-0.1-0.4-0.1V6l1.6-0.1l0,0.1c-0.2,0-0.4,0.1-0.4,0.1c-0.1,0.1-0.1,0.2-0.1,0.5l0,1
			c0.2,0,0.3,0,0.4-0.1c0.1,0,0.2-0.1,0.2-0.2c0.1-0.1,0.2-0.2,0.2-0.3c0-0.1,0.1-0.3,0.2-0.5c0.1-0.2,0.1-0.4,0.2-0.5
			c0-0.1,0.1-0.2,0.2-0.2c0.1-0.1,0.2-0.1,0.4-0.1c0.3,0,0.4,0.1,0.4,0.3c0,0.1,0,0.1-0.1,0.2c-0.1,0.1-0.1,0.1-0.2,0.1
			c0,0-0.1,0-0.3-0.1c-0.1,0-0.2-0.1-0.2-0.1c-0.1,0-0.1,0-0.1,0.1c0,0.1-0.1,0.2-0.2,0.5c-0.2,0.5-0.4,0.8-0.6,0.9
			c0.2,0,0.4,0.2,0.7,0.7c0.3,0.4,0.6,0.7,0.7,0.9C80.1,9.3,80.2,9.4,80.5,9.4z"/>
		<path class="st3" d="M80.8,5.8l1.5,0.1l0,0.1c-0.3,0-0.4,0.1-0.4,0.2c0,0.1,0.1,0.3,0.2,0.7l0.7,1.5L83.5,7
			c0.1-0.3,0.2-0.5,0.2-0.6c0-0.1-0.1-0.2-0.3-0.3l0-0.1l1.1,0.1v0.1c-0.3,0-0.5,0.2-0.7,0.5l-0.8,1.6c-0.2,0.4-0.4,0.7-0.5,0.9
			c-0.1,0.2-0.3,0.3-0.4,0.4c-0.1,0.1-0.3,0.1-0.4,0.1c-0.1,0-0.2,0-0.3-0.1c-0.1-0.1-0.1-0.1-0.1-0.2c0-0.1,0-0.1,0.1-0.2
			c0,0,0.1-0.1,0.2-0.1c0.1,0,0.2,0,0.3,0.1c0.1,0,0.1,0.1,0.2,0.1c0.1,0,0.3-0.1,0.5-0.4l-1.2-2.4c-0.1-0.2-0.2-0.3-0.2-0.4
			C81,6,80.9,6,80.8,6L80.8,5.8z"/>
		<path class="st3" d="M87,6.6l-1.1-0.2l-0.1,1c-0.1,1-0.3,1.7-0.5,2c-0.2,0.3-0.5,0.4-0.8,0.4c-0.1,0-0.2-0.1-0.3-0.1
			C84,9.6,84,9.5,84,9.4c0-0.1,0-0.1,0.1-0.2c0.1,0,0.1-0.1,0.2,0c0.1,0,0.1,0,0.2,0.1c0.1,0.1,0.1,0.1,0.2,0.1
			c0.2,0,0.3-0.1,0.4-0.3c0.1-0.2,0.3-0.7,0.4-1.4l0.1-0.8c0-0.2,0-0.4,0-0.5c-0.1-0.1-0.2-0.1-0.4-0.2l0-0.1l2.9,0.4l0,0.1
			c-0.2,0-0.4,0-0.4,0c-0.1,0.1-0.1,0.2-0.2,0.4l-0.3,2.3c0,0.2,0,0.4,0,0.5c0.1,0.1,0.2,0.1,0.4,0.2l0,0.1L86,10l0-0.1
			c0.2,0,0.4,0,0.5,0c0.1-0.1,0.1-0.2,0.2-0.4L87,6.6z"/>
		<path class="st3" d="M89.4,8.6l0.1,0c0.4,0.1,0.7,0.2,0.9,0.3c0.2,0.1,0.3,0.2,0.4,0.4C91,9.5,91,9.7,90.9,10
			c-0.1,0.3-0.2,0.5-0.5,0.6c-0.2,0.2-0.6,0.2-1.1,0.1l-1.5-0.4l0-0.1c0.2,0,0.4,0,0.4,0c0.1,0,0.1-0.2,0.2-0.4l0.5-2.3
			c0.1-0.2,0.1-0.4,0-0.5c0-0.1-0.2-0.1-0.4-0.2l0-0.1l1.5,0.4l0,0.1c-0.2,0-0.4,0-0.5,0c-0.1,0-0.1,0.2-0.2,0.4L89.4,8.6z
			 M88.9,10.3c0.2,0.1,0.3,0.1,0.4,0.1c0.2,0,0.4,0,0.6-0.1c0.2-0.1,0.3-0.3,0.4-0.5c0.1-0.3,0-0.5-0.1-0.6C90,9,89.8,8.9,89.5,8.8
			c-0.1,0-0.2,0-0.2,0L88.9,10.3z"/>
		<path class="st3" d="M94.8,8.4l-0.2,0.8l-0.1,0c0-0.1,0-0.3,0-0.3c0-0.1-0.1-0.2-0.1-0.3c-0.1-0.1-0.2-0.1-0.3-0.2l-0.5-0.2
			l-0.9,2.7c-0.1,0.2-0.1,0.4-0.1,0.4c0,0.1,0.1,0.2,0.3,0.2l0.1,0l0,0.1l-1.5-0.5l0-0.1l0.1,0c0.1,0,0.3,0,0.4,0
			c0.1,0,0.1-0.2,0.2-0.4L93,8.1L92.6,8c-0.2-0.1-0.3-0.1-0.4-0.1c-0.1,0-0.2,0-0.3,0.1c-0.1,0.1-0.2,0.2-0.2,0.3l-0.1,0l0.3-0.8
			L94.8,8.4z"/>
		<path class="st3" d="M95.5,8.6l1.4,0.6l0,0.1c-0.2-0.1-0.4-0.1-0.4,0c0,0.1,0,0.3,0,0.7l0.2,1.6l1.1-1.1c0.2-0.2,0.4-0.4,0.4-0.5
			c0.1-0.1,0-0.3-0.2-0.4l0-0.1l1.1,0.5l0,0.1c-0.3-0.1-0.5,0-0.8,0.3l-1.3,1.3c-0.3,0.3-0.6,0.5-0.8,0.7c-0.2,0.1-0.3,0.2-0.5,0.2
			c-0.2,0-0.3,0-0.4,0c-0.1,0-0.2-0.1-0.3-0.2c-0.1-0.1-0.1-0.2,0-0.2c0-0.1,0.1-0.1,0.1-0.1c0.1,0,0.1,0,0.2,0s0.1,0.1,0.2,0.2
			c0.1,0.1,0.1,0.1,0.1,0.1c0.1,0.1,0.3,0,0.6-0.2l-0.3-2.7c0-0.2-0.1-0.3-0.1-0.4C95.6,8.9,95.5,8.8,95.5,8.6L95.5,8.6z"/>
		<path class="st3" d="M99.5,12.6L99,13.6c-0.1,0.2-0.2,0.3-0.1,0.4c0,0.1,0.1,0.2,0.2,0.3l0.1,0.1l-0.1,0.1l-1.4-0.7l0-0.1l0.1,0.1
			c0.1,0.1,0.3,0.1,0.4,0c0.1,0,0.1-0.1,0.2-0.3l1.1-2.1c0.1-0.2,0.2-0.3,0.1-0.4c0-0.1-0.1-0.2-0.2-0.3l-0.1-0.1l0-0.1l1.2,0.6
			c0.3,0.2,0.5,0.3,0.6,0.5c0.1,0.1,0.2,0.3,0.3,0.5c0,0.2,0,0.4-0.1,0.6c-0.1,0.3-0.3,0.4-0.6,0.5c-0.3,0.1-0.5,0-0.9-0.2
			c-0.1,0-0.2-0.1-0.2-0.1C99.7,12.8,99.6,12.7,99.5,12.6z M99.5,12.5c0.1,0.1,0.1,0.1,0.2,0.2c0.1,0,0.1,0.1,0.2,0.1
			c0.2,0.1,0.3,0.1,0.5,0c0.2-0.1,0.3-0.2,0.4-0.4c0.1-0.1,0.1-0.3,0.1-0.4c0-0.2,0-0.3-0.1-0.4c-0.1-0.1-0.2-0.2-0.3-0.3
			c-0.1,0-0.2-0.1-0.3-0.1L99.5,12.5z"/>
		<path class="st3" d="M102.6,14.1l0.1,0.1c0.4,0.3,0.6,0.5,0.8,0.6c0.1,0.2,0.2,0.4,0.2,0.6c0,0.2,0,0.4-0.2,0.6
			c-0.2,0.2-0.4,0.4-0.7,0.4c-0.3,0.1-0.6-0.1-1-0.3l-1.3-0.9l0.1-0.1c0.2,0.1,0.3,0.2,0.4,0.2c0.1,0,0.2-0.1,0.3-0.3l1.3-1.9
			c0.1-0.2,0.2-0.3,0.2-0.4c0-0.1-0.1-0.2-0.3-0.3l0.1-0.1l1.3,0.9l-0.1,0.1c-0.2-0.1-0.3-0.2-0.4-0.2c-0.1,0-0.2,0.1-0.3,0.3
			L102.6,14.1z M101.6,15.5c0.1,0.1,0.2,0.2,0.3,0.2c0.2,0.1,0.4,0.2,0.6,0.2c0.2,0,0.4-0.1,0.6-0.4c0.2-0.2,0.2-0.4,0.1-0.7
			c-0.1-0.2-0.2-0.4-0.5-0.6c-0.1,0-0.1-0.1-0.2-0.1L101.6,15.5z M104.5,17.7L104.5,17.7l-1.4-0.8l0.1-0.1l0.1,0.1
			c0.1,0.1,0.2,0.1,0.2,0.1c0.1,0,0.1,0,0.2,0c0.1,0,0.1-0.1,0.2-0.3l1.3-2c0.1-0.1,0.2-0.3,0.2-0.3c0-0.1,0-0.1,0-0.2
			c0-0.1-0.1-0.1-0.2-0.2l-0.1,0l0.1-0.1l1.3,0.9l-0.1,0.1l-0.1,0c-0.1-0.1-0.2-0.1-0.3-0.1c-0.1,0-0.1,0-0.2,0
			c-0.1,0-0.1,0.1-0.2,0.3l-1.3,2c-0.1,0.2-0.2,0.3-0.2,0.4C104.2,17.4,104.2,17.5,104.5,17.7L104.5,17.7z"/>
		<path class="st3" d="M110,18.6c0.2-0.2,0.2-0.3,0.2-0.4c0-0.1-0.1-0.2-0.3-0.4l0.1-0.1l1.2,1.1l-0.1,0.1c-0.2-0.2-0.3-0.2-0.4-0.2
			c-0.1,0-0.2,0.1-0.4,0.3l-1.6,1.7c-0.2,0.2-0.2,0.3-0.2,0.4c0,0.1,0.1,0.2,0.2,0.4l-0.1,0.1l-1.2-1.1l0.1-0.1
			c0.2,0.2,0.3,0.2,0.4,0.2c0.1,0,0.2-0.1,0.4-0.3l1.4-1.5l-2.7,0.4c-0.1,0.1-0.2,0.2-0.2,0.3c0,0.1,0,0.1,0,0.2
			c0,0.1,0.1,0.2,0.2,0.3L107,20l-1.2-1.1l0.1-0.1c0.2,0.1,0.3,0.2,0.4,0.2c0.1,0,0.2-0.1,0.4-0.3l1.6-1.7c0.2-0.2,0.2-0.3,0.2-0.4
			c0-0.1-0.1-0.2-0.2-0.4l0.1-0.1l1.2,1.1l-0.1,0.1c-0.2-0.1-0.3-0.2-0.4-0.2c-0.1,0-0.2,0.1-0.4,0.3l-1.4,1.6L110,18.6z"/>
		<path class="st3" d="M114.9,23l-0.9,0.9l-0.1-0.1c0.2-0.3,0.3-0.6,0.3-0.9c0-0.3-0.1-0.5-0.3-0.7c-0.2-0.2-0.3-0.3-0.6-0.4
			c-0.2-0.1-0.5-0.1-0.8,0c-0.3,0.1-0.6,0.3-0.9,0.5c-0.3,0.2-0.4,0.4-0.6,0.7c-0.1,0.2-0.2,0.5-0.1,0.7c0,0.2,0.1,0.5,0.3,0.7
			c0.2,0.2,0.3,0.3,0.5,0.4c0.2,0.1,0.5,0.1,0.8,0.1l0,0.1c-0.4,0.1-0.7,0-1,0s-0.5-0.3-0.7-0.5c-0.4-0.5-0.5-1-0.4-1.5
			c0.1-0.4,0.3-0.8,0.7-1c0.3-0.2,0.6-0.4,0.9-0.5c0.3-0.1,0.7,0,1,0.1c0.3,0.1,0.6,0.3,0.8,0.6c0.2,0.2,0.3,0.5,0.3,0.7
			c0,0.1,0,0.1,0.1,0.2c0,0,0.1,0.1,0.1,0.1C114.7,23,114.7,23,114.9,23L114.9,23z"/>
		<path class="st3" d="M116.8,26.2l-0.9-1.4l-2.3,1.6c-0.2,0.1-0.3,0.2-0.3,0.3c0,0.1,0,0.2,0.2,0.4l-0.1,0.1l-0.9-1.3l0.1-0.1
			c0.1,0.2,0.2,0.3,0.3,0.3c0.1,0,0.2,0,0.4-0.2l1.9-1.3c0.2-0.1,0.3-0.2,0.3-0.3c0-0.1,0-0.2-0.1-0.4l0.1-0.1l2.1,3.2l-0.1,0.1
			c-0.1-0.2-0.2-0.3-0.3-0.3c-0.1,0-0.2,0-0.4,0.2l-1.9,1.3c-0.2,0.1-0.3,0.2-0.3,0.3c0,0.1,0,0.2,0.2,0.4l-0.1,0.1l-0.9-1.3
			l0.1-0.1c0.1,0.2,0.2,0.3,0.3,0.3c0.1,0,0.2,0,0.4-0.2L116.8,26.2z"/>
		<path class="st3" d="M118.8,29.2c0.2,0.4,0.3,0.9,0.1,1.3c-0.2,0.5-0.5,0.8-1,1.1c-0.5,0.3-1,0.3-1.5,0.2
			c-0.5-0.1-0.9-0.4-1.1-0.9c-0.2-0.4-0.3-0.9-0.1-1.4c0.2-0.5,0.5-0.8,1-1.1c0.5-0.3,1-0.3,1.5-0.1
			C118.3,28.5,118.6,28.8,118.8,29.2z M118.6,29.3c-0.2-0.3-0.4-0.5-0.7-0.5c-0.4-0.1-0.8,0-1.4,0.3c-0.5,0.3-0.9,0.6-1,1
			c-0.1,0.3-0.1,0.6,0,0.9c0.2,0.3,0.4,0.5,0.8,0.6c0.3,0.1,0.8,0,1.3-0.3c0.6-0.3,0.9-0.6,1.1-1C118.8,29.9,118.8,29.6,118.6,29.3z
			"/>
		<path class="st3" d="M118.5,33.3l-1,0.4c-0.2,0.1-0.3,0.2-0.4,0.2c0,0.1,0,0.2,0,0.3l0.1,0.1l-0.1,0l-0.6-1.5l0.1,0l0,0.1
			c0.1,0.1,0.2,0.2,0.3,0.2c0.1,0,0.2,0,0.4-0.1l2.2-0.9c0.2-0.1,0.3-0.2,0.4-0.2c0-0.1,0-0.2,0-0.3l0-0.1l0.1,0l0.5,1.2
			c0.1,0.3,0.2,0.6,0.2,0.8c0,0.2,0,0.4-0.1,0.6c-0.1,0.2-0.2,0.3-0.5,0.4c-0.3,0.1-0.5,0.1-0.8,0c-0.2-0.1-0.4-0.3-0.6-0.7
			c0-0.1-0.1-0.2-0.1-0.3C118.5,33.5,118.5,33.4,118.5,33.3z M118.6,33.2c0,0.1,0,0.2,0.1,0.2c0,0.1,0,0.1,0.1,0.2
			c0.1,0.2,0.2,0.3,0.4,0.4c0.2,0.1,0.4,0.1,0.6,0c0.1-0.1,0.3-0.1,0.4-0.3s0.2-0.2,0.2-0.4c0-0.1,0-0.3-0.1-0.4
			c0-0.1-0.1-0.2-0.2-0.3L118.6,33.2z"/>
		<path class="st3" d="M122.2,37.8l-0.8,0.3l0-0.1c0.1-0.1,0.2-0.1,0.3-0.2c0.1-0.1,0.1-0.2,0.2-0.3c0-0.1,0-0.2,0-0.4l-0.2-0.5
			l-2.7,0.8c-0.2,0.1-0.3,0.1-0.4,0.2c-0.1,0.1-0.1,0.2,0,0.3l0,0.1l-0.1,0l-0.5-1.5l0.1,0l0,0.1c0,0.1,0.1,0.2,0.2,0.3
			c0.1,0,0.2,0,0.4-0.1l2.7-0.8l-0.1-0.4c-0.1-0.2-0.1-0.3-0.1-0.3c-0.1-0.1-0.2-0.1-0.3-0.2c-0.1,0-0.2,0-0.4,0l0-0.1l0.8-0.2
			L122.2,37.8z"/>
		<path class="st3" d="M120.5,41.2l-0.3-1.4l-0.6-0.1c-0.2,0-0.3,0-0.3,0c-0.1,0-0.1,0-0.1,0.1c0,0.1,0,0.2,0,0.4l-0.1,0l-0.2-1.1
			l0.1,0c0.1,0.1,0.1,0.2,0.2,0.3c0.1,0.1,0.3,0.1,0.6,0.2l3.2,0.6l0,0.1l-2.7,1.9c-0.2,0.1-0.4,0.3-0.4,0.4c-0.1,0.1-0.1,0.2,0,0.4
			l-0.1,0l-0.3-1.4l0.1,0c0,0.1,0.1,0.2,0.1,0.3c0,0,0.1,0.1,0.2,0c0.1,0,0.2-0.1,0.3-0.2L120.5,41.2z M120.6,41.1l1.3-0.9l-1.6-0.3
			L120.6,41.1z"/>
		<path class="st3" d="M122.5,46.5l-0.7,0.2l0-0.1c0.2-0.1,0.4-0.2,0.4-0.2c0-0.1,0.1-0.2,0-0.4l-0.1-0.5l-1.7,0.2
			c-0.2,0-0.3,0-0.3,0.1c0,0-0.1,0.1-0.1,0.1c0,0,0,0.1,0,0.3l-0.1,0l-0.1-1.2l0.1,0c0,0.2,0.1,0.3,0.1,0.3c0.1,0,0.2,0.1,0.4,0
			l1.3-0.1c0.2,0,0.3,0,0.3-0.1c0,0,0.1-0.1,0.1-0.1c0,0,0-0.1,0-0.3l0.1,0L122.5,46.5z"/>
		<path class="st3" d="M120.5,47c0,0.1,0,0.2-0.1,0.2c-0.1,0.1-0.1,0.1-0.2,0.1c-0.1,0-0.2,0-0.2-0.1c-0.1-0.1-0.1-0.1-0.1-0.2
			c0-0.1,0-0.2,0.1-0.2s0.1-0.1,0.2-0.1c0.1,0,0.2,0,0.2,0.1C120.5,46.9,120.5,47,120.5,47z"/>
		<path class="st3" d="M120.1,50.2l3.1-1.4l-2.5,0c-0.2,0-0.4,0-0.4,0.1c-0.1,0.1-0.1,0.2-0.1,0.3v0.1h-0.1l0-1.3h0.1v0.1
			c0,0.2,0,0.3,0.1,0.3c0.1,0,0.2,0.1,0.4,0.1l2.4,0c0.2,0,0.3,0,0.4,0c0.1,0,0.1-0.1,0.1-0.1c0-0.1,0.1-0.2,0.1-0.3h0.1l0,1
			l-2.9,1.3l2.8,1.4l0,1l-0.1,0v-0.1c0-0.2,0-0.3-0.1-0.3c-0.1,0-0.2-0.1-0.4-0.1l-2.4,0c-0.2,0-0.4,0-0.4,0.1
			c-0.1,0.1-0.1,0.2-0.1,0.3l0,0.1H120l0-1.6h0.1l0,0.1c0,0.2,0,0.3,0.1,0.3c0.1,0,0.2,0.1,0.4,0.1l2.4,0L120.1,50.2L120.1,50.2z"/>
		<path class="st3" d="M123.5,55.4c-0.1,0.5-0.3,0.9-0.7,1.2c-0.4,0.3-0.9,0.4-1.4,0.3c-0.6-0.1-1-0.3-1.3-0.7
			c-0.3-0.4-0.4-0.8-0.4-1.3c0.1-0.5,0.3-0.9,0.7-1.2c0.4-0.3,0.9-0.4,1.4-0.3c0.6,0.1,1,0.3,1.3,0.8
			C123.4,54.5,123.5,55,123.5,55.4z M123.3,55.4c0-0.3,0-0.6-0.3-0.8c-0.3-0.3-0.7-0.5-1.3-0.5c-0.6-0.1-1.1,0-1.4,0.2
			c-0.3,0.2-0.4,0.4-0.5,0.7c0,0.3,0.1,0.6,0.3,0.9c0.2,0.3,0.6,0.4,1.2,0.5c0.6,0.1,1.1,0,1.4-0.2C123.1,56,123.2,55.7,123.3,55.4z
			"/>
		<path class="st3" d="M122.3,61.2l-1.2-0.2l0-0.1c0.4,0,0.7-0.1,0.9-0.3c0.2-0.2,0.3-0.4,0.4-0.7c0.1-0.2,0-0.5,0-0.7
			c-0.1-0.2-0.2-0.4-0.5-0.6c-0.2-0.2-0.6-0.3-0.9-0.4c-0.3-0.1-0.6-0.1-0.9,0c-0.3,0-0.5,0.2-0.7,0.3c-0.2,0.2-0.3,0.4-0.4,0.7
			c-0.1,0.2-0.1,0.4,0,0.6c0.1,0.2,0.2,0.4,0.5,0.7l-0.1,0.1c-0.3-0.3-0.5-0.5-0.5-0.8c-0.1-0.3-0.1-0.6,0-0.9c0.1-0.6,0.5-1,1-1.2
			c0.4-0.2,0.8-0.2,1.2-0.1c0.4,0.1,0.7,0.2,0.9,0.5c0.3,0.2,0.4,0.5,0.5,0.8c0.1,0.3,0.1,0.6,0,1c-0.1,0.3-0.2,0.5-0.4,0.7
			c-0.1,0.1-0.1,0.1-0.1,0.1c0,0,0,0.1,0,0.1C122.2,61,122.2,61.1,122.3,61.2L122.3,61.2z"/>
		<path class="st3" d="M117.5,64.3L117.5,64.3l0.2-0.9c0.2,0,0.6-0.2,1.1-0.3c0.5-0.2,0.8-0.3,0.9-0.3c0.1-0.1,0.1-0.1,0.2-0.3
			l-1-0.4c-0.2-0.1-0.4-0.1-0.5-0.1c-0.1,0-0.2,0.2-0.2,0.4l-0.1,0l0.5-1.5l0.1,0c-0.1,0.2-0.1,0.4,0,0.4c0,0.1,0.2,0.2,0.4,0.2
			l2.2,0.8c0.2,0.1,0.4,0.1,0.5,0.1c0.1,0,0.2-0.2,0.2-0.4l0.1,0l-0.5,1.5l-0.1,0c0.1-0.2,0.1-0.4,0-0.5c0-0.1-0.2-0.2-0.4-0.2
			l-1-0.3c-0.1,0.2-0.1,0.3-0.1,0.4c0,0.1,0,0.2,0.1,0.3c0,0.1,0.1,0.2,0.2,0.3c0.1,0.1,0.2,0.2,0.4,0.4c0.2,0.1,0.3,0.3,0.4,0.3
			c0.1,0.1,0.1,0.2,0.1,0.3c0,0.1,0,0.3,0,0.4c-0.1,0.3-0.2,0.4-0.4,0.3c-0.1,0-0.1-0.1-0.1-0.1c0-0.1,0-0.1,0-0.2
			c0,0,0.1-0.1,0.2-0.2c0.1-0.1,0.1-0.1,0.1-0.2c0-0.1,0-0.1,0-0.2c0-0.1-0.2-0.2-0.4-0.3c-0.4-0.3-0.6-0.6-0.6-0.9
			c-0.1,0.1-0.4,0.3-0.9,0.4c-0.5,0.1-0.9,0.3-1.1,0.4C117.7,63.9,117.5,64.1,117.5,64.3z"/>
		<path class="st3" d="M118,67.5c-0.2,0.2-0.3,0.3-0.5,0.4c-0.2,0.1-0.4,0.1-0.7,0c-0.2-0.1-0.3-0.2-0.4-0.4
			c-0.1-0.2-0.2-0.4-0.1-0.6c0-0.2,0.1-0.5,0.3-0.9l0.7-1.6l0.1,0l-0.1,0.1c-0.1,0.1-0.1,0.3,0,0.4c0,0.1,0.2,0.1,0.3,0.2l2.2,1
			c0.2,0.1,0.4,0.1,0.4,0.1c0.1,0,0.2-0.1,0.2-0.2l0.1-0.1l0.1,0l-0.6,1.4c-0.1,0.3-0.2,0.5-0.4,0.6c-0.2,0.2-0.4,0.4-0.6,0.4
			c-0.2,0.1-0.4,0-0.6,0c-0.2-0.1-0.3-0.2-0.4-0.4C118,67.9,117.9,67.7,118,67.5z M117.1,65.6c-0.1,0.2-0.2,0.4-0.3,0.5
			c-0.1,0.3-0.2,0.6-0.1,0.8c0.1,0.2,0.2,0.4,0.4,0.5c0.1,0.1,0.3,0.1,0.4,0.1c0.2,0,0.3-0.1,0.4-0.2c0.1-0.1,0.3-0.3,0.4-0.5
			c0-0.1,0.1-0.2,0.1-0.3c0-0.1,0-0.1,0.1-0.2L117.1,65.6z M118.7,66.3c0,0.1-0.1,0.1-0.1,0.2c0,0.1-0.1,0.2-0.1,0.3
			c-0.1,0.2-0.2,0.4-0.2,0.6c0,0.1,0,0.3,0.1,0.4c0.1,0.1,0.2,0.2,0.3,0.3c0.2,0.1,0.4,0.1,0.6,0c0.2-0.1,0.4-0.3,0.5-0.6
			c0.1-0.2,0.1-0.3,0.1-0.5L118.7,66.3z"/>
		<path class="st3" d="M113.4,72L113.4,72l0.7-1.4l0.1,0l-0.1,0.1c-0.1,0.1-0.1,0.2-0.1,0.2c0,0.1,0,0.1,0.1,0.2
			c0,0,0.1,0.1,0.3,0.2l2,1.2c0.1,0.1,0.3,0.1,0.3,0.2c0.1,0,0.1,0,0.2,0c0.1,0,0.1-0.1,0.2-0.2l0-0.1l0.1,0l-0.8,1.4l-0.1-0.1
			l0-0.1c0.1-0.1,0.1-0.2,0.1-0.3c0-0.1,0-0.1-0.1-0.2c0,0-0.1-0.1-0.3-0.2l-2-1.2c-0.2-0.1-0.3-0.2-0.4-0.2
			C113.7,71.7,113.6,71.8,113.4,72L113.4,72z M116.9,69.9l-0.1,0.1c-0.2,0.4-0.4,0.7-0.6,0.8c-0.2,0.2-0.3,0.2-0.5,0.3
			c-0.2,0-0.4,0-0.6-0.1c-0.2-0.1-0.4-0.3-0.5-0.6c-0.1-0.3,0-0.6,0.3-1.1l0.8-1.3l0.1,0c-0.1,0.2-0.2,0.3-0.1,0.4
			c0,0.1,0.1,0.2,0.4,0.3l2,1.2c0.2,0.1,0.4,0.2,0.4,0.2c0.1,0,0.2-0.1,0.3-0.3l0.1,0l-0.8,1.4l-0.1,0c0.1-0.2,0.2-0.3,0.1-0.4
			c0-0.1-0.1-0.2-0.4-0.3L116.9,69.9z M115.4,69c-0.1,0.1-0.2,0.2-0.2,0.3c-0.1,0.2-0.2,0.4-0.1,0.6c0,0.2,0.2,0.4,0.4,0.5
			c0.2,0.1,0.5,0.2,0.7,0.1c0.2-0.1,0.4-0.3,0.5-0.5c0-0.1,0.1-0.1,0.1-0.2L115.4,69z"/>
	</g>
</g>
</svg>
