<?xml version="1.0" encoding="utf-8"?>
<!-- Generator: Adobe Illustrator 24.0.1, SVG Export Plug-In . SVG Version: 6.00 Build 0)  -->
<svg version="1.1" id="Layer_1" xmlns="http://www.w3.org/2000/svg" xmlns:xlink="http://www.w3.org/1999/xlink" x="0px" y="0px"
	 viewBox="0 0 160 100" style="enable-background:new 0 0 160 100;" xml:space="preserve">
<style type="text/css">
	.st0{fill:#07502B;}
	.st1{fill:#231F20;}
</style>
<g>
	<g>
		<path d="M34.8,46.2h6v2.4h-3.2V50h2.9v2.2h-2.9v1.6h3.2v2.4h-6V46.2z"/>
		<path d="M47.1,46.2c2.7,0,3,1.8,3,2.5c0,1-0.7,1.8-1.5,2.1v0c0.7,0.2,2.1,0.7,2.1,2.5c0,1.4-0.9,2.8-3.2,2.8h-5.1v-9.9H47.1z
			 M46.2,50.1c1.1,0,1.3-0.6,1.3-0.9c0-0.5-0.3-1-1.3-1H45v1.9H46.2z M46.3,54.1c0.4,0,1.5,0,1.5-1c0-1-1-1-1.5-1H45v2H46.3z"/>
		<path d="M51.9,46.2h4.2c2.8,0,3.6,2,3.6,3.3c0,1.4-0.8,3.3-3.6,3.3h-1.4v3.3h-2.8V46.2z M54.7,50.7h0.8c1.2,0,1.4-0.7,1.4-1.1
			c0-0.5-0.2-1.1-1.4-1.1h-0.8V50.7z"/>
		<path d="M60.5,51.2c0-2.7,1.7-5.2,5.3-5.2c3.6,0,5.3,2.6,5.3,5.2c0,2.7-1.7,5.2-5.3,5.2C62.2,56.4,60.5,53.8,60.5,51.2z
			 M68.3,51.2c0-1.9-1.2-2.9-2.5-2.9c-1.3,0-2.5,1-2.5,2.9c0,1.9,1.2,2.9,2.5,2.9C67.1,54,68.3,53.1,68.3,51.2z"/>
		<path d="M81.2,46.2v9.9h-2.8v-7.5h-2v3.9c0,1.4-0.1,3.8-3.6,3.8c-0.4,0-0.7,0-1.2-0.1v-2.4c0.2,0.1,0.4,0.1,0.6,0.1
			c1.2,0,1.4-0.8,1.4-2.2v-5.5L81.2,46.2L81.2,46.2z"/>
		<path d="M82.5,51.2c0-2.7,1.7-5.2,5.3-5.2c3.6,0,5.3,2.6,5.3,5.2c0,2.7-1.7,5.2-5.3,5.2C84.2,56.4,82.5,53.8,82.5,51.2z
			 M90.3,51.2c0-1.9-1.2-2.9-2.5-2.9c-1.3,0-2.5,1-2.5,2.9c0,1.9,1.2,2.9,2.5,2.9C89.1,54,90.3,53.1,90.3,51.2z"/>
		<path d="M94.5,46.2h6v2.4h-3.2v7.5h-2.8V46.2z"/>
		<path d="M104.2,46.2v6l3.8-6h2.7v9.9h-2.7v-6l-3.8,6h-2.7v-9.9H104.2z"/>
		<path d="M119.9,55.7c-0.9,0.6-1.8,0.7-2.7,0.7c-2.9,0-5.1-2.1-5.1-5.2c0-3.3,2.3-5.2,5-5.2c0.9,0,1.9,0.2,2.7,0.8v2.9
			c-0.5-0.6-1.3-1.2-2.4-1.2c-1.5,0-2.5,1.2-2.5,2.8c0,1.5,0.9,2.7,2.5,2.7c1,0,1.8-0.6,2.4-1.1L119.9,55.7L119.9,55.7z"/>
		<path d="M122.7,48.6h-2.2v-2.4h7.1v2.4h-2.2v7.5h-2.8L122.7,48.6L122.7,48.6z"/>
		<path d="M131.3,46.2v6l3.8-6h2.7v9.9h-2.7v-6l-3.8,6h-2.7v-9.9H131.3z"/>
		<path d="M139.6,46.2h2.8v4.2l3-4.2h3.3l-3.8,4.8l3.9,5.1h-3.5l-2.9-4.3v4.3h-2.8V46.2z"/>
		<path d="M152.1,46.2h3.4l3.5,9.9h-3l-0.6-1.7h-3.4l-0.6,1.7h-3L152.1,46.2z M152.6,52.2h2.3l-1.1-3.7L152.6,52.2z"/>
	</g>
	<g>
		<path d="M123.6,59h1.9v0.8h-1v0.5h0.9V61h-0.9v0.5h1v0.8h-1.9V59z"/>
		<path d="M126,61V59h0.9v1.9c0,0.2,0,0.6,0.5,0.6c0.5,0,0.5-0.4,0.5-0.6V59h0.9V61c0,0.3-0.1,1.4-1.4,1.4
			C126.1,62.3,126,61.3,126,61z"/>
		<path d="M129.4,59h1.3c1.1,0,1.1,0.8,1.1,1c0,0.6-0.4,0.9-0.7,1l0.9,1.3h-1.1l-0.7-1.1v1.1h-0.9L129.4,59L129.4,59z M130.5,60.5
			c0.3,0,0.4-0.2,0.4-0.4c0-0.2-0.1-0.4-0.4-0.4h-0.2v0.7C130.3,60.5,130.5,60.5,130.5,60.5z"/>
		<path d="M132.2,60.6c0-0.9,0.6-1.7,1.7-1.7s1.7,0.8,1.7,1.7c0,0.9-0.6,1.7-1.7,1.7S132.2,61.5,132.2,60.6z M134.7,60.6
			c0-0.6-0.4-0.9-0.8-0.9s-0.8,0.3-0.8,0.9c0,0.6,0.4,0.9,0.8,0.9S134.7,61.3,134.7,60.6z"/>
		<path d="M136.1,59h0.9v2.4h1v0.8h-1.9V59z"/>
		<path d="M138.1,60.6c0-0.9,0.6-1.7,1.7-1.7s1.7,0.8,1.7,1.7c0,0.9-0.6,1.7-1.7,1.7S138.1,61.5,138.1,60.6z M140.7,60.6
			c0-0.6-0.4-0.9-0.8-0.9s-0.8,0.3-0.8,0.9c0,0.6,0.4,0.9,0.8,0.9S140.7,61.3,140.7,60.6z"/>
		<path d="M145.2,60.4c0.1,0.8-0.2,2-1.6,2c-1,0-1.8-0.6-1.8-1.7c0-1.1,0.7-1.7,1.7-1.7c1,0,1.4,0.6,1.5,0.8l-0.8,0.4
			c-0.1-0.2-0.4-0.4-0.7-0.4c-0.4,0-0.8,0.3-0.8,0.9c0,0.6,0.4,1,0.9,1c0.4,0,0.6-0.2,0.7-0.5h-0.8v-0.7L145.2,60.4L145.2,60.4z"/>
		<path d="M145.7,59h0.9v3.2h-0.9V59z"/>
		<path d="M148.9,59.9c-0.2-0.1-0.4-0.3-0.6-0.3c-0.3,0-0.3,0.2-0.3,0.3c0,0.3,0.4,0.3,0.7,0.4c0.6,0.2,0.7,0.7,0.7,1
			c0,0.6-0.5,1.1-1.2,1.1c-0.4,0-0.7-0.1-1.2-0.5l0.4-0.7c0.3,0.2,0.5,0.4,0.8,0.4c0.2,0,0.3-0.1,0.3-0.3c0-0.3-0.3-0.3-0.6-0.4
			c-0.3-0.1-0.8-0.3-0.8-1c0-0.5,0.4-1,1.1-1c0.5,0,0.8,0.2,1,0.3L148.9,59.9z"/>
		<path d="M150.2,59.8h-0.7V59h2.3v0.8h-0.7v2.4h-0.9V59.8z"/>
		<path d="M152.1,59h0.9v3.2h-0.9V59z"/>
		<path d="M156,62.1c-0.3,0.2-0.6,0.2-0.9,0.2c-1,0-1.6-0.7-1.6-1.7c0-1.1,0.8-1.7,1.6-1.7c0.3,0,0.6,0.1,0.9,0.3v0.9
			c-0.2-0.2-0.4-0.4-0.8-0.4c-0.5,0-0.8,0.4-0.8,0.9c0,0.5,0.3,0.9,0.8,0.9c0.3,0,0.6-0.2,0.8-0.3V62.1z"/>
		<path d="M158.1,59.9c-0.2-0.1-0.4-0.3-0.6-0.3c-0.3,0-0.3,0.2-0.3,0.3c0,0.3,0.4,0.3,0.7,0.4c0.6,0.2,0.7,0.7,0.7,1
			c0,0.6-0.5,1.1-1.2,1.1c-0.4,0-0.7-0.1-1.2-0.5l0.4-0.7c0.3,0.2,0.5,0.4,0.8,0.4c0.2,0,0.3-0.1,0.3-0.3c0-0.3-0.3-0.3-0.6-0.4
			c-0.3-0.1-0.8-0.3-0.8-1c0-0.5,0.4-1,1.1-1c0.5,0,0.8,0.2,1,0.3L158.1,59.9z"/>
	</g>
	<polygon class="st0" points="16.7,59.7 29.3,47.1 30.9,48.7 32.7,42.2 26.2,43.9 27.7,45.5 16.7,56.5 7,46.9 16.7,37.2 23.7,44.3 
		25.3,42.7 16.7,34 3.8,46.9 	"/>
	<g>
		<polygon class="st1" points="17,43.5 23.4,49.9 25,48.3 17,40.3 4.3,52.9 2.8,51.3 1,57.8 7.5,56.1 5.9,54.5 		"/>
		<polygon class="st1" points="25,51.5 26.6,53.1 17,62.8 9.9,55.7 8.3,57.3 17,66 29.8,53.1 26.6,49.9 		"/>
	</g>
</g>
</svg>
