<?xml version="1.0" encoding="utf-8"?>
<!-- Generator: Adobe Illustrator 24.0.1, SVG Export Plug-In . SVG Version: 6.00 Build 0)  -->
<svg version="1.1" id="Layer_1" xmlns="http://www.w3.org/2000/svg" xmlns:xlink="http://www.w3.org/1999/xlink" x="0px" y="0px"
	 viewBox="0 0 160 100" style="enable-background:new 0 0 160 100;" xml:space="preserve">
<style type="text/css">
	.st0{fill:#231F20;}
	.st1{fill:#FAAC18;}
</style>
<g>
	<path class="st0" d="M45.3,59.5h4.5l1.1-1.8h-5.6V59.5L45.3,59.5z M80.9,57.8h-3.5V56h3.5c0.6,0,1,0.1,1,0.9
		C81.9,57.4,81.6,57.8,80.9,57.8L80.9,57.8z M77.4,52.9h3.2c0.5,0,0.7,0.3,0.7,0.7c0,0.5-0.3,0.8-0.7,0.8h-3.2V52.9L77.4,52.9z
		 M82.3,54.6c0.5-0.2,1-0.6,1-1.5c0-1.7-1.5-1.9-2.5-1.9h-5.4v8.4h5.5c2.5,0,3.1-1.4,3.1-2.7C84,55.4,83.1,54.8,82.3,54.6L82.3,54.6
		z M99,59.5h4.5l1.1-1.8H99L99,59.5L99,59.5z M45.3,54.4v1.8h6.4l1.1-1.8H45.3L45.3,54.4z M90.9,57.8h-2.9v-1.9h2.9
		c0.3,0,0.9,0.1,0.9,0.9C91.7,57.6,91.3,57.8,90.9,57.8L90.9,57.8z M91,54.2h-3.1v-3h-2v8.4h1.6h0.4h3c1.4,0,2.8-0.8,2.8-2.7
		C93.8,54.2,91.9,54.2,91,54.2L91,54.2z M94.8,59.5h2v-8.4h-2V59.5L94.8,59.5z M57.1,51.1l-4.8,8.4h2.4l3.2-5.5l3.2,5.5h2.5
		l-4.8-8.4L57.1,51.1L57.1,51.1z M68.6,57.8c-1.9,0-2.8-1.1-2.8-2.5c0-1.5,0.9-2.5,2.8-2.5c2.1,0,2.8,1,2.8,2.5
		C71.4,57.1,70,57.8,68.6,57.8L68.6,57.8z M68.6,50.9c-3.4,0-5,2.1-5,4.4c0,2.4,1.6,4.4,5,4.4c1.5,0,4.9-0.7,4.9-4.4
		C73.5,52.9,72,50.9,68.6,50.9L68.6,50.9z M33.8,57.7l3.2-5.5l3.2,5.5H33.8L33.8,57.7z M37.8,49.3h-1.6l-4.8,8.4h-1.2V62h1.9v-2.5
		H42V62h1.9v-4.3h-1.2L37.8,49.3L37.8,49.3z M54.7,51.1h-9.4V53h8.3L54.7,51.1L54.7,51.1z M99,54.4v1.8h6.4l1.1-1.8H99L99,54.4z
		 M108.4,51.1h-9.4V53h8.3L108.4,51.1L108.4,51.1z M157.2,51.1l-4.8,5.5v-5.5h-2v8.4h1.7L157,54v5.5h2v-8.4L157.2,51.1L157.2,51.1z
		 M110.9,51.1l-4.8,8.4h2.4l3.2-5.5l3.2,5.5h2.5l-4.8-8.4L110.9,51.1L110.9,51.1z M135.3,54.4h-4.4v-3.3h-2v8.4h2v-3.3h4.4v3.3h2
		v-8.4h-2V54.4L135.3,54.4z M141.6,56.6v-5.5h-2v8.4h1.7l4.8-5.5v5.5h2v-8.4h-1.8L141.6,56.6L141.6,56.6z M120.1,56.6v-5.4h-2v8.4
		h1.7l4.8-5.5v5.5h2v-8.4H125L120.1,56.6L120.1,56.6z"/>
	<path class="st1" d="M15.3,55.5l-9.5-4.1l-2,3.5l10.7,2.1L15.3,55.5L15.3,55.5z M14,59.6h3.2l2.8-4.8l2.8,4.8h3.2l-6-10.3L14,59.6
		L14,59.6z M3.3,55.7L1,59.6h11.9l1.1-1.8L3.3,55.7L3.3,55.7z M19.4,48.3l-6-10.3l-2.3,3.9l7.2,8.3L19.4,48.3L19.4,48.3z M17.9,51
		l-7.2-8.3l-2,3.5l8.3,6.2L17.9,51L17.9,51z M16.6,53.2L8.2,47l-2,3.5l9.5,4.1L16.6,53.2L16.6,53.2z"/>
</g>
</svg>
