<?xml version="1.0" encoding="utf-8"?>
<!-- Generator: Adobe Illustrator 24.0.1, SVG Export Plug-In . SVG Version: 6.00 Build 0)  -->
<svg version="1.1" id="Layer_1" xmlns="http://www.w3.org/2000/svg" xmlns:xlink="http://www.w3.org/1999/xlink" x="0px" y="0px"
	 viewBox="0 0 160 100" style="enable-background:new 0 0 160 100;" xml:space="preserve">
<style type="text/css">
	.st0{fill:#E43527;}
	.st1{fill:#F7971F;}
</style>
<g>
	<g>
		<path class="st0" d="M40.3,59.1V34.7h14.4v3.1H43.3v7.5h10.2v3.1H43.3V56h12.2v3.1L40.3,59.1L40.3,59.1z"/>
		<path class="st0" d="M70.7,59.1l-5-6.5l-4.9,6.5h-3.5l6.8-8.7l-7.1-8.9h3.9l4.9,6.7l4.9-6.7h3.9l-6.8,8.9l6.4,8.7H70.7z"/>
		<path class="st0" d="M79,56.4v12h-3v-18c0-4.6,3.5-9.4,9-9.4c5.5,0,9.7,3.5,9.7,9.2c0,5.6-4.2,9.5-9,9.5
			C83.2,59.7,80.1,58.7,79,56.4z M91.5,50.3c0-3.9-2.5-6.3-7-6.1c-2.2,0.1-5.5,1.7-5.2,7.3c0.1,1.8,2,5.3,6.1,5.3
			C88.9,56.8,91.5,54.7,91.5,50.3z"/>
		<path class="st0" d="M97.2,59.1V41.5h3v1.9c1.4-1.6,3.7-2.3,6.1-2.3v3.2c-0.3,0-3.9-0.5-6.1,4.1v10.7L97.2,59.1L97.2,59.1z"/>
		<path class="st0" d="M107.1,50.3c0-5.1,3.7-9.2,8.7-9.2c6.3,0,8.6,4.2,8.6,9.5v1.4h-14c0.2,3.3,3.2,5.1,5.9,5
			c2-0.1,3.4-0.7,4.9-2.1l1.9,2c-1.8,1.8-4.2,2.9-7,2.9C110.8,59.7,107.1,55.8,107.1,50.3z M115.5,44c-2.9,0-5,2.5-5.2,5.1h10.8
			C121.1,46.5,119.3,44,115.5,44z"/>
		<path class="st0" d="M125.8,56.6c0,0,2.2-1.9,2.2-1.9c0,0,1.1,1.2,1.2,1.3c0.5,0.4,1.1,0.7,1.7,0.9c1.9,0.5,5.3,0.3,5.6-2.2
			c0.1-1.5-1-2.3-2.2-2.7c-1.6-0.6-3.4-0.8-5-1.5c-1.8-0.8-3-2.2-3-4.2c0-5.3,7.5-6.2,11-3.7c0.2,0.1,1.8,1.6,1.8,1.7l-2.2,1.7
			c-1.1-1.3-2.1-2-4.4-2c-1.1,0-2.8,0.5-3.1,1.7c-0.5,1.7,1.5,2.4,2.8,2.7c1.7,0.5,3.6,0.7,5.2,1.7c2.1,1.3,2.6,4.1,1.8,6.3
			c-0.9,2.4-3.5,3.3-5.8,3.4c-2.8,0.1-5.1-0.8-7.1-2.7C126.2,57,125.8,56.6,125.8,56.6z"/>
		<path class="st0" d="M141.2,56.6c0,0,2.2-1.9,2.2-1.9c0,0,1.1,1.2,1.2,1.3c0.5,0.4,1.1,0.7,1.7,0.9c1.9,0.5,5.3,0.3,5.6-2.2
			c0.1-1.5-1-2.3-2.2-2.7c-1.6-0.6-3.4-0.8-4.9-1.5c-1.8-0.8-3-2.2-3-4.2c0-5.3,7.5-6.2,11-3.7c0.2,0.1,1.8,1.6,1.8,1.7l-2.2,1.7
			c-1.1-1.3-2.1-2-4.4-2c-1.1,0-2.8,0.5-3.1,1.7c-0.5,1.7,1.5,2.4,2.8,2.7c1.7,0.5,3.6,0.7,5.2,1.7c2.1,1.3,2.6,4.1,1.8,6.3
			c-0.9,2.4-3.5,3.3-5.8,3.4c-2.8,0.1-5.1-0.8-7.1-2.7C141.5,57,141.2,56.6,141.2,56.6z"/>
		<g>
			<path class="st0" d="M155.4,41.4v-1.9h-0.7v-0.3h1.7v0.3h-0.7v1.9H155.4z"/>
			<path class="st0" d="M158.6,41.4v-1.7l-0.7,1.7h-0.2l-0.7-1.7v1.7h-0.4v-2.2h0.6l0.6,1.5l0.6-1.5h0.6v2.2
				C159,41.4,158.6,41.4,158.6,41.4z"/>
		</g>
	</g>
	<g>
		<path class="st1" d="M20.2,59.1L18,53.3H6.3l-2.2,5.8H1l9.5-24.3h3.4l9.4,24.4L20.2,59.1L20.2,59.1z M12,38.2l-4.4,12h9.2L12,38.2
			z"/>
		<path class="st1" d="M25.1,59.1V34.7h3v24.4L25.1,59.1L25.1,59.1z"/>
		<path class="st1" d="M32.7,59.1V41.8h3v17.3L32.7,59.1L32.7,59.1z"/>
		<path id="XMLID_1_" class="st1" d="M38.7,36.2c0-0.1,0-0.1,0-0.2c0-0.1,0-0.1,0-0.2c-2.3-0.1-4.2-2-4.3-4.3c-0.1,0-0.1,0-0.2,0
			c-0.1,0-0.1,0-0.2,0c-0.1,2.3-2,4.2-4.3,4.3c0,0.1,0,0.1,0,0.2c0,0.1,0,0.1,0,0.2c2.3,0.1,4.2,2,4.3,4.3c0.1,0,0.1,0,0.2,0
			c0.1,0,0.1,0,0.2,0C34.5,38.2,36.4,36.3,38.7,36.2z"/>
	</g>
</g>
</svg>
