<?xml version="1.0" encoding="utf-8"?>
<!-- Generator: Adobe Illustrator 24.0.1, SVG Export Plug-In . SVG Version: 6.00 Build 0)  -->
<svg version="1.1" id="Layer_1" xmlns="http://www.w3.org/2000/svg" xmlns:xlink="http://www.w3.org/1999/xlink" x="0px" y="0px"
	 viewBox="0 0 160 100" style="enable-background:new 0 0 160 100;" xml:space="preserve">
<style type="text/css">
	.st0{fill:#80BA3D;}
	.st1{fill:#FFFFFF;}
	.st2{fill:#4C721D;}
</style>
<g>
	<g>
		<ellipse class="st0" cx="79.9" cy="26.9" rx="33.4" ry="25.9"/>
		<path class="st1" d="M109.5,26.8c0-12.2-13.3-22.1-29.7-22.1c-4.4,0-8.7,0.7-12.4,2C64.2,6.4,61,7.7,61,7.7s2.3,3.7,5.8,5.1
			c2.4,1,5.2,0.1,5.6-0.3c0,0-0.9-1.9-4-3.3c-1.2-0.5-2.8-1-4.6-1.2c1.2,0.1,2.3,0,4.7,0.8c3.4,1.1,4.3,3.1,4.3,3.1
			c0.2-1.9-1.1-3.3-2.4-4c2.9-0.8,6.1-1.2,9.3-1.2c15.4,0,27.8,9,27.8,20.2c0,3.5-1.2,6.7-3.3,9.6c0,0-1.4-1.4-3.1-2.7
			c0.8-4.5-2.6-8.7-6.2-10.8c1.7-5.3-3.4-10.6-12.6-10.8c-1.4,0-3.2,0.1-4.5,0.2l0.5-3.3h-0.7c-2.6,0-3.5,1.7-3.8,2.3l-1,1.9
			c-5.7,1.6-8.9,4.3-9.2,4.6c-0.7,0.6-0.5,0.8,0.7,0.3c2.1-0.9,4.6-1.7,7.1-2.2l-7.7,14.2c-4.1-0.5-8.4,0-10.6,2.8
			C52.5,31,52,29,52,26.9c0-6.5,4.2-12.3,10.7-16c-1.6-1.1-3.1-0.2-3.6,0.1c0,0,0,0,0,0c-5.5,4-8.9,9.6-8.9,15.8
			c0,2.9,0.8,5.7,2.1,8.2C52.1,36,52.2,37,53,38c1,1.3,3.1,1.9,5.6,1.1c3.3-1.2,5.8-4.8,6.6-6.1c-2.4-0.4-3.3,0.5-3.7,0.9
			c-1,1.3-2.4,2.8-3.9,3.4c-3.1,1.3-5.1-1.5-2.6-3.7c1.6-1.5,4.9-1.8,7.8-1.5h0.1c3.7,0.5,6.6,1.6,7.2,1.9c-0.6,3.3-1,5.5-1,5.5
			l1.1,0c3.6,0,3.9-2.7,3.9-2.7c0,0,0.2-0.9,0.2-0.9c3.3,1.6,6.5,3.3,6.6,3.4c0.8,0.5,2,0.4,2.2-0.8l1.4-9.4
			c3.6-0.2,7.2-1.6,9.1-3.7c1.7,1.3,3.2,3.4,3.5,5.9c-2-0.9-4.3-1.4-6.7-1c-5.5,0.8-7.4,6.4-4.4,9.6c2.3,2.4,5.5,2.6,8.9,1.3
			c1.8-0.7,3.6-2,4.9-4c-0.3-0.3-0.8-0.7-1.3-1.1c-1.5-0.9-2.7,0.1-3,0.5c-1,1.2-2.3,2.1-3.7,2.4c-6.3,1.5-6.9-6.8-0.4-7
			c2.1-0.1,3.9,0.8,5.5,2v0c1.6,1.2,3.9,3.5,5,4.3c2.4,1.7,4.7,0.9,4.7,0.9s-0.4-0.7-1.1-1.5C108.1,34.6,109.5,30.8,109.5,26.8z
			 M70.6,31.5c-1.2-0.4-3.5-0.9-4-1l6.1-11.2C72,23,71.2,27.6,70.6,31.5z M84.8,27.1l0.6-3.8c-4.2,0-4.8,2.9-4.9,3.4
			c-2-1-0.3-3.1,2.5-3.6c3.1-0.6,6.1,0.1,7.9,0.8C90,25.8,87.7,26.9,84.8,27.1z M91.7,21.6c-1.6-0.4-3.7-0.8-5.9-0.7l0.7-5.1
			c-4.5-0.8-4.7,2.3-4.7,2.3c-0.2,1.1-0.3,2.3-0.5,3.6c-4.2,1.6-4.6,5.3-1,6.8c-0.4,2.4-0.9,6.2-0.9,6.2c-1.2-0.5-3.5-1.5-4.5-1.8
			l2.8-18C89.7,13.7,92.1,19.2,91.7,21.6z M100.2,40.6L100.2,40.6c-5.1,4-12.4,6.5-20.3,6.5c-7.9,0-15.1-2.4-20.2-6.3
			c-0.5-0.4-1.8-1.2-3.4-0.5c5.4,5.2,14,8.6,23.5,8.6c9.6,0,18.1-3.4,23.6-8.7C101.9,39.5,100.6,40.4,100.2,40.6z"/>
	</g>
	<g>
		<g>
			<path class="st2" d="M92.1,57.5c-1.7,0-2.4,0.7-3,2.2c-0.9,2.6-1.7,5-1.9,5.6c-0.3-0.6-2.2-4.4-3.6-7.7h-5.2
				c2.5,5.3,6.2,13,6.5,13.6c-0.2,0.6-0.6,1.7-2.5,1.7l-1.9,0l-0.5,3.5c1.1,0.3,2.3,0.4,3.6,0.4c2.2,0,3.9-1,4.8-2.8L95,57.5H92.1z"
				/>
			<path class="st2" d="M72,64.3c0,0-2.4,0-2.8,0v-2.9h6c1.4-0.1,2.2-0.8,2.2-2.2v0v-1.7H67.1c-2.1,0-3.1,1.4-3.1,2.9v16h8.3
				c5.1,0,6.9-3.3,6.9-6.1C79.3,67.3,77,64.3,72,64.3z M70.6,72.5c0,0-1,0-1.4,0v-4.3c0.4,0,2.1,0,2.1,0c1.8,0,2.7,1,2.7,2.1
				C73.9,71.3,73.5,72.5,70.6,72.5z"/>
			<path class="st2" d="M118.8,69.1c0.2-0.6,2-5.2,2.3-6.2c0.4,1,2.3,5.6,2.6,6.2H118.8z M106.8,66.8c0.6-0.5,1.2-1.5,1.7-2.5
				c0,0,0.7-1.5,0.7-1.5c0.5-1.1,1.4-1.2,2.3-1.2h0.1l0.5-3.8l-0.3-0.1c-0.6-0.1-1.2-0.2-1.7-0.2c-2.2,0-3.9,1-4.8,2.8l-1.2,2.5
				c-0.6,1.4-1.4,1.9-2.6,1.9c0,0-0.7,0-1.1,0c0-0.5,0-7.2,0-7.2h-2c-2.1,0-3.1,1.3-3.1,2.9v16h5.1c0,0,0-7.3,0-7.8
				c0.3,0,0.8,0,0.8,0c1.7,0,3,1.2,4.1,3.6l2,4.2h8.9c0,0,1.3-3.3,1.4-3.6h7.9c0.1,0.3,1.5,3.6,1.5,3.6h5.5l-8.4-18.9h-3.5
				c-1.8,0-2.4,0.7-3.1,2.3l0,0l-5.7,14.1l-1.3-2.7C109.2,68.9,108,67.5,106.8,66.8z"/>
			<path class="st2" d="M59.5,66.3c1.3-0.6,2.8-2.1,2.8-4.2c0-3.3-3.8-4.7-7.6-4.7c-1.8,0-3.8,0.3-6.2,1l0.4,4c0,0,2.4-0.7,3.8-0.8
				c2.8-0.2,4,0.6,4,1.6c0,0.5,0,1.9-3.7,1.9h-1.8v3.9h1.5c3,0,4.1,0.5,4.1,1.7c0,1.3-1.3,2-3.8,1.9c-1.4,0-2.8-0.2-4.1-0.5
				c0,0.2,0.4,1.3,0.8,2.3c0.3,0.7,1.1,2.1,2.6,2.2c0,0,1.1,0.1,1.9,0.1c5.2-0.1,8.2-2.1,8.2-5.7C62.5,68.5,61,67.2,59.5,66.3z"/>
			<path class="st2" d="M41,57.5h-3.5c-1.7,0-2.4,0.7-3,2.1l-6.8,16.8h5.4c0,0,1.3-3.3,1.4-3.6h7.9c0.1,0.3,1.5,3.6,1.5,3.6h5.5
				L41,57.5z M35.9,69.1c0.2-0.6,2-5.2,2.3-6.2c0.4,1,2.3,5.6,2.6,6.2H35.9z"/>
		</g>
		<g>
			<path class="st2" d="M85.9,79.8c-1.7,0-2.4,0.7-3,2.2c-0.9,2.6-1.7,5-1.9,5.6c-0.3-0.6-2.2-4.4-3.6-7.7h-5.2
				c2.5,5.3,6.2,13,6.5,13.6c-0.2,0.6-0.6,1.7-2.5,1.7l-1.9,0l-0.5,3.5c1.1,0.3,2.3,0.4,3.6,0.4c2.2,0,3.9-1,4.8-2.8l6.7-16.3
				L85.9,79.8L85.9,79.8z"/>
			<g>
				<path class="st2" d="M49.4,88.3c1.3-0.8,2.1-2.1,2.1-3.6c0-2.3-2-4.9-6.4-4.9h-5.1c-2,0-3,1.2-3.1,2.7v16.2h9.2
					c6.3,0,6.8-4.3,6.8-5.7C53,90.8,51.6,89.1,49.4,88.3z M42.1,83.7c0.4,0,2.1,0,2.1,0c1.5,0,2.1,0.9,2.1,1.7
					c0,0.8-0.5,1.7-2.1,1.7c0,0-1.7,0-2.1,0V83.7z M44.4,94.9c0,0-1.9,0-2.3,0V91c0.4,0,2.9,0,2.9,0c1.2,0,2.5,0.5,2.5,1.8
					C47.6,94.1,47.1,94.9,44.4,94.9z"/>
				<path class="st2" d="M115.8,79.9h-3.5c-1.7,0-2.4,0.7-3,2.1l-6.8,16.8h5.4c0,0,1.3-3.3,1.4-3.6h7.9c0.1,0.3,1.5,3.6,1.5,3.6h5.5
					L115.8,79.9z M110.7,91.4c0.2-0.6,2-5.2,2.3-6.2c0.4,1,2.3,5.6,2.6,6.2H110.7z"/>
				<path class="st2" d="M70.8,83.9l0.5-3.8L71,80c-0.6-0.1-1.2-0.2-1.7-0.2c-2.2,0-3.9,1-4.8,2.8l-1.2,2.5
					c-0.6,1.4-1.4,1.9-2.6,1.9c0,0-0.7,0-1.1,0c0-0.5,0-7.2,0-7.2h-2c-2.1,0-3.1,1.3-3.1,2.9v16h5.1c0,0,0-7.3,0-7.8
					c0.3,0,0.8,0,0.8,0c1.7,0,3,1.2,4.1,3.6l2,4.2h5.7l-2.6-5.2c-1.1-2.2-2.3-3.7-3.6-4.4c0.6-0.5,1.2-1.5,1.7-2.5l0.7-1.5
					c0.5-1.1,1.4-1.2,2.3-1.2L70.8,83.9L70.8,83.9z"/>
				<path class="st2" d="M102.2,96.4c0.5-1.3,0.8-2.8,0.8-2.8c-1.4,0.5-3,1.3-5.4,1.2c-3.6,0-5.4-2.5-5.4-5.5c0-2.9,1.9-5.6,5.3-5.6
					c1.9,0,3.5,0.5,5.5,1.7l0.2,0.1v-4.7c-2.2-0.9-3.9-1.3-5.7-1.3c-2.9,0-5.5,1-7.4,2.8c-1.9,1.8-2.9,4.4-2.9,7.1
					c0,2.2,0.9,4.5,2.4,6.2c1.3,1.5,3.7,3.2,7.7,3.2c0.8,0,1.5,0,2.2-0.2C101,98.5,101.8,97.6,102.2,96.4z"/>
			</g>
		</g>
	</g>
</g>
</svg>
