<?xml version="1.0" encoding="utf-8"?>
<!-- Generator: Adobe Illustrator 24.0.1, SVG Export Plug-In . SVG Version: 6.00 Build 0)  -->
<svg version="1.1" id="Layer_1" xmlns="http://www.w3.org/2000/svg" xmlns:xlink="http://www.w3.org/1999/xlink" x="0px" y="0px"
	 viewBox="0 0 160 100" style="enable-background:new 0 0 160 100;" xml:space="preserve">
<style type="text/css">
	.st0{fill:#B33C28;}
	.st1{fill:#B03E27;}
	.st2{fill:#FFFFFF;}
	.st3{fill:#B14327;}
	.st4{fill:#FFF7F3;}
	.st5{fill:#E5F4F8;}
	.st6{fill:#F2F3F7;}
	.st7{fill:#FDEFEE;}
	.st8{fill:#B33B28;}
</style>
<g>
	<polygon class="st0" points="105.2,18.4 105.2,13.3 103.8,10 101.4,7.5 99,5.3 94.9,4.1 90.4,3.6 86.5,4.6 83.5,6.9 80.1,10.4 
		78.5,13.8 78.8,16 79.3,18.4 79.2,21.1 79.1,24.1 78.8,25.9 78.5,27.5 77.8,29.4 77.8,31.7 78.1,34.8 79.1,36.7 80.9,38.5 82.4,40 
		85.6,40.6 87.2,39.5 89.2,39.1 90.5,38.5 91.7,37.5 93,36.7 94.8,34.8 96.1,33.5 97.3,31.5 98.5,29.9 99.3,29.9 100.7,30 
		102.3,29.6 103.3,27.5 104.1,25.2 105.2,22.5 105.2,19.9 	"/>
	<g>
		<path class="st1" d="M63.8,49.1l5.2-1.2l4.2-4.1l2.1-1l1.9-1.9L77,38.5l-1-4.9c0,0,0.3-7.2,0.3-7.4c0-0.3,0.4-8.4,0.4-8.4l0.9-5.3
			l1.1-2.4l1.8-2.7l-4.4-3.7l-2.6-1.1l-5.2-1.2L61.8,1l-7,0.3L48,2.6l-7.3,4l-3.2,2.2l-3.6,3.5l-2.5,4.4l-1.1,4.4v9.3l0.8,4.7l3.5,5
			l3.6,2.9l3,2.2l3.4,1.5L63.8,49.1z"/>
		<polygon class="st2" points="98.2,27.5 98.5,28.1 99.3,28.6 100.5,28.5 101.4,27.5 102,26.1 102,25 102.1,24.1 102.3,23 
			102.3,21.8 101.3,21.2 99.9,21.4 99,22.2 98.4,23.8 97.8,25.2 97.8,26.2 		"/>
		<polygon class="st2" points="102.8,17.8 102.4,16.6 101.8,14.9 100.4,13.1 98.8,11.9 96.8,10.9 94.6,10.2 92.1,9.6 89.7,9.6 
			87.9,9.6 86.1,9.6 83.6,9.8 81.6,11.3 81.2,12.6 83.3,12.3 85.1,11.7 86.6,11.4 88.3,11.2 90.3,11.3 92.5,11.8 94.3,12.6 
			95.8,13.4 97.5,14.6 98.7,15.6 100,16.5 100.6,17 101.2,17.3 101.6,17.4 102.1,17.6 		"/>
		<polygon class="st2" points="102.3,12.3 101.9,11 100.8,9.6 99.1,8 97,6.9 93.3,6.2 90.6,6 87.7,6.3 85.1,7.9 88.6,7.9 90.5,7.9 
			92.5,7.9 94.9,8.3 97,9 99.5,10.3 101,11.5 101.5,11.9 		"/>
		<path class="st2" d="M81.5,32.5L81.1,32l-0.3-1.3l0.6-0.8l0.5-1l0.9-0.8l1.1-0.3l1.1,0.1l1,0.6c0,0,0.3,0.6,0.4,0.7
			c0.1,0.1,0.7,0.6,0.7,0.6l0.3,0.5l0.1,0.7l-0.2,1.3l-0.7,0.5l-1,0c0,0-0.4-0.1-0.8-0.2c-0.3-0.1-0.9-0.5-0.9-0.5l-0.9,0L82,32.7
			L81.5,32.5z"/>
		<path class="st2" d="M88.6,28.8l1.4,0.5l2.1-0.2l1.7-1.6l1.2-2.9v-3.4v-3.4l-0.8-2.1l-2.4-0.6l-3.3-0.3l-3.9,0.2l-3.1,0.4
			l-1.1,1.7v2.5c0,0.2,0,2.6,0,2.6l0,1.7l0.2,1.4l0.6,0.9l0.8,0l0.9-0.5l1.2-1l1.2,0.2l1.1,0.7l0.7,1.7L88.6,28.8z"/>
		<polygon class="st3" points="89.9,20.1 88.3,20.2 87,20 86.3,19.8 85.8,19.3 86.3,18.6 88,18.4 89.2,18.4 90.4,18.8 90.8,19.1 
			90.4,19.8 		"/>
		<polygon class="st3" points="84.1,20 82.8,20.3 81.5,20.6 80.8,20.6 79.8,20.3 79.4,19.2 80.2,18.9 81.2,18.6 82.8,18.7 
			84.1,19.1 		"/>
		<polygon class="st0" points="101.9,29.6 99.6,33.7 99,36.1 99,38.5 99.6,39.9 100.8,39.5 102.9,38.7 104.9,38.6 106.1,39.6 
			106.5,41.9 106.5,44.3 106.1,45.9 105.5,47.8 104.4,50 102.8,52.2 98.8,56.4 93,61.1 92.7,62.7 91.2,63.8 87.9,64.3 85.5,67.2 
			84.7,69.4 83,71.5 80,71.8 77.1,71.4 75,68.7 72.4,65.2 69.1,61.9 65.3,58.3 62.5,55.3 60.6,52.1 61,49.7 62.6,48.3 63.6,49.6 
			63.8,51.7 65.3,54 67.3,55.8 69.1,56.8 71.3,56.8 72.2,55.6 72.1,52.8 72.7,49 74.2,46.3 77.6,42.5 78.9,42.3 78.8,44.4 
			79.3,46.6 81.7,46.1 84.3,45.1 85.1,42.3 85.1,40.5 88.4,38.3 93.3,35.8 95.9,33 98.3,30 		"/>
		<path class="st2" d="M95,35.4l-1.1,1.5l-0.5,3.4v2.8c0,0,0.1,1.3,0.2,1.3h1l1.3-1.1l1.5-1.7l0.7-2v-2.8l-0.2-2.1l0.6-1l0.9-2.6
			l-2.4,1.6l-1,1.6L95,35.4z"/>
		<polygon class="st2" points="86.7,40.9 86.1,42.8 86.1,46.1 86.7,49.2 87.8,50 89.3,49.7 91,47.9 92.1,46.1 92.3,43.8 92.2,41.2 
			92.2,38.9 91.5,38.5 90,38.5 		"/>
		<polygon class="st2" points="95.1,46.6 96.9,44.2 99.1,41.7 101.2,40.3 103,40.3 104.7,41.3 105.2,44.4 103.7,47.1 101.2,50 
			99.5,50.5 97.6,49.1 		"/>
		<polygon class="st2" points="94.4,49.1 92,49.1 89.6,50.8 88.1,52.2 85.9,51.7 83.9,50.5 82.9,49.1 81.3,48.3 79.6,49.4 
			79.3,52.9 79.8,55.5 81.2,57.2 84.1,58.7 88.5,59.1 93,58.5 96.3,56.1 97.8,53 97,50.5 		"/>
		<path class="st1" d="M92.9,61.4l3.7,1.2l2.7,2.3l2.3,3.8l0.2,3.1l-0.4,2.7H60.2l-8.6-13.4l-1.6-5l-3.4-5.4l-2.4-3.4v-2.9l0.3-2.7
			l0.4-2.8c0,0,0.6-0.7,0.7-0.7s0.7-0.1,0.7-0.1l0.8-0.6l0.8-1.6l2.2-0.4l0.6-1.6l1.2-1.4h1.9l2.8,3.1l1.1-1.3l1.8-0.6l1.9,0.8
			l2.4,4l-0.3,8.5l-2.1,4.6l5.5,7l12.4,6.6L92.9,61.4z"/>
		<path class="st4" d="M98.7,73.7c0,0,0-3,0-3.1c0-0.1-1.3-3.5-1.3-3.5L94,63.6L91,63.2c0,0-3.1,0.7-3.3,0.8c-0.2,0.1-2.4,2-2.4,2
			l3.3,1.6l3,1.5l1.6,2.6l0.7,2.1L98.7,73.7L98.7,73.7z"/>
		<polygon class="st4" points="90.4,73.7 88.9,70.7 86.6,68.6 84.1,67.9 82.6,69.1 82.3,71 81.4,71.4 79.2,71.2 77.5,71.6 
			76.5,72.4 75.7,73.7 		"/>
		<path class="st4" d="M74.4,72.8l1.8-2.5L74.4,68l-9.1-8.9l-3.7-4.7L60,50.5l0.6-2.2l1-2l0.4-5.5l-0.2-2.2L60.6,36l-1.4-0.8
			l-1.9,0.3v2.2l1.4,0.7l0.8,1.7l-1.3,0.5l-1.6-1.6l-0.9-2.3L54,36.3l-0.8,0.9L53,39.3l-1.3,1h-1.3l-0.6,1.3l0.2,1.3l-1.4,0.7
			L48,44.2v1.4l-1.2,0.6v0.9l1.9,3.3l3.5,4l1.2,3.5l2.4,4l1.6,2.6l3,4.3c0,0,2.5,2.8,2.6,2.9c0.2,0.1,0.4,2.1,0.4,2.1H74L74.4,72.8z
			"/>
		<polygon class="st5" points="47.6,41.7 47.3,40 47.3,39.2 47.6,38.9 48.2,39.6 48.7,41.3 48.4,42.2 		"/>
		<path class="st5" d="M49.9,39.4l-0.4-1.1l-0.1-0.7l0.1-0.8l0.6-0.3c0,0,0.3,1.5,0.4,1.6c0.1,0.1,0.2,1.2,0.2,1.2L49.9,39.4z"/>
		<path class="st5" d="M52.3,36.7l-0.5-1.9c0,0,0.1-1,0.1-1c0,0,0.6-0.1,0.6-0.1l0.5,1l0.3,1.3L52.3,36.7z"/>
		<polygon class="st5" points="46.1,44.1 45.7,41.4 46.2,41.2 46.5,43 		"/>
		<path class="st2" d="M43.7,41.2l1.6-3.3l0.8-0.6l1.2-1.6l2.1-1.3l1.7-1.9l2.2-0.5l1.8,0.5l0.5,1.1l0.9,0.9l0.9-1.3l1.4-0.7h1.3
			l0.4,0.5l0.9-0.5l0.3-2.1v-9.9l-1.5-5.4l-2.5-3.9l-3.9-3.7l-5.2-3.1l-5-1.4l-4.2,0.7l0.4,2l3.2-0.2c0,0,3.2,0.4,3.4,0.2
			c0.2-0.1,1.8,0.6,2.1,0.6c0.3,0.1,2,1.3,2,1.3l1.5,2.1l-2.8-0.1c0,0-3,0.2-3.2,0.2c-0.3,0-3.6,1-3.6,1l-3.1,2.6l-1.1,2l-1.6,4.9
			l-0.5,6c0,0,0.3,6.2,0.3,6.3c0,0.1,2.5,5.4,2.5,5.4l3,2.6L43.7,41.2z"/>
		<path class="st1" d="M43.7,28.1l1-1.2v-1.7l1-0.8l0.4,1.4l1.2,0.4c0,0,1.6,0.3,2.1,0c0.5-0.3,0.6-1.8,0.6-1.8l-1.4-2.2l-1.9-0.2
			h-2.6L43.7,23l-0.8,0.7l-1.3,0.1c0,0,0.1,1.7,0,2.1c-0.1,0.4,0.4,2.3,0.4,2.3H43.7z"/>
		<path class="st6" d="M72.7,12.8l-1.4-3.3c0,0-2.6-2-2.8-2.2c-0.2-0.2-3.1-1.7-3.1-1.7l-3.3-0.3l-3,0.1l2,0.7l1.6,0.7l1.7,0.9
			l2.1,0.9l2.1,1.7l1.1,1.4l1.1,0.6L72.7,12.8z"/>
		<polygon class="st7" points="66.8,21.5 69.4,21.8 69.1,33.7 66,34.6 66,33.7 67.7,32.9 67.7,24.9 66.8,23.6 		"/>
		<rect x="33.3" y="25.4" class="st7" width="1" height="7.2"/>
	</g>
	<g>
		<path class="st8" d="M129.7,39.2h-17.2l0,2.5h-5.2l0-13.8c0-5.6,3.8-5.1,11.3-5.1c7.5,0,11.2-0.5,11.2,5.4L129.7,39.2z
			 M125.4,33.2l0-2.9c0-1.3-2.7-1.6-3.3-1.6c-0.6,0-5.7,0-6.3,0c-1,0.1-3.4,0.3-3.4,1.6l0,2.9L125.4,33.2z"/>
		<path class="st8" d="M107.3,48l17.4-4.9c0.4-0.1,0.6-0.4,0.7-0.8l0,0c0-0.5,0.4-0.9,0.9-0.9l3.4,0v8.1l-4.8,0v6l4.9,0V62h-4.5
			l0-0.9c0-0.3-0.2-0.5-0.5-0.6l-11.6-3.4c-0.1,0-0.2,0-0.2,0l-5.2,0c-0.3,0-0.5-0.2-0.5-0.5L107.3,48L107.3,48z M121.1,54.1l0-3
			h-5.7c-0.1,0-0.2,0.1-0.2,0.2v2.5c0,0.1,0.1,0.2,0.2,0.2L121.1,54.1z"/>
		<polygon class="st8" points="107.3,81.1 113.9,81.1 113.9,85.5 111.7,85.5 111.7,87 125.4,87 125.4,84 129.7,84 129.7,96 
			125.4,96 125.4,92.9 111.7,92.9 111.7,94.5 113.9,94.5 113.9,99 107.3,99 		"/>
		<path class="st8" d="M129.7,79.5h-18.5c-0.4,0-0.7,0.3-0.6,0.7v0.9l-3.3,0l0-10.4c0.1-2.4,0-4.6,1.1-5.9c0.9-1.1,1.6-1.4,5.4-1.4
			c2.9,0.1,3.9,0.1,4,4c0.6-2,3-2.1,5.4-2.2c1.7-0.1,2.1-3.1,2.1-3.1h4.5v6.9c-0.7,0.9-3,1.7-4.7,1.7l-1.1,0h-2
			c-1.7,0-2.5,0.2-2.6,1.3l-0.1,1.6h10.5L129.7,79.5L129.7,79.5z M114.7,73.5l0-1.4c0-2.3,0.1-2.9-1.2-2.9c-1.6,0-1.8,0-1.8,2.2
			l0,2.2L114.7,73.5L114.7,73.5z"/>
		<path class="st8" d="M87.8,99V80.5c0-0.4-0.3-0.7-0.7-0.7l-0.5,0l0-3.3l10,0c2.4,0.1,4.6,0,5.9,1.1c1.1,0.9,1.4,1.6,1.4,5.4
			c-0.1,2.9-0.1,3.9-4,4c2,0.6,2.1,3,2.2,5.4c0.1,1.7,3.1,2.1,3.1,2.1V99h-6.9c-0.9-0.7-1.7-3-1.7-4.7l0-1.1v-2
			c0-1.7-0.2-2.5-1.3-2.6l-1.6,0V99L87.8,99L87.8,99z M93.8,84l1.4,0c2.3,0,2.9,0.1,2.9-1.2c0-1.6,0-1.8-2.2-1.8l-2.2,0V84L93.8,84z
			"/>
		<path class="st8" d="M107.3,4.6l6,0l0,3.9c0,0.2-0.1,0.3-0.3,0.3l-0.7,0c-0.3,0-0.5,0.2-0.5,0.5l0,4.1c0,0.4,0.3,0.7,0.7,0.7
			l1.6,0c0.4,0,0.7-0.3,0.7-0.7l0-4.5l4.5,0l0,4.5c0,0.4,0.3,0.7,0.7,0.7h4.6c0.4,0,0.7-0.3,0.7-0.7l0-2.9c0-0.8-0.5-1.4-1.2-1.7
			l-1-0.4c-0.3-0.1-0.4-0.4-0.5-0.6l0-2.4c0-0.4,0.3-0.7,0.7-0.7h6.4v14.3h-18.3c-0.2,0-0.4,0.2-0.4,0.4l0,1.7l-3.7,0L107.3,4.6
			L107.3,4.6z"/>
		<path class="st8" d="M86.7,76.5l0,6l-3.9,0c-0.2,0-0.3-0.1-0.3-0.3l0-0.7c0-0.3-0.2-0.5-0.5-0.5l-4.1,0c-0.4,0-0.7,0.3-0.7,0.7
			l0,1.6c0,0.4,0.3,0.7,0.7,0.7l4.5,0l0,4.5l-4.5,0c-0.4,0-0.7,0.3-0.7,0.7v4.6c0,0.4,0.3,0.7,0.7,0.7l2.9,0c0.8,0,1.4-0.5,1.7-1.2
			l0.4-1c0.1-0.3,0.4-0.4,0.6-0.4l2.4,0c0.4,0,0.7,0.3,0.7,0.7V99H72.4V80.7c0-0.2-0.2-0.4-0.4-0.4l-1.7,0l0-3.7L86.7,76.5
			L86.7,76.5z"/>
		<path class="st8" d="M70.3,76.5l0,6l-3.3,0c-0.2,0-0.3-0.1-0.3-0.3l0-0.7c0-0.3-0.2-0.5-0.5-0.5l-4.1,0c-0.4,0-0.7,0.3-0.7,0.7
			l0,1.6c0,0.4,0.3,0.7,0.7,0.7l4.5,0l0,4.5l-4.5,0c-0.4,0-0.7,0.3-0.7,0.7v4.6c0,0.4,0.3,0.7,0.7,0.7l2.9,0c0.8,0,1.4-0.5,1.7-1.2
			l0.4-1c0.1-0.3,0.4-0.4,0.6-0.4l2.4,0c0.4,0,0.7,0.3,0.7,0.7V99H56.7V80.7c0-0.2-0.2-0.4-0.4-0.4l-0.5,0c-0.3,0-0.5-0.3-0.5-0.6
			v-3.1L70.3,76.5z"/>
		<path class="st8" d="M39.7,99V82.2c0-0.6-0.5-1.2-1.2-1.2c-1,0-1.7-0.8-1.7-1.7v-2.4c0-0.2,0.2-0.4,0.4-0.4l13,0
			c4.7,0,3.9,3.6,3.9,4.9c0.1,3,0,4.8-2.8,4.8c2.5-0.1,3.2,1.8,3.3,6c0.2,6.8-0.1,6.8-4.7,6.8L39.7,99L39.7,99z M44.5,83.5
			c0,0.3,0.2,0.5,0.6,0.5l1.9,0c1.4,0,1.5,0.1,1.5-1.5c0-1-0.5-1.6-1.6-1.5H45c-0.3,0-0.6,0.2-0.6,0.6L44.5,83.5z M44.5,93.9
			c0,0.3,0.2,0.6,0.6,0.6h1.9c0.9,0,1.6,0,1.6-3.1c0-3.4,0.2-4.1-2.1-4.1H45c-0.3,0-0.5,0.2-0.5,0.6C44.5,87.9,44.5,93.9,44.5,93.9z
			"/>
	</g>
</g>
</svg>
