<?xml version="1.0" encoding="utf-8"?>
<!-- Generator: Adobe Illustrator 24.0.1, SVG Export Plug-In . SVG Version: 6.00 Build 0)  -->
<svg version="1.1" id="Layer_1" xmlns="http://www.w3.org/2000/svg" xmlns:xlink="http://www.w3.org/1999/xlink" x="0px" y="0px"
	 viewBox="0 0 160 100" style="enable-background:new 0 0 160 100;" xml:space="preserve">
<style type="text/css">
	.st0{fill:#005499;}
	.st1{fill:#DA2128;}
</style>
<g>
	<path class="st0" d="M105.9,71.6v-9.8H92.5l-0.1,1.1c0,0-0.1,1.2-0.4,4c-0.2,2.1-1.3,4.1-1.7,4.8h-2.1v5.2h2.4v-2.8h15l0,2.8l2.4,0
		l0.1-5.2L105.9,71.6L105.9,71.6z M95.3,67c0.1-1.3,0.3-2.8,0.3-3.4h6.5v8H94C94.5,70.4,95.1,68.8,95.3,67z M113.7,63.6v2.6h7.1v2.4
		h-7.1v2.9h11.6v2.4h-15.1V61.2h15.6v2.4L113.7,63.6L113.7,63.6z M131.2,73.5h-3.4V61.4h11.1c2.7,0,4.9,1.8,4.9,4.1
		c0,2.3-2.2,4.1-4.9,4.1h-7.7V73.5z M131.2,67.5h6.9c1.5,0,2.8-0.9,2.8-2c0-1.1-1.3-2-2.8-2h-6.9V67.5z M44.1,74.6l-1-4.3
		c0,0,3.5-0.9,4.6-3.6c1.1-2.8,1.5-9.8,1.6-12.7l0-2.2h16.6v21.4h-4.4V54.8h-7.8c-0.2,3.5-0.6,10.5-1.9,13.6
		C49.8,73.2,44.3,74.5,44.1,74.6z M72.5,73.8h-4.3v-12h4v8.3l9.8-8.6l4.1,0.1v12h-3.7v-8.3L72.5,73.8z"/>
	<g>
		<path class="st1" d="M154.4,59l-1.4,0l3.8-7.3h-4.5v-1.2h5.4c-1.4-2.1-3.9-3.5-6.6-3.5c-4.4,0-8,3.6-8,8c0,2.9,1.5,5.4,3.8,6.8
			l2.5-2.8c-0.4,0.1-0.7,0.2-1.1,0.2c-1.2,0-2.1-0.4-2.8-1.1c-0.7-0.8-1.1-1.7-1.1-2.9c0-1.2,0.4-2.2,1.2-3c0.8-0.8,1.8-1.2,3-1.2
			c0.9,0,1.7,0.2,2.3,0.6c0.7,0.4,1.1,1,1.4,1.6c0.3,0.6,0.4,1.3,0.4,1.9c0,0.9-0.3,2.2-1,3.1l-3.8,4.2c0.9,0.4,1.9,0.6,3,0.6
			c4.4,0,8-3.6,8-8c0-1.1-0.2-2.2-0.6-3.1L154.4,59z"/>
		<path class="st1" d="M148.6,52.1c-0.8,0-1.5,0.3-2,0.8c-0.5,0.6-0.8,1.2-0.8,2.1c0,0.8,0.3,1.5,0.8,2c0.5,0.5,1.2,0.8,2,0.8
			c0.8,0,1.5-0.3,2-0.8c0.5-0.5,0.8-1.2,0.8-2c0-0.8-0.3-1.5-0.8-2.1C150.1,52.3,149.4,52.1,148.6,52.1z"/>
	</g>
	<path class="st0" d="M41.2,72.4c0,0-1.7-0.1-4.2-0.4l0.5-12.3c0.5,0,1-0.1,1.5-0.1l-0.3-0.8c-2.3-0.2-4.9-0.6-7.5-1.2l3-11.7
		c0.3,0,0.6,0.1,0.9,0.1l0.4-0.7c-1.9-0.4-3.9-0.6-5.9-0.6l3.4-8.4c0.1-0.2,0.1-0.4,0-0.6c0,0-0.2-0.4-0.6-0.4c-0.4,0-2.9-0.1-4.1,0
		c-0.1,0-1.4-0.4-2.6-1.2l4.5-9.9c0,0,0.3-0.6-0.2-0.9c-0.5-0.3-0.8,0.3-0.8,0.3l-2.6,5.4c-1.4-0.5-2.5-0.1-2.5-0.1
		s-1.8,0.2-2.2,1.6c-0.3,1,0.2,1.9,1.1,2.7c-1,0.1-3.8,0.5-4.4,2.6c-0.2,0.8-0.3,1.5-0.1,2.2c-3.4,2.1-5.3,5.1-4.8,8.4
		c0.1,0.4,0.2,0.8,0.3,1.3c-3.3,1.8-5.4,4.2-5.8,7.2c-0.2,1.3,0,2.7,0.4,4L1.1,72.5c-0.2,0.3-0.1,0.7,0.2,0.9
		c0.1,0.1,0.3,0.2,0.5,0.2c0.2,0,0.3,0,0.4-0.1l5.2-3.8L6,72.5c-0.2,0.3-0.1,0.7,0.2,0.9c0.1,0.1,0.3,0.2,0.5,0.2
		c0.2,0,0.3-0.1,0.5-0.2c0.1-0.1,3.3-2.5,8.1-5.4c0.8,0.6,1.7,1.2,2.6,1.8l-1.1,2.7c-0.2,0.4,0,0.8,0.4,1c0.1,0,0.2,0.1,0.3,0.1
		c0.3,0,0.6-0.2,0.7-0.5l1-2.5c2.5,1.3,5.2,2.2,8.1,2.6l0.1-0.6l0.3-1.1c6.4,2.4,12.5,2.9,12.9,2.9c0,0,0.6-0.1,0.7-0.1
		c0.4,0,0.7-0.3,0.7-0.7C42,73.1,41.7,72.4,41.2,72.4z M35.3,59.2c-1.6,0.2-3.2,0.5-4.7,0.8l0.4-1.6C32.4,58.8,33.9,59,35.3,59.2z
		 M32.7,45.8l-2.9,11.4c-1.6-0.5-3.1-1.1-4.5-1.7l3.9-9.7C30.4,45.7,31.6,45.7,32.7,45.8z M21.9,42.7c1.1,0.8,2.2,1.5,3.1,2.1
		c-1.5,0.1-3,0.3-4.4,0.6L21.9,42.7z M21.1,39.4c0.3-0.2,0.6-0.4,1-0.6l-0.6,1.3C21.3,39.9,21.2,39.6,21.1,39.4z M27.6,45.9L24,54.7
		c-2.3-1.3-4.2-3-5.3-5.1l0.9-1.9C21.9,46.8,24.7,46.1,27.6,45.9z M24.8,56.6c1.5,0.6,3.1,1.1,4.7,1.5l-0.6,2.4
		c-2.3,0.6-4.5,1.4-6.6,2.2L24.8,56.6z M31.3,36.6l-3.2,8c-0.6,0-1.2,0-1.8,0c-1-0.6-2.6-1.7-3.9-3.2l1.6-3.5
		C26.1,37.1,28.6,36.7,31.3,36.6z M26.8,35.4c-0.6,0.1-1.2,0.2-1.8,0.3l0.4-0.9C25.9,35.1,26.4,35.3,26.8,35.4z M23.5,30.7
		c0.3-1.2,1.9-1.2,1.9-1.2s0.4,0,1,0.2l-1.8,3.7C23.8,32.6,23.3,31.8,23.5,30.7z M20.8,36c0.5-1.9,2.3-2.2,2.9-2.2
		c0.2,0.1,0.4,0.3,0.6,0.4l-0.9,1.9c-1,0.3-1.9,0.6-2.8,0.9C20.7,36.7,20.7,36.4,20.8,36z M19.7,40.5c0.3,0.4,0.6,0.8,1,1.1l-2,4.2
		c-0.4,0.1-0.8,0.2-1.1,0.3C17.4,43.9,18.2,42,19.7,40.5z M15.4,50.4c0.2,0.3,0.5,0.6,0.8,0.9l-0.5,1l-1.4-0.8
		C14.6,51.1,15,50.7,15.4,50.4z M13.5,52.8l0.9,0.5L12.9,54C13.1,53.5,13.3,53.1,13.5,52.8z M12.6,55.8l1.9-0.9l-1.7,3.7
		C12.5,57.7,12.5,56.7,12.6,55.8z M9.2,60.7c0.2,0.5,0.5,0.9,0.7,1.4l-1.8,0.6L9.2,60.7z M4,70.3l3-5.4l1.5,2.2L4,70.3z M8.3,64.2
		l2-0.7l-1,2.1L8.3,64.2z M9.6,69.6l2.2-4.8c0.6,0.7,1.3,1.4,2.1,2.1C12.2,67.8,10.7,68.7,9.6,69.6z M13.4,61.1l3.9-8.6
		c1.6,1.4,3.7,2.6,6,3.6l-3,7.5c-1.4,0.6-2.8,1.3-4.1,2C15.1,64.1,14.1,62.7,13.4,61.1z M18.7,67.7c-0.4-0.3-0.8-0.6-1.2-1
		c0.4-0.2,0.7-0.4,1.1-0.6c0.2,0.2,0.3,0.3,0.5,0.5L18.7,67.7z M26,71.8c-2.2-0.9-4.3-1.9-6.1-3.2l0.4-1c1.8,1.4,3.8,2.5,5.9,3.3
		L26,71.8z M26.7,69.3c-2-0.8-4-1.9-5.7-3.2l0.6-1.5c2.2-1.1,4.6-2.1,7.1-2.9L26.7,69.3z M30.3,61.2c2-0.6,4-1.1,6-1.3l-0.7,11.9
		c-2.2-0.4-4.9-1-7.5-1.9L30.3,61.2z"/>
	<circle class="st1" cx="31.7" cy="29.9" r="2.7"/>
</g>
</svg>
