<?xml version="1.0" encoding="utf-8"?>
<!-- Generator: Adobe Illustrator 24.0.1, SVG Export Plug-In . SVG Version: 6.00 Build 0)  -->
<svg version="1.1" id="Layer_1" xmlns="http://www.w3.org/2000/svg" xmlns:xlink="http://www.w3.org/1999/xlink" x="0px" y="0px"
	 viewBox="0 0 160 100" style="enable-background:new 0 0 160 100;" xml:space="preserve">
<style type="text/css">
	.st0{fill:#231F20;}
	.st1{fill:#666666;}
	.st2{fill:#0062AA;}
</style>
<g>
	<g>
		<path class="st0" d="M78.5,33.5h-1.3c0-0.5,0.1-0.9,0.3-1.3c0.2-0.4,0.6-0.7,1.1-1c0.5-0.3,1.2-0.4,2-0.4c2.1,0,3.1,0.9,3.1,2.7
			l-0.1,3.6c0,0.3,0,0.4,0,0.6c0,0.1,0.1,0.2,0.2,0.3C84,38,84.2,38,84.4,38v1c-0.2,0-0.4,0.1-0.6,0.1c-0.4,0-0.7-0.1-1-0.2
			c-0.2-0.1-0.4-0.5-0.4-0.9c-0.3,0.6-0.7,0.9-1.3,1.1s-1,0.3-1.4,0.3c-1.2,0-1.9-0.3-2.3-0.8c-0.3-0.5-0.5-1-0.5-1.6
			c0-0.3,0-0.6,0.1-0.9c0.1-0.3,0.3-0.5,0.6-0.7c0.3-0.2,0.7-0.4,1.2-0.5c0.5-0.2,1.2-0.3,2-0.3c0.5,0,0.8-0.1,1-0.1
			c0.2,0,0.3-0.1,0.4-0.3c0.1-0.1,0.2-0.4,0.2-0.7c0-0.7-0.2-1.1-0.6-1.3c-0.4-0.2-0.8-0.3-1.2-0.3c-0.5,0-0.9,0.1-1.4,0.3
			C78.7,32.3,78.5,32.8,78.5,33.5z M82.3,35.6l0-0.7c-0.1,0.1-0.3,0.2-0.4,0.2s-0.3,0.1-0.6,0.1c-0.7,0.1-1.2,0.1-1.6,0.2
			c-0.4,0.1-0.7,0.2-1,0.5c-0.2,0.2-0.4,0.5-0.4,0.9c0,0.3,0.1,0.6,0.3,1c0.2,0.3,0.6,0.5,1.2,0.5c0.7,0,1.2-0.2,1.5-0.5
			c0.4-0.3,0.6-0.7,0.7-1.1C82.2,36.4,82.3,36,82.3,35.6z"/>
		<path class="st0" d="M86,31.1h3.8c1.7,0,2.5,0.6,2.5,1.9c0,0.5-0.1,0.9-0.4,1.2c-0.3,0.3-0.6,0.5-1,0.6v0c0.7,0.1,1.1,0.4,1.3,0.8
			c0.2,0.4,0.4,0.8,0.4,1.3c0,0.8-0.3,1.3-0.8,1.6c-0.5,0.3-1.2,0.4-2.1,0.4H86C86,39,86,31.1,86,31.1z M87.4,32.1v2.3h1.9
			c0.6,0,1-0.1,1.3-0.4c0.2-0.2,0.4-0.5,0.4-0.8c0-0.7-0.5-1.1-1.6-1.1C89.4,32.1,87.4,32.1,87.4,32.1z M87.4,35.4V38h2
			c1.2,0,1.8-0.4,1.8-1.2c0-1-0.6-1.5-1.8-1.5H87.4z"/>
		<path class="st0" d="M96.2,32.1h-2.7v-1h6.8v1h-2.7V39h-1.4L96.2,32.1L96.2,32.1z"/>
		<path class="st0" d="M101.2,35.1c0-0.9,0.2-1.6,0.5-2.3c0.3-0.6,0.8-1.1,1.3-1.5c0.6-0.3,1.3-0.5,2.1-0.5c0.6,0,1.1,0.1,1.6,0.3
			c0.5,0.2,0.9,0.5,1.2,0.8c0.3,0.4,0.6,0.8,0.8,1.3c0.2,0.5,0.3,1.1,0.3,1.8c0,0.7-0.1,1.2-0.3,1.8c-0.2,0.5-0.4,1-0.8,1.3
			c-0.3,0.4-0.7,0.7-1.2,0.8c-0.5,0.2-1,0.3-1.6,0.3c-0.6,0-1.1-0.1-1.6-0.3c-0.5-0.2-0.9-0.5-1.2-0.8c-0.3-0.4-0.6-0.8-0.8-1.3
			C101.3,36.3,101.2,35.7,101.2,35.1z M102.6,35.1c0,0.6,0.1,1.1,0.2,1.6c0.1,0.5,0.4,0.9,0.8,1.2c0.4,0.3,0.8,0.5,1.5,0.5
			c0.6,0,1.1-0.2,1.5-0.5c0.4-0.3,0.6-0.7,0.8-1.2c0.1-0.5,0.2-1,0.2-1.6c0-0.6-0.1-1.1-0.2-1.6c-0.1-0.5-0.4-0.9-0.8-1.2
			c-0.4-0.3-0.9-0.5-1.5-0.5c-0.9,0-1.5,0.3-1.9,1C102.8,33.4,102.6,34.2,102.6,35.1z"/>
	</g>
	<g>
		<path class="st0" d="M77.5,46.1h1.3l0,1.1h0c0.7-0.9,1.5-1.4,2.6-1.4c0.5,0,1,0.1,1.5,0.3c0.4,0.2,0.8,0.5,1.1,0.8
			c0.3,0.4,0.5,0.8,0.7,1.3c0.2,0.5,0.2,1.1,0.2,1.8c0,0.9-0.2,1.7-0.5,2.3c-0.3,0.6-0.7,1.1-1.2,1.4c-0.5,0.3-1.1,0.5-1.8,0.5
			c-0.5,0-1-0.1-1.5-0.4c-0.5-0.2-0.8-0.6-1.1-1.1v4h-1.4V46.1z M78.7,50.1c0,0.7,0.1,1.3,0.3,1.8c0.2,0.5,0.5,0.9,0.9,1.1
			c0.4,0.2,0.8,0.4,1.2,0.4c0.7,0,1.2-0.3,1.7-0.8c0.4-0.5,0.7-1.4,0.7-2.5c0-0.7-0.1-1.3-0.3-1.8c-0.2-0.5-0.5-0.9-0.8-1.1
			c-0.4-0.2-0.8-0.4-1.2-0.4c-0.6,0-1.2,0.2-1.6,0.7C79,48,78.7,48.9,78.7,50.1z"/>
		<path class="st0" d="M92.4,51.7h1.3c-0.1,0.4-0.2,0.8-0.5,1.2c-0.2,0.4-0.6,0.7-1.1,1c-0.5,0.3-1.1,0.4-1.9,0.4
			c-0.9,0-1.8-0.3-2.7-0.8c-0.9-0.5-1.3-1.7-1.3-3.4c0-0.9,0.1-1.6,0.4-2.3c0.3-0.6,0.7-1.1,1.3-1.5c0.6-0.3,1.3-0.5,2.1-0.5
			c0.9,0,1.6,0.2,2.2,0.6c0.5,0.4,0.9,0.9,1.1,1.6c0.2,0.7,0.3,1.5,0.4,2.4h-6.1c0,0.7,0.2,1.4,0.6,2c0.4,0.6,1,0.9,1.9,0.9
			c0.6,0,1.1-0.2,1.5-0.4C92.1,52.6,92.3,52.2,92.4,51.7z M87.7,49.4h4.6c0-0.7-0.2-1.3-0.5-1.8c-0.3-0.5-0.9-0.8-1.7-0.8
			c-0.6,0-1,0.1-1.4,0.4c-0.4,0.3-0.6,0.6-0.8,1C87.8,48.6,87.7,49,87.7,49.4z"/>
		<path class="st0" d="M99.6,54l-2.7-6.3h0l0,0.4V54h-1.4v-7.9h1.9l2.7,6.4l2.7-6.4h1.9V54h-1.4v-5.9l0-0.4h0l-2.7,6.3H99.6z"/>
		<path class="st0" d="M106.5,50.1c0-0.9,0.2-1.6,0.5-2.3c0.3-0.6,0.8-1.1,1.3-1.5s1.3-0.5,2.1-0.5c0.6,0,1.1,0.1,1.6,0.3
			c0.5,0.2,0.9,0.5,1.2,0.8c0.3,0.4,0.6,0.8,0.8,1.3c0.2,0.5,0.3,1.1,0.3,1.8c0,0.7-0.1,1.2-0.3,1.8c-0.2,0.5-0.4,1-0.8,1.3
			c-0.3,0.4-0.7,0.7-1.2,0.8c-0.5,0.2-1,0.3-1.6,0.3c-0.6,0-1.1-0.1-1.6-0.3c-0.5-0.2-0.9-0.5-1.2-0.8c-0.3-0.4-0.6-0.8-0.8-1.3
			C106.5,51.3,106.5,50.7,106.5,50.1z M107.9,50.1c0,0.6,0.1,1.1,0.2,1.6c0.1,0.5,0.4,0.9,0.8,1.2c0.4,0.3,0.8,0.5,1.5,0.5
			c0.6,0,1.1-0.2,1.5-0.5c0.4-0.3,0.6-0.7,0.8-1.2c0.1-0.5,0.2-1,0.2-1.6c0-0.6-0.1-1.1-0.2-1.6c-0.1-0.5-0.4-0.9-0.8-1.2
			c-0.4-0.3-0.9-0.5-1.5-0.5c-0.9,0-1.5,0.3-1.9,1C108.1,48.4,107.9,49.2,107.9,50.1z"/>
		<path class="st0" d="M117.3,50.3V54H116v-7.9h1.4v3.2h3.9v-3.2h1.4V54h-1.4v-3.7H117.3z"/>
		<path class="st0" d="M126.6,47.1h-2.7v-1h6.8v1H128V54h-1.4V47.1z"/>
		<path class="st0" d="M133.4,50.3V54H132v-7.9h1.4v3.2h3.9v-3.2h1.4V54h-1.4v-3.7H133.4z"/>
		<path class="st0" d="M140.9,46.1h1.4v3.1h2c0.4,0,0.7,0,1,0.1c0.3,0,0.6,0.1,1,0.3c0.3,0.1,0.6,0.4,0.8,0.7
			c0.2,0.3,0.3,0.8,0.3,1.3c0,0.9-0.3,1.5-0.8,1.9c-0.5,0.3-1.2,0.5-1.9,0.5h-3.8L140.9,46.1L140.9,46.1z M142.2,50.2V53h1.9
			c1.2,0,1.8-0.5,1.8-1.5c0-0.6-0.2-0.9-0.6-1.1c-0.4-0.2-0.9-0.2-1.5-0.2H142.2z M148.4,46.1h1.4V54h-1.4V46.1z"/>
		<path class="st0" d="M157.6,51.7h1.3c-0.1,0.4-0.2,0.8-0.5,1.2c-0.2,0.4-0.6,0.7-1.1,1c-0.5,0.3-1.1,0.4-1.9,0.4
			c-0.9,0-1.8-0.3-2.7-0.8c-0.9-0.5-1.3-1.7-1.3-3.4c0-0.9,0.1-1.6,0.4-2.3c0.3-0.6,0.7-1.1,1.3-1.5c0.6-0.3,1.3-0.5,2.1-0.5
			c0.9,0,1.6,0.2,2.2,0.6c0.5,0.4,0.9,0.9,1.1,1.6c0.2,0.7,0.3,1.5,0.4,2.4h-6.1c0,0.7,0.2,1.4,0.6,2c0.4,0.6,1,0.9,1.9,0.9
			c0.6,0,1.1-0.2,1.5-0.4C157.3,52.6,157.5,52.2,157.6,51.7z M152.9,49.4h4.6c0-0.7-0.2-1.3-0.5-1.8c-0.3-0.5-0.9-0.8-1.7-0.8
			c-0.6,0-1,0.1-1.4,0.4c-0.4,0.3-0.6,0.6-0.8,1C153,48.6,152.9,49,152.9,49.4z"/>
	</g>
	<g>
		<path class="st0" d="M83,66.1h1.3c-0.1,0.8-0.4,1.5-0.9,2.2c-0.5,0.6-1.4,1-2.5,1c-1.5,0-2.5-0.5-3-1.4c-0.5-0.9-0.8-1.9-0.8-3
			c0-0.6,0.1-1.3,0.3-1.9c0.2-0.6,0.6-1.2,1.1-1.6c0.6-0.4,1.3-0.7,2.3-0.7c1.1,0,1.9,0.3,2.5,0.8c0.6,0.5,0.9,1.2,1,2h-1.3
			c-0.1-0.5-0.3-0.9-0.6-1.3c-0.3-0.4-0.8-0.5-1.5-0.5c-0.6,0-1,0.2-1.4,0.4c-0.3,0.3-0.6,0.7-0.7,1.2c-0.1,0.5-0.2,1-0.2,1.6
			c0,0.6,0.1,1.1,0.2,1.6c0.2,0.5,0.4,0.9,0.8,1.2c0.4,0.3,0.8,0.5,1.4,0.5c0.7,0,1.2-0.2,1.6-0.7C82.8,67.1,83,66.6,83,66.1z"/>
		<path class="st0" d="M87,67.3l4.1-6.3h1.5v7.9h-1.4v-6.3l-4.1,6.3h-1.5V61H87L87,67.3L87,67.3z"/>
		<path class="st0" d="M100,66.1h1.3c-0.1,0.8-0.4,1.5-0.9,2.2c-0.5,0.6-1.4,1-2.5,1c-1.5,0-2.5-0.5-3-1.4c-0.5-0.9-0.8-1.9-0.8-3
			c0-0.6,0.1-1.3,0.3-1.9c0.2-0.6,0.6-1.2,1.1-1.6c0.6-0.4,1.3-0.7,2.3-0.7c1.1,0,1.9,0.3,2.5,0.8c0.6,0.5,0.9,1.2,1,2H100
			c-0.1-0.5-0.3-0.9-0.6-1.3c-0.3-0.4-0.8-0.5-1.5-0.5c-0.6,0-1,0.2-1.4,0.4c-0.3,0.3-0.6,0.7-0.7,1.2c-0.1,0.5-0.2,1-0.2,1.6
			c0,0.6,0.1,1.1,0.2,1.6c0.2,0.5,0.4,0.9,0.8,1.2c0.4,0.3,0.8,0.5,1.4,0.5c0.7,0,1.2-0.2,1.6-0.7C99.8,67.1,100,66.6,100,66.1z"/>
		<path class="st0" d="M104.5,61.9h-2.7v-1h6.8v1h-2.7v6.9h-1.4V61.9z"/>
		<path class="st0" d="M115.2,66.6h1.3c-0.1,0.4-0.2,0.8-0.5,1.2c-0.2,0.4-0.6,0.7-1.1,1c-0.5,0.3-1.1,0.4-1.9,0.4
			c-0.9,0-1.8-0.3-2.7-0.8c-0.9-0.5-1.3-1.7-1.3-3.4c0-0.9,0.1-1.6,0.4-2.3c0.3-0.6,0.7-1.1,1.3-1.5c0.6-0.3,1.3-0.5,2.1-0.5
			c0.9,0,1.6,0.2,2.2,0.6c0.5,0.4,0.9,0.9,1.1,1.6c0.2,0.7,0.3,1.5,0.4,2.4h-6.1c0,0.7,0.2,1.4,0.6,2c0.4,0.6,1,0.9,1.9,0.9
			c0.6,0,1.1-0.1,1.5-0.4C114.9,67.5,115.1,67.1,115.2,66.6z M110.5,64.3h4.6c0-0.7-0.2-1.3-0.5-1.8c-0.3-0.5-0.9-0.8-1.7-0.8
			c-0.6,0-1,0.1-1.4,0.4c-0.4,0.3-0.6,0.6-0.8,1C110.6,63.4,110.5,63.8,110.5,64.3z"/>
		<path class="st0" d="M122.1,68.9l-2.7-6.3h0l0,0.4v5.9H118V61h1.9l2.7,6.4l2.7-6.4h1.9v7.9h-1.4V63l0-0.4h0l-2.7,6.3H122.1z"/>
		<path class="st0" d="M129,61h1.4v3.1h2c0.4,0,0.7,0,1,0.1c0.3,0,0.6,0.1,1,0.3c0.3,0.1,0.6,0.4,0.8,0.7c0.2,0.3,0.3,0.8,0.3,1.3
			c0,0.9-0.3,1.5-0.8,1.9c-0.5,0.3-1.2,0.5-1.9,0.5H129L129,61L129,61z M130.4,65.1v2.8h1.9c1.2,0,1.8-0.5,1.8-1.5
			c0-0.6-0.2-0.9-0.6-1.1c-0.4-0.2-0.9-0.2-1.5-0.2H130.4z M136.5,61h1.4v7.9h-1.4V61z"/>
	</g>
	<path class="st1" d="M41.3,60.4c0,0,12.8,6.7,13.4-2.5c0.5-6.9-15.6-5.2-15.6-17.3c0-11.1,14.9-9.7,14.9-9.7l2.5,6.5
		c0,0-10-2.3-10,3.9c0,6.2,16.5,4.5,16.5,17c0,13.5-18.4,10.1-18.4,10.1L41.3,60.4z"/>
	<path class="st2" d="M22,46.7l8.5,21.9c0,0,6.3,0,9.2,0c-1-2-1.7-3.5-3.9-9.3c-2.2-5.9-8.2-7.1-9.2-7.1s-1.1,0.2-1.4-0.9
		c8.8,0,11.7-4.7,11.7-10.1S31.6,31,26.1,31s-10.2,0-10.2,0l2.6,6.6c0,0,3.6,0,5.5,0c1.9,0,4.9,0.9,4.9,4.4c0,3.5-2.8,4.7-4.7,4.7
		C22.3,46.7,22,46.7,22,46.7z"/>
	<polygon class="st1" points="24.8,68.6 10.2,31 6.5,43.3 10.3,53.3 3.1,53.3 1,59.6 12.8,59.6 16.3,68.6 	"/>
	<rect x="68.6" y="31.3" class="st1" width="1.7" height="37.7"/>
</g>
</svg>
