<?xml version="1.0" encoding="utf-8"?>
<!-- Generator: Adobe Illustrator 24.0.1, SVG Export Plug-In . SVG Version: 6.00 Build 0)  -->
<svg version="1.1" id="Layer_1" xmlns="http://www.w3.org/2000/svg" xmlns:xlink="http://www.w3.org/1999/xlink" x="0px" y="0px"
	 viewBox="0 0 160 100" style="enable-background:new 0 0 160 100;" xml:space="preserve">
<style type="text/css">
	.st0{fill:#015088;}
	.st1{fill:#FCB813;}
</style>
<g>
	<rect x="31" y="1" class="st0" width="98" height="98"/>
	<path class="st1" d="M45.9,71.1c5.9,0,6.7,3.6,6.7,5.2c0,2.3-1.8,4.2-3.6,4.8v0.4c1.4,0.3,3.6,1.2,3.6,5.1c0,3-1.1,6-6.1,6H36.4
		V71.1C36.4,71.1,45.9,71.1,45.9,71.1z M44.4,79.6c2.2,0,2.5-1.1,2.5-1.9c0-1-0.6-2-2.5-2h-2.3v3.8H44.4z M44.6,88c0.8,0,3,0,3-2.1
		c0-1.9-2.1-1.9-3-1.9h-2.5v4H44.6z M58.4,71.1h8.7l6.2,21.6h-6.2L66,89h-7l-1.1,3.7h-6.2L58.4,71.1z M60.1,83.3h4.7l-2.4-7.7
		L60.1,83.3z M71.8,84V71.1h5.7v12.7c0,1.3,0.2,4.3,3.2,4.3c3,0,3.3-3,3.3-4.3V71.1h5.7V84c0,2.3-0.5,9.3-8.9,9.3
		C72.2,93.3,71.8,86.3,71.8,84z M90.6,71.1h13.9v5.2H96v3h8.5v4.7H96v3.5h8.5v5.2H90.6V71.1z M105.7,71.1h9.6c7.2,0,7.4,5.5,7.4,6.5
		c0,4.1-3.4,5.1-5.4,5.8l6.4,9.3h-7.3l-4.6-8.5v8.5h-6V71.1L105.7,71.1z M114.4,80.5c2.8,0,3-1,3-2.1c0-1-0.2-2.1-3-2.1h-2.6v4.2
		L114.4,80.5L114.4,80.5z M77.9,3.4V67L58.6,55.4h9.1v-8.1c-0.6-0.3-1.6-0.6-2.9-0.6c-1.2,0-2.1,0.4-3,0.8c-0.8,0.4-1.6,0.7-2.4,0.7
		l-0.3,0c-0.1,0-0.1,0-0.2,0c-1.3,0-2-0.1-4-1.3c-1.4-0.8-4.9,0.2-6.5,0.9l0-3.4c1.4-0.6,5-1.8,7.9-0.2c1.6,0.9,1.9,0.9,2.7,0.9h0.4
		c0.2,0,0.7-0.2,1.1-0.4c1-0.5,2.4-1.1,4.3-1.1c1.1,0,2.1,0.2,2.9,0.4v-2.4c-0.6-0.3-1.6-0.6-2.9-0.6c-1.2,0-2.1,0.4-3,0.8
		c-0.8,0.4-1.6,0.7-2.4,0.7h-0.3c-0.1,0-0.1,0-0.2,0c-1.3,0-2-0.1-4-1.3c-1.4-0.8-4.9,0.2-6.5,0.9l0-3.4c1.4-0.6,5-1.8,7.9-0.2
		c1.6,0.9,1.9,0.9,2.7,0.9h0.4c0.2,0,0.7-0.2,1.1-0.4c1-0.5,2.4-1.1,4.3-1.1c1.1,0,2.1,0.2,2.9,0.4V3.4L77.9,3.4L77.9,3.4z
		 M79.3,3.4V67l19.3-11.7h-9.1v-8.1c0.6-0.3,1.6-0.6,2.9-0.6c1.2,0,2.1,0.4,3,0.8c0.8,0.4,1.6,0.7,2.4,0.7l0.3,0c0.1,0,0.1,0,0.2,0
		c1.3,0,2-0.1,4-1.3c1.4-0.8,4.9,0.2,6.5,0.9l0-3.4c-1.4-0.6-5-1.8-7.9-0.2c-1.6,0.9-1.9,0.9-2.7,0.9h-0.4c-0.2,0-0.7-0.2-1.1-0.4
		c-1-0.5-2.4-1.1-4.3-1.1c-1.1,0-2.1,0.2-2.9,0.4v-2.4C90,41.4,91,41,92.3,41c1.2,0,2.1,0.4,3,0.8c0.8,0.4,1.6,0.7,2.4,0.7H98
		c0.1,0,0.1,0,0.2,0c1.3,0,2-0.1,4-1.3c1.4-0.8,4.9,0.2,6.5,0.9l0-3.4c-1.4-0.6-5-1.8-7.9-0.2c-1.6,0.9-1.9,0.9-2.7,0.9h-0.4
		c-0.2,0-0.7-0.2-1.1-0.4c-1-0.5-2.4-1.1-4.3-1.1c-1.1,0-2.1,0.2-2.9,0.4V3.4L79.3,3.4L79.3,3.4z"/>
</g>
</svg>
