<?xml version="1.0" encoding="utf-8"?>
<!-- Generator: Adobe Illustrator 24.0.1, SVG Export Plug-In . SVG Version: 6.00 Build 0)  -->
<svg version="1.1" id="Layer_1" xmlns="http://www.w3.org/2000/svg" xmlns:xlink="http://www.w3.org/1999/xlink" x="0px" y="0px"
	 viewBox="0 0 160 100" style="enable-background:new 0 0 160 100;" xml:space="preserve">
<style type="text/css">
	.st0{fill:#1A8C44;}
	.st1{fill:#FFFFFF;}
	.st2{font-family:'ClarendonBT-Light';}
	.st3{font-size:12.6431px;}
	.st4{fill:#808080;}
	.st5{fill:#666666;}
</style>
<g>
	<path class="st0" d="M79,86.6c0,1.3-1.1,2.4-2.4,2.4H3.4C2.1,89,1,87.9,1,86.6V13.4C1,12.1,2.1,11,3.4,11h73.2
		c1.3,0,2.4,1.1,2.4,2.4L79,86.6L79,86.6z"/>
	<g>
		<text transform="matrix(1 0 0 1 21.7592 70.4646)" class="st1 st2 st3">K</text>
		<text transform="matrix(1 0 0 1 48.098 70.4646)" class="st1 st2 st3">K</text>
		<text transform="matrix(1 0 0 1 35.098 70.4646)" class="st1 st2 st3">&amp;</text>
		<path class="st1" d="M63.2,42.4c-0.1,0-0.2,0-0.3,0.1l-3.5-1.3l3.3-0.4c0.2,0.2,0.4,0.3,0.6,0.3c0.5,0,0.9-0.4,0.9-0.9
			c0-0.5-0.4-0.9-0.9-0.9c-0.3,0-0.6,0.1-0.7,0.4l-4.4,0.6l0.9-1.3c0.4-0.1,0.7-0.4,0.7-0.9c0-0.5-0.4-0.9-0.9-0.9
			c-0.5,0-0.9,0.4-0.9,0.9c0,0.1,0,0.3,0.1,0.4l-1.5,2.3c-2.6,0.6-8.7,2.1-11.5,3.2c-1.6,0.6-2.4,1.1-3.1,1.6l5.8-7.3l3.6-1.5
			c0.1,0.1,0.3,0.1,0.4,0.1c0.5,0,0.9-0.4,0.9-0.9c0-0.5-0.4-0.9-0.9-0.9c-0.4,0-0.7,0.3-0.8,0.6l-2.5,1c0,0,0,0,0,0l0.7-1.3
			c0,0,0,0,0-0.1c0.4-0.1,0.7-0.4,0.7-0.9c0-0.5-0.4-0.9-0.9-0.9c-0.5,0-0.9,0.4-0.9,0.9c0,0.1,0,0.2,0.1,0.3c0,0,0,0.1-0.1,0.1
			l-0.9,1.7l-0.5,0.6l-0.6-1.6c0.1-0.1,0.1-0.3,0.1-0.4c0-0.5-0.4-0.9-0.9-0.9s-0.9,0.4-0.9,0.9c0,0.4,0.3,0.7,0.6,0.8l0.8,2.1
			c0,0,0,0.1,0.1,0.1c0,0-5.5,6.7-5.5,6.7c-0.2,0-4.2-7.3-4.2-7.3l1.7-2.4c0,0,0,0,0,0c0.5,0,0.9-0.4,0.9-0.9c0-0.5-0.4-0.9-0.9-0.9
			c-0.5,0-0.9,0.4-0.9,0.9c0,0,0,0.1,0,0.1l-1.4,2L35,34.8c0-0.1,0.1-0.2,0.1-0.3c0-0.5-0.4-0.9-0.9-0.9c-0.5,0-0.9,0.4-0.9,0.9
			c0,0.4,0.3,0.8,0.7,0.9l0.6,1.3l-3-1c-0.1-0.4-0.4-0.7-0.9-0.7c-0.5,0-0.9,0.4-0.9,0.9c0,0.5,0.4,0.9,0.9,0.9c0.1,0,0.2,0,0.4-0.1
			l4.2,1.5l3.3,6.7l-10.1-4.6l0.2-1.4c0.2-0.2,0.4-0.4,0.4-0.7c0-0.5-0.4-0.9-0.9-0.9c-0.5,0-0.9,0.4-0.9,0.9c0,0.2,0.1,0.5,0.3,0.6
			l-0.1,1l-1.9-1.3c0-0.5-0.4-0.8-0.9-0.8c-0.5,0-0.9,0.4-0.9,0.9c0,0.5,0.4,0.9,0.9,0.9c0.1,0,0.2,0,0.2,0l1.6,1.1l-2.7,0.4
			c-0.1-0.1-0.3-0.2-0.5-0.2c-0.5,0-0.9,0.4-0.9,0.9c0,0.5,0.4,0.9,0.9,0.9c0.3,0,0.6-0.2,0.8-0.5l3.6-0.6l7.9,3.7l-11.8-0.2
			l-2.5-2.1c0-0.5-0.4-0.8-0.9-0.8c-0.5,0-0.9,0.4-0.9,0.9c0,0.5,0.4,0.9,0.9,0.9c0.1,0,0.1,0,0.2,0l1.3,1.1l-3.4-0.1h0
			c-0.2-0.2-0.4-0.4-0.7-0.4c-0.5,0-0.9,0.4-0.9,0.9c0,0.5,0.4,0.9,0.9,0.9c0.2,0,0.5-0.1,0.6-0.3c0,0,0.1,0,0.1,0l3.6,0.1L21,47.3
			c-0.4,0-0.8,0.4-0.8,0.9c0,0.5,0.4,0.9,0.9,0.9c0.5,0,0.9-0.4,0.9-0.9c0-0.1,0-0.2,0-0.2l1.5-2c0,0,15-0.6,16,1.5
			c0.3,0.6-0.6,9.2-0.6,9.2c0,0.5,0.3,0.9,0.8,0.9c0,0,0,0,0.1,0c0.4,0,0.8-0.3,0.8-0.8c0,0,0.8-8.8,0.8-8.8c0,0,0.9-1.7,4.1-3
			c2.9-1.1,9.9-2.8,11.9-3.3l4.8,1.8c0.1,0.4,0.4,0.7,0.9,0.7c0.5,0,0.9-0.4,0.9-0.9C64,42.8,63.6,42.4,63.2,42.4z"/>
		<path class="st1" d="M40,84.1C21.2,84.1,5.9,68.8,5.9,50S21.2,15.9,40,15.9c18.8,0,34.1,15.3,34.1,34.1
			C74.1,68.8,58.8,84.1,40,84.1z M40,17.8C22.3,17.8,7.8,32.3,7.8,50S22.3,82.2,40,82.2c17.7,0,32.2-14.4,32.2-32.2
			C72.1,32.3,57.7,17.8,40,17.8z"/>
	</g>
	<path class="st4" d="M159,86.6c0,1.3-1.1,2.4-2.4,2.4H83.4c-1.3,0-2.4-1.1-2.4-2.4V13.4c0-1.3,1.1-2.4,2.4-2.4h73.2
		c1.3,0,2.4,1.1,2.4,2.4V86.6z"/>
	<g>
		<g>
			<path class="st5" d="M89.7,30.7v0.7h1.6v-0.7c2.2-0.2,3.4-1.5,3.4-3.6c0-2.5-1.7-3.5-3.4-3.7v-0.7h-1.6v0.7
				c-1.7,0.2-3.5,1.2-3.5,3.7C86.3,29.2,87.6,30.5,89.7,30.7z M89.8,29.4c-0.7-0.1-1.8-0.6-1.8-2.3c0-1.8,1.1-2.3,1.8-2.4V29.4z
				 M93.1,27.1c0,1.7-1.1,2.2-1.8,2.4v-4.7C92,24.8,93.1,25.3,93.1,27.1z"/>
			<path class="st5" d="M99.7,27.3c0.3-0.5,0.7-1,1-1.5c0,0.6,0,1.2,0,1.9v3.5h1.6v-8.1h-1.5l-2.7,4c-0.4,0.6-0.7,1.1-1,1.5
				c0-0.6,0-1.3,0-2.1v-3.5h-1.5v8.1h1.6L99.7,27.3z"/>
			<path class="st5" d="M105.1,28.2c0.2,0,0.4,0,0.6,0c1.1,0,2.1-0.3,2.7-0.9c0.5-0.4,0.7-1.1,0.7-1.8c0-0.7-0.3-1.4-0.8-1.8
				c-0.6-0.5-1.4-0.7-2.5-0.7c-0.7,0-1.4,0.1-2.1,0.1l-0.2,0v8h1.6L105.1,28.2L105.1,28.2z M105.7,26.9c-0.2,0-0.4,0-0.6,0v-2.4
				c0.2,0,0.4,0,0.7,0c0.7,0,1.6,0.2,1.6,1.2C107.4,26.7,106.3,26.9,105.7,26.9z"/>
			<path class="st5" d="M111.2,27.7c0-0.6,0.1-1.1,0.1-1.7c0.1,0.4,0.3,0.9,0.5,1.4l1.4,3.8h1.2l1.5-3.8c0.2-0.5,0.4-1,0.5-1.4
				c0,0.6,0.1,1.2,0.1,1.8l0.2,3.6h1.6l-0.5-8.1H116l-1.5,3.8c-0.2,0.7-0.4,1.2-0.6,1.7c-0.2-0.5-0.3-1-0.6-1.7l-1.5-3.8H110
				l-0.6,8.1h1.6L111.2,27.7z"/>
			<path class="st5" d="M123.2,23.1h-1.7l-3,8.1h1.7l0.8-2.4h2.5l0.9,2.4h1.7L123.2,23.1z M123.1,27.5h-1.6l0.7-1.8
				c0.1-0.2,0.1-0.3,0.2-0.5c0.1,0.2,0.1,0.3,0.2,0.5L123.1,27.5z"/>
			<path class="st5" d="M130.8,27.7L130.8,27.7c1.3,0,1.7,0.5,2.1,1.5l0.1,0.2c0.2,0.6,0.4,1.1,0.7,1.6l0.1,0.1h1.8l-0.2-0.4
				c-0.3-0.5-0.5-1-0.7-1.6c-0.1-0.2-0.1-0.3-0.2-0.5c-0.4-1-0.9-1.7-2-2l3.2-3.5h-2l-2.7,3.2v-3.2h-1.6v8.1h1.6V27.7L130.8,27.7z"
				/>
			<path class="st5" d="M141.8,28.2c0.2-0.3,0.3-0.5,0.4-0.7c0,0.3,0,0.7,0,1.1v2.6h1.6v-6h-1.7l-1.9,2.9c-0.2,0.3-0.3,0.5-0.4,0.7
				c0-0.3,0-0.6,0-1v-2.6h-1.6v6h1.7L140,31c0.3-0.5,0.6-1,0.9-1.5C141.2,29.1,141.5,28.6,141.8,28.2z"/>
			<path class="st5" d="M149.1,27.7L149.1,27.7c1.3,0,1.7,0.5,2.1,1.5l0.1,0.2c0.2,0.6,0.4,1.1,0.7,1.6l0.1,0.1h1.8l-0.2-0.4
				c-0.3-0.5-0.5-1-0.7-1.6c-0.1-0.2-0.1-0.3-0.2-0.5c-0.4-1-0.9-1.7-2-2l3.2-3.5h-2l-2.7,3.2v-3.2h-1.6v8.1h1.6L149.1,27.7
				L149.1,27.7z"/>
			<path class="st5" d="M96.8,77.4h-1.7v-2.2H94v0.1l-0.1,0c-0.2-0.1-0.5-0.1-0.9-0.1c-1.1,0-2.2,0.5-2.6,2c-0.2-1.3-0.9-2-2-2
				c-1.4,0-2.2,1-2.2,2.7c0,1.7,0.8,2.7,2.1,2.7c1.2,0,1.9-0.7,2.1-2c0.2,1.2,1.1,1.9,2.5,1.9c0.4,0,0.8-0.1,1.1-0.1l0.1,0v0.1h1.1
				v-2.4h1.7v2.4h1.1v-5.4h-1.1L96.8,77.4L96.8,77.4z M88.3,79.8c-0.9,0-1-1.4-1-1.9s0.1-1.9,1-1.9c0.9,0,1,1.4,1,1.9
				C89.3,78.6,89.2,79.8,88.3,79.8z M93.8,79.6l-0.1,0.1c-0.1,0.1-0.4,0.1-0.7,0.1c-0.6,0-1.5-0.3-1.5-1.9c0-1.4,0.8-1.9,1.5-1.9
				c0.4,0,0.5,0.1,0.7,0.1l0.1,0l0.3-0.7v5L93.8,79.6z"/>
			<path class="st5" d="M100.3,75.1c-1.4,0-2.2,1.1-2.2,2.7c0,1.7,0.8,2.7,2.1,2.7c1.4,0,2.2-1,2.2-2.8
				C102.4,76.1,101.6,75.1,100.3,75.1z M100.2,79.8c-0.9,0-1-1.4-1-1.9s0.1-1.9,1-1.9c0.9,0,1,1.4,1,1.9
				C101.3,78.6,101.1,79.8,100.2,79.8z"/>
			<path class="st5" d="M105.3,77.6c0.5-0.2,0.8-0.6,0.8-1.1c0-0.4-0.2-0.8-0.5-1c-0.4-0.3-0.9-0.4-1.7-0.4c-0.4,0-0.8,0-1.2,0.1
				l-0.1,0v5.2l0.1,0c0.3,0,0.6,0.1,1.1,0.1c0.9,0,1.6-0.2,2-0.5c0.4-0.3,0.6-0.7,0.6-1.1C106.3,78.4,105.9,77.9,105.3,77.6z
				 M103.9,77.3h-0.2v-1.4c0.1,0,0.2,0,0.3,0c0.7,0,1,0.2,1,0.7C105,77,104.5,77.3,103.9,77.3z M103.9,79.8c-0.1,0-0.2,0-0.3,0v-1.8
				h0.2c0.6,0,1.3,0.2,1.3,0.9C105.2,79.7,104.3,79.8,103.9,79.8z"/>
			<path class="st5" d="M107.7,75.2l-1.7,5.4h1.1l0.5-1.5h1.4l0.5,1.5h1.1l-1.7-5.4C108.8,75.2,107.7,75.2,107.7,75.2z M108.7,78.3
				h-1l0.3-1.1c0.1-0.2,0.1-0.4,0.2-0.7c0.1,0.2,0.1,0.5,0.2,0.7L108.7,78.3z"/>
			<polygon class="st5" points="113.3,77.4 111.6,77.4 111.6,75.2 110.5,75.2 110.5,80.5 111.6,80.5 111.6,78.2 113.3,78.2 
				113.3,80.5 114.4,80.5 114.4,75.2 113.3,75.2 			"/>
			<path class="st5" d="M116.1,75.2l-1.7,5.4h1.1l0.5-1.5h1.4l0.5,1.5h1.1l-1.7-5.4C117.2,75.2,116.1,75.2,116.1,75.2z M117.1,78.3
				h-1l0.3-1.1c0.1-0.2,0.1-0.4,0.2-0.7c0.1,0.2,0.1,0.5,0.2,0.7L117.1,78.3z"/>
			<path class="st5" d="M122.7,77.6c0.5-0.2,0.8-0.6,0.8-1.1c0-0.4-0.2-0.8-0.5-1c-0.4-0.3-0.9-0.4-1.7-0.4c-0.4,0-0.8,0-1.2,0.1
				l-0.1,0v5.2l0.1,0c0.3,0,0.6,0.1,1.1,0.1c0.9,0,1.6-0.2,2-0.5c0.4-0.3,0.6-0.7,0.6-1.1C123.7,78.4,123.4,77.9,122.7,77.6z
				 M121.3,77.3h-0.2v-1.4c0.1,0,0.2,0,0.3,0c0.7,0,1,0.2,1,0.7C122.4,77,122,77.3,121.3,77.3z M121.4,79.8c-0.1,0-0.2,0-0.3,0v-1.8
				h0.2c0.6,0,1.3,0.2,1.3,0.9C122.6,79.7,121.8,79.8,121.4,79.8z"/>
			<polygon class="st5" points="125,76 125.2,76.7 126.4,76.3 126.4,80.5 127.4,80.5 127.4,75.4 126.6,75.4 			"/>
			<path class="st5" d="M133.6,75.3c-0.9,0-1.6,0.5-1.8,1.3c-0.2-0.8-0.9-1.3-1.7-1.3c-1.1,0-1.9,0.8-1.9,1.8c0,0.9,0.7,1.6,1.6,1.6
				c0.3,0,0.6-0.1,0.9-0.2c-0.1,0.4-0.4,0.7-0.7,1c-0.2,0.2-0.5,0.3-0.9,0.4c-0.2,0-0.3,0-0.5,0h-0.1v0.8h0.1c0.1,0,0.3,0,0.6,0
				c0.7-0.1,1.2-0.4,1.7-0.8c0.5-0.5,0.8-1.2,0.9-1.9c0.3,0.5,0.8,0.9,1.5,0.9c0.3,0,0.6-0.1,0.9-0.2c-0.1,0.4-0.4,0.7-0.7,1
				c-0.2,0.2-0.5,0.3-0.9,0.4c-0.2,0-0.3,0-0.5,0h-0.1v0.8h0.1c0.1,0,0.3,0,0.6,0c0.7-0.1,1.2-0.4,1.7-0.8c0.6-0.6,0.9-1.4,0.9-2.4
				C135.5,76.1,134.8,75.3,133.6,75.3z M133.6,76c0.5,0,0.8,0.5,0.8,1.3c0,0.2,0,0.2,0,0.2c-0.1,0.2-0.4,0.4-0.7,0.4
				c-0.5,0-0.8-0.3-0.8-0.9C132.8,76.3,133.2,76,133.6,76z M130,76c0.5,0,0.8,0.5,0.8,1.3c0,0.2,0,0.2,0,0.2
				c-0.1,0.2-0.4,0.4-0.7,0.4c-0.5,0-0.8-0.3-0.8-0.9C129.3,76.3,129.7,76,130,76z"/>
			<path class="st5" d="M137.8,77.7c0.5-0.3,0.8-0.7,0.8-1.1c0-0.8-0.7-1.3-1.7-1.3c-0.6,0-1.1,0.2-1.3,0.3l-0.1,0.1l0.3,0.7
				l0.1-0.1c0.2-0.1,0.5-0.2,0.8-0.2c0.2,0,0.8,0.1,0.8,0.6c0,0.5-0.7,0.7-1.1,0.7H136v0.7h0.3c0.6,0,1.2,0.2,1.2,0.9
				c0,0.5-0.4,0.8-1,0.8c-0.4,0-0.8-0.1-0.9-0.2l-0.1-0.1l-0.3,0.7l0.1,0.1c0.3,0.1,0.8,0.2,1.3,0.2c1.2,0,2.1-0.7,2.1-1.6
				C138.7,78.4,138.4,77.9,137.8,77.7z"/>
			<path class="st5" d="M153.8,75.2l-0.7,2.1c0,0.1-0.1,0.2-0.1,0.4c0,0.1,0,0.1,0,0.2c-0.1-0.2-0.1-0.3-0.2-0.5l-0.9-2.2h-1.2h0
				h-3.1v1.3c0,0.8-0.1,1.4-0.2,2c-0.1,0.4-0.3,0.8-0.5,1.3l-0.4,0c0.3-0.5,0.5-1.1,0.5-1.9c0-1.7-0.8-2.7-2.1-2.7
				c-0.6,0-1.2,0.2-1.5,0.6v-0.6h-3.1v5.4h1.1V76h1.8c-0.3,0.5-0.5,1.1-0.5,1.9c0,1.7,0.8,2.7,2.1,2.7c0.7,0,1.2-0.2,1.6-0.7l0,1.7
				h0.9l0-1.1h2.9l0.1,1.1h0.9l0-1c0.1,0,0.2,0,0.3,0c0.6,0,1.1-0.3,1.5-0.8c0.4-0.6,0.7-1.3,0.9-1.9c0-0.1,0.1-0.2,0.1-0.3l0.9-2.4
				L153.8,75.2L153.8,75.2z M144.8,79.8c-0.9,0-1-1.4-1-1.9s0.1-1.9,1-1.9c0.9,0,1,1.4,1,1.9C145.8,78.6,145.7,79.8,144.8,79.8z
				 M149.7,76v3.8H148c0.2-0.4,0.3-0.7,0.4-1.1c0.1-0.6,0.2-1.2,0.2-2.1V76L149.7,76L149.7,76z M152.4,78.8c0,0.1,0,0.1,0,0.2
				c-0.1,0.3-0.5,0.9-1,0.9c-0.1,0-0.1,0-0.2,0l0,0v0l-0.5,0v-4.5L152.4,78.8z"/>
		</g>
	</g>
	<g>
		<path class="st1" d="M89.2,29.7v0.7h1.6v-0.7c2.2-0.2,3.4-1.5,3.4-3.6c0-2.5-1.7-3.5-3.4-3.7v-0.7h-1.6v0.7
			c-1.7,0.2-3.4,1.2-3.4,3.7C85.8,28.2,87,29.5,89.2,29.7z M89.2,28.4c-0.7-0.1-1.8-0.6-1.8-2.3c0-1.8,1.1-2.3,1.8-2.4V28.4z
			 M92.6,26.1c0,1.7-1.1,2.2-1.8,2.4v-4.7C91.5,23.8,92.6,24.3,92.6,26.1z"/>
		<path class="st1" d="M99.2,26.3c0.3-0.5,0.6-1,1-1.5c0,0.6,0,1.2,0,1.9v3.5h1.5V22h-1.5l-2.7,4c-0.4,0.6-0.7,1.1-1,1.5
			c0-0.6,0-1.3,0-2.1V22H95v8.1h1.6L99.2,26.3z"/>
		<path class="st1" d="M104.6,27.2c0.2,0,0.4,0,0.6,0c1.1,0,2.1-0.3,2.7-0.9c0.5-0.5,0.7-1.1,0.7-1.8c0-0.7-0.3-1.4-0.8-1.8
			c-0.5-0.5-1.4-0.7-2.5-0.7c-0.7,0-1.4,0.1-2.1,0.1l-0.2,0v8h1.6L104.6,27.2L104.6,27.2z M105.1,25.8c-0.2,0-0.4,0-0.6,0v-2.5
			c0.2,0,0.4,0,0.7,0c0.7,0,1.6,0.2,1.6,1.2C106.9,25.7,105.8,25.8,105.1,25.8z"/>
		<path class="st1" d="M110.7,26.6c0-0.6,0.1-1.2,0.1-1.7c0.1,0.4,0.3,0.9,0.5,1.4l1.4,3.8h1.2l1.5-3.8c0.2-0.5,0.4-1,0.5-1.5
			c0,0.6,0.1,1.2,0.1,1.8l0.2,3.6h1.6l-0.5-8.1h-1.8l-1.5,3.8c-0.3,0.7-0.4,1.2-0.6,1.7c-0.2-0.5-0.3-1-0.6-1.7l-1.5-3.8h-1.8
			l-0.6,8.1h1.6L110.7,26.6z"/>
		<path class="st1" d="M122.6,22H121l-3,8.1h1.7l0.8-2.4h2.5l0.9,2.4h1.7L122.6,22z M122.6,26.4H121l0.7-1.8
			c0.1-0.2,0.1-0.3,0.2-0.5c0.1,0.2,0.1,0.3,0.2,0.5L122.6,26.4z"/>
		<path class="st1" d="M130.3,26.7L130.3,26.7c1.3,0,1.7,0.5,2.1,1.5l0.1,0.2c0.2,0.6,0.4,1.1,0.7,1.6l0.1,0.1h1.8l-0.2-0.4
			c-0.3-0.5-0.5-1-0.7-1.6c-0.1-0.2-0.1-0.4-0.2-0.5c-0.4-1-0.9-1.7-2-2L135,22h-2l-2.7,3.2V22h-1.6v8.1h1.6
			C130.3,30.1,130.3,26.7,130.3,26.7z"/>
		<path class="st1" d="M141.3,27.2c0.2-0.3,0.3-0.5,0.4-0.7c0,0.3,0,0.7,0,1.1v2.6h1.6v-6h-1.7l-1.9,2.9c-0.2,0.3-0.3,0.5-0.4,0.7
			c0-0.3,0-0.6,0-1v-2.6h-1.6v6h1.7l0.1-0.1c0.3-0.5,0.6-1,1-1.5C140.7,28,141,27.6,141.3,27.2z"/>
		<path class="st1" d="M148.6,26.7L148.6,26.7c1.3,0,1.7,0.5,2.1,1.5l0.1,0.2c0.2,0.6,0.4,1.1,0.7,1.6l0.1,0.1h1.8l-0.2-0.4
			c-0.3-0.5-0.5-1-0.7-1.6c-0.1-0.2-0.1-0.4-0.2-0.5c-0.4-1-0.9-1.7-2-2l3.2-3.6h-2l-2.7,3.2V22H147v8.1h1.6
			C148.6,30.1,148.6,26.7,148.6,26.7z"/>
		<path class="st1" d="M96.3,76.3h-1.7v-2.2h-1.1v0.1l-0.1-0.1c-0.2-0.1-0.5-0.1-0.9-0.1c-1.1,0-2.3,0.5-2.6,2c-0.2-1.3-0.9-2-2-2
			c-1.4,0-2.2,1-2.2,2.7c0,1.7,0.8,2.7,2.1,2.7c1.2,0,1.9-0.7,2.1-2c0.2,1.2,1.1,1.9,2.5,1.9c0.4,0,0.8-0.1,1.1-0.1l0.1,0v0.1h1.1
			v-2.4h1.7v2.4h1.1v-5.4h-1.1C96.3,74.2,96.3,76.3,96.3,76.3z M87.8,78.8c-0.9,0-1-1.4-1-1.9c0-0.6,0.1-1.9,1-1.9
			c0.9,0,1,1.3,1,1.9C88.8,77.6,88.7,78.8,87.8,78.8z M93.3,78.6l-0.1,0.1c-0.1,0-0.4,0.1-0.7,0.1c-0.6,0-1.5-0.3-1.5-1.9
			c0-1.4,0.8-1.9,1.5-1.9c0.4,0,0.5,0,0.7,0.1l0.1,0l0.3-0.7v5L93.3,78.6z"/>
		<path class="st1" d="M99.8,74.1c-1.4,0-2.2,1-2.2,2.7c0,1.7,0.8,2.7,2.1,2.7c1.4,0,2.2-1,2.2-2.8C101.9,75.1,101.1,74.1,99.8,74.1
			z M99.7,78.8c-0.9,0-1-1.4-1-1.9c0-0.6,0.1-1.9,1-1.9c0.9,0,1,1.3,1,1.9C100.7,77.6,100.6,78.8,99.7,78.8z"/>
		<path class="st1" d="M104.7,76.6c0.5-0.2,0.8-0.6,0.8-1.1c0-0.4-0.2-0.8-0.5-1c-0.4-0.3-0.9-0.4-1.7-0.4c-0.4,0-0.8,0-1.2,0.1
			l-0.1,0v5.2l0.1,0c0.3,0,0.6,0.1,1.1,0.1c0.9,0,1.6-0.2,2-0.5c0.4-0.3,0.6-0.7,0.6-1.1C105.7,77.3,105.4,76.9,104.7,76.6z
			 M103.3,76.3h-0.2v-1.4c0.1,0,0.2,0,0.3,0c0.7,0,1,0.2,1,0.7C104.4,76,104,76.3,103.3,76.3z M103.4,78.8c-0.1,0-0.2,0-0.3,0V77
			h0.2c0.6,0,1.3,0.2,1.3,0.9C104.6,78.7,103.8,78.8,103.4,78.8z"/>
		<path class="st1" d="M107.1,74.2l-1.7,5.4h1.1L107,78h1.4l0.5,1.5h1.1l-1.7-5.4C108.2,74.2,107.1,74.2,107.1,74.2z M108.1,77.2h-1
			l0.3-1.1c0.1-0.2,0.1-0.4,0.2-0.7c0.1,0.2,0.1,0.4,0.2,0.7L108.1,77.2z"/>
		<polygon class="st1" points="112.7,76.3 111,76.3 111,74.2 109.9,74.2 109.9,79.5 111,79.5 111,77.1 112.7,77.1 112.7,79.5 
			113.8,79.5 113.8,74.2 112.7,74.2 		"/>
		<path class="st1" d="M115.6,74.2l-1.7,5.4h1.1l0.5-1.5h1.4l0.5,1.5h1.1l-1.7-5.4C116.7,74.2,115.6,74.2,115.6,74.2z M116.6,77.2
			h-1l0.3-1.1c0.1-0.2,0.1-0.4,0.2-0.7c0.1,0.2,0.1,0.4,0.2,0.7L116.6,77.2z"/>
		<path class="st1" d="M122.2,76.6c0.5-0.2,0.8-0.6,0.8-1.1c0-0.4-0.2-0.8-0.5-1c-0.4-0.3-0.9-0.4-1.7-0.4c-0.4,0-0.8,0-1.2,0.1
			l-0.1,0v5.2l0.1,0c0.3,0,0.6,0.1,1.1,0.1c0.9,0,1.6-0.2,2-0.5c0.4-0.3,0.6-0.7,0.6-1.1C123.2,77.3,122.8,76.9,122.2,76.6z
			 M120.8,76.3h-0.2v-1.4c0.1,0,0.2,0,0.3,0c0.7,0,1,0.2,1,0.7C121.9,76,121.4,76.3,120.8,76.3z M120.8,78.8c-0.1,0-0.2,0-0.3,0V77
			h0.2c0.6,0,1.3,0.2,1.3,0.9C122.1,78.7,121.2,78.8,120.8,78.8z"/>
		<polygon class="st1" points="124.5,75 124.7,75.7 125.8,75.3 125.8,79.5 126.9,79.5 126.9,74.3 126.1,74.3 		"/>
		<path class="st1" d="M133.1,74.3c-0.9,0-1.6,0.5-1.8,1.3c-0.3-0.8-0.9-1.3-1.7-1.3c-1.1,0-1.9,0.8-1.9,1.8c0,0.9,0.7,1.6,1.6,1.6
			c0.3,0,0.6-0.1,0.9-0.2c-0.1,0.4-0.3,0.7-0.7,1c-0.2,0.2-0.5,0.3-0.9,0.4c-0.2,0-0.3,0-0.5,0h-0.1v0.8h0.1c0.1,0,0.3,0,0.6,0
			c0.7-0.1,1.2-0.4,1.7-0.8c0.5-0.5,0.8-1.2,0.9-1.9c0.3,0.5,0.8,0.9,1.5,0.9c0.3,0,0.6-0.1,0.9-0.2c-0.1,0.4-0.4,0.7-0.7,1
			c-0.2,0.2-0.5,0.3-0.9,0.4c-0.2,0-0.3,0-0.5,0h-0.1v0.8h0.1c0.1,0,0.3,0,0.6,0c0.7-0.1,1.3-0.4,1.7-0.8c0.6-0.6,1-1.4,1-2.4
			C135,75.1,134.2,74.3,133.1,74.3z M133,75c0.5,0,0.8,0.5,0.8,1.3c0,0.1,0,0.2,0,0.2c-0.1,0.2-0.4,0.4-0.7,0.4
			c-0.5,0-0.8-0.3-0.8-0.9C132.3,75.3,132.7,75,133,75z M129.5,75c0.5,0,0.8,0.5,0.8,1.3c0,0.1,0,0.2,0,0.2
			c-0.1,0.2-0.4,0.4-0.7,0.4c-0.5,0-0.8-0.3-0.8-0.9C128.8,75.3,129.2,75,129.5,75z"/>
		<path class="st1" d="M137.2,76.7c0.5-0.3,0.8-0.7,0.8-1.1c0-0.8-0.7-1.3-1.7-1.3c-0.6,0-1.1,0.2-1.3,0.3l-0.1,0.1l0.3,0.7l0.1-0.1
			c0.2-0.1,0.5-0.2,0.8-0.2c0.2,0,0.8,0.1,0.8,0.6c0,0.5-0.6,0.7-1.1,0.7h-0.3v0.7h0.3c0.6,0,1.2,0.2,1.2,0.9c0,0.5-0.4,0.8-1,0.8
			c-0.4,0-0.8-0.1-0.9-0.2l-0.1-0.1l-0.3,0.7l0.1,0.1c0.3,0.1,0.8,0.2,1.3,0.2c1.2,0,2.1-0.7,2.1-1.6
			C138.2,77.4,137.8,76.9,137.2,76.7z"/>
		<path class="st1" d="M153.3,74.2l-0.7,2.1c0,0.1-0.1,0.3-0.1,0.4c0,0.1,0,0.1,0,0.2c-0.1-0.2-0.1-0.3-0.2-0.5l-0.9-2.2h-1.2h0
			h-3.1v1.3c0,0.8-0.1,1.4-0.2,2c-0.1,0.4-0.3,0.8-0.5,1.3l-0.4,0c0.3-0.5,0.5-1.1,0.5-1.9c0-1.7-0.8-2.7-2.1-2.7
			c-0.6,0-1.2,0.2-1.5,0.6v-0.6h-3.1v5.4h1.1v-4.6h1.8c-0.3,0.5-0.5,1.1-0.5,1.9c0,1.7,0.8,2.7,2.1,2.7c0.7,0,1.2-0.2,1.6-0.7l0,1.7
			h0.9l0-1.1h2.9l0.1,1.1h0.9l0-1c0.1,0,0.2,0,0.3,0c0.6,0,1.1-0.3,1.5-0.8c0.4-0.6,0.7-1.3,0.9-1.8c0-0.1,0.1-0.2,0.1-0.3l0.9-2.4
			L153.3,74.2L153.3,74.2z M144.3,78.8c-0.9,0-1-1.4-1-1.9c0-0.6,0.1-1.9,1-1.9c0.9,0,1,1.3,1,1.9C145.3,77.6,145.2,78.8,144.3,78.8
			z M149.1,74.9v3.8h-1.6c0.2-0.4,0.3-0.8,0.4-1.1c0.1-0.6,0.2-1.2,0.2-2.1v-0.6L149.1,74.9L149.1,74.9z M151.9,77.8
			c0,0.1,0,0.1,0,0.2c-0.1,0.3-0.5,0.9-1,0.9c-0.1,0-0.1,0-0.2,0h0v0l-0.5,0v-4.5L151.9,77.8z"/>
	</g>
</g>
</svg>
