<?xml version="1.0" encoding="utf-8"?>
<!-- Generator: Adobe Illustrator 24.0.1, SVG Export Plug-In . SVG Version: 6.00 Build 0)  -->
<svg version="1.1" id="Layer_1" xmlns="http://www.w3.org/2000/svg" xmlns:xlink="http://www.w3.org/1999/xlink" x="0px" y="0px"
	 viewBox="0 0 160 100" style="enable-background:new 0 0 160 100;" xml:space="preserve">
<style type="text/css">
	.st0{fill:#E93439;}
</style>
<path class="st0" d="M69.9,55.9l2.6-11.2l-9.1,11l-4.2-10.8l-2.2,11h-8.5l4.7-23.5h9.2l3.6,9.8l7.6-9.8h10l-5.5,23.5L69.9,55.9
	L69.9,55.9z M16.5,32.2l3.8,11l3.2-4.4L16.5,32.2z M15.8,54.1l-3-9.5L9.9,57.2H1l3.6,3.9h9.6L15.8,54.1z M27.2,44.4L16.9,57.4
	l1.4,1.2l-1.5,5.3h-9l3.6,3.9H21L27.2,44.4z M43,36.6l-4.2-4L33,57.2l-8.5,0l3.3,4h9.5L43,36.6z M50,43.1l-4.2-4l-6.1,24.7l-8.5,0
	l3.3,4h9.5L50,43.1z M122.8,43.3c0.5,0,2-0.8,2.5-3c0.6-2.1-1.6-2.4-1.6-2.4h-2.9l-1.3,5.4C119.5,43.3,122.2,43.3,122.8,43.3z
	 M132,55.8l-10.3,0l-3.3-7.9l-1.8,7.9h-9.2l5.5-23.5h15.3c0,0,5.6,0.1,5,6.1c-0.7,7.2-6.3,7.3-6.3,7.3L132,55.8z M148.5,43.3
	c0.5,0,2-0.8,2.6-3c0.6-2.1-1.6-2.4-1.6-2.4h-2.9l-1.3,5.4C145.3,43.3,148,43.3,148.5,43.3z M157.7,55.8l-10.3,0l-3.3-7.9l-1.8,7.9
	h-9.2l5.5-23.5H154c0,0,5.6,0.1,5,6.1c-0.7,7.2-6.3,7.3-6.3,7.3L157.7,55.8z M90,52.3h7.2v3.6h8.5l-1.5-23.7H90.5L79.4,55.9h9
	L90,52.3z M96.7,46.1h-4.2l3.4-6.9L96.7,46.1z M159,57.6v10.1H48.4V57.6H159z M92.6,66.1l-1.9-2.8c0.7-0.2,1.5-0.8,1.5-2.1
	c0-0.3-0.1-2.1-2.4-2.1h-2.9v6.9h1.9v-2.3l1.5,2.3C90.3,66.1,92.6,66.1,92.6,66.1z M99.3,59.2h-1.9v4.1c0,0.4-0.1,1.4-1.1,1.4
	c-1,0-1.1-0.9-1.1-1.4v-4.1h-1.9v4.1c0,0.7,0.2,3,3,3c2.9,0,3-2.3,3-3C99.3,63.3,99.3,59.2,99.3,59.2z M105.1,64
	c0-0.7-0.1-1.7-1.5-2.1c-0.7-0.2-1.5-0.2-1.5-0.8c0-0.2,0.1-0.6,0.7-0.6c0.5,0,0.9,0.3,1.3,0.6l0.7-1.5c-0.3-0.2-1-0.7-2.1-0.7
	c-1.6,0-2.4,1-2.4,2.1c0,1.4,0.9,1.9,1.7,2.1c0.6,0.2,1.3,0.2,1.3,0.9c0,0.4-0.3,0.6-0.7,0.6c-0.6,0-1.2-0.4-1.7-0.9l-0.9,1.5
	c1,0.8,1.7,1.1,2.6,1.1C104.1,66.3,105.1,65.4,105.1,64z M110.6,64c0-0.7-0.1-1.7-1.5-2.1c-0.7-0.2-1.5-0.2-1.5-0.8
	c0-0.2,0.1-0.6,0.7-0.6c0.5,0,0.9,0.3,1.3,0.6l0.7-1.5c-0.3-0.2-1-0.7-2.1-0.7c-1.6,0-2.4,1-2.4,2.1c0,1.4,0.9,1.9,1.7,2.1
	c0.6,0.2,1.3,0.2,1.3,0.9c0,0.4-0.3,0.6-0.7,0.6c-0.6,0-1.2-0.4-1.7-0.9l-0.9,1.5c1,0.8,1.7,1.1,2.6,1.1
	C109.6,66.3,110.6,65.4,110.6,64z M113.5,59.2h-1.9v6.9h1.9V59.2z M121.3,66.1l-2.5-6.9h-2.4l-2.5,6.9h2.1l0.4-1.2h2.4l0.4,1.2
	H121.3z M116.9,63.4h1.6l-0.8-2.6L116.9,63.4z M89.3,60.7h-0.5v1.6h0.5c0.7,0,0.9-0.4,0.9-0.8C90.2,61.1,90,60.7,89.3,60.7z
	 M3.5,56.6L2,56.3l1.8-0.8l-1.6-0.8l1.6-0.2l0-0.3l-2.5,0.3l1.8,0.9l-2.1,0.9l2.4,0.4L3.5,56.6z M4.4,51.9l0.1-0.3l-2.6,1L4,53.7
	l0.1-0.3l-0.6-0.3l0.2-1L4.4,51.9z M3.3,53l-0.9-0.4l1-0.4L3.3,53z M2.3,50.9l2.3,0l0-0.3l-1,0l0-0.2c0.1-0.5-0.2-0.7-0.5-0.7
	c-0.1,0-0.4,0-0.5,0.2c-0.2,0.2-0.2,0.4-0.3,0.6L2.3,50.9z M2.5,50.6l0-0.2c0-0.2,0.1-0.5,0.5-0.5c0.3,0,0.4,0.2,0.3,0.5l0,0.2
	L2.5,50.6z M2.6,48.9l2.3,0l0-0.3l-1,0l0-0.2c0.1-0.5-0.2-0.7-0.5-0.7c-0.1,0-0.4,0-0.5,0.2c-0.2,0.2-0.2,0.3-0.3,0.6L2.6,48.9z
	 M2.9,48.6l0-0.2c0-0.2,0.1-0.5,0.5-0.5c0.3,0,0.4,0.2,0.3,0.5l0,0.2L2.9,48.6z M3.2,45.8l2.3,0l0-0.3l-1,0l0-0.2
	c0.1-0.5-0.2-0.7-0.5-0.7c-0.1,0-0.4,0-0.5,0.2c-0.2,0.2-0.2,0.4-0.3,0.6L3.2,45.8z M3.5,45.5l0-0.2c0-0.2,0.1-0.5,0.5-0.5
	c0.3,0,0.4,0.2,0.3,0.5l0,0.2L3.5,45.5z M3.5,44.1l1.8-0.9l0.6,0.3L6,43.2l-2.1-1.1l-0.1,0.3L5,43l-1.5,0.7L3.5,44.1z M4.5,39.7
	c-0.3,0.3-0.3,0.5-0.4,0.7c-0.1,0.7,0.3,1.2,1,1.2c0.7,0,1.3-0.5,1.4-1.2c0-0.2,0-0.4-0.1-0.7l-0.3,0c0,0,0.1,0.1,0.1,0.3
	c0,0.1,0.1,0.3,0,0.4c-0.1,0.4-0.5,0.9-1.1,0.9c-0.5,0-0.9-0.4-0.8-0.9c0-0.1,0.1-0.3,0.2-0.4c0.1-0.1,0.2-0.2,0.3-0.3L4.5,39.7z
	 M5,37c-0.3,0.3-0.3,0.5-0.4,0.7c-0.1,0.7,0.3,1.2,1,1.2c0.7,0,1.3-0.5,1.4-1.2c0-0.2,0-0.4-0.1-0.7l-0.3,0c0,0,0.1,0.1,0.1,0.3
	c0,0.1,0.1,0.3,0,0.4c-0.1,0.4-0.5,0.9-1.1,0.9c-0.5,0-0.9-0.4-0.8-0.9c0-0.1,0.1-0.3,0.2-0.4c0.1-0.1,0.2-0.2,0.3-0.3L5,37z
	 M7.6,34.6l0-0.3l-2.4,0l1.6,1.6l-1.8,0l0,0.3l2.4,0l-1.6-1.6L7.6,34.6z M7.7,33.6l0.1-0.3l-0.9-0.7l0-0.1l1,0l0-0.3l-2.3,0
	l-0.1,0.5c0,0.1-0.1,0.4,0.1,0.6c0.1,0.1,0.2,0.2,0.4,0.2c0.2,0,0.3,0,0.5-0.2c0.1-0.1,0.2-0.3,0.2-0.4L7.7,33.6z M5.9,32.4l0.8,0
	l-0.1,0.3c0,0.1-0.1,0.3-0.2,0.4c-0.1,0.1-0.2,0.1-0.3,0.1c-0.1,0-0.2-0.1-0.3-0.1c-0.1-0.1-0.1-0.3,0-0.4L5.9,32.4z"/>
</svg>
