<?xml version="1.0" encoding="utf-8"?>
<!-- Generator: Adobe Illustrator 24.0.1, SVG Export Plug-In . SVG Version: 6.00 Build 0)  -->
<svg version="1.1" id="Layer_1" xmlns="http://www.w3.org/2000/svg" xmlns:xlink="http://www.w3.org/1999/xlink" x="0px" y="0px"
	 viewBox="0 0 160 100" style="enable-background:new 0 0 160 100;" xml:space="preserve">
<style type="text/css">
	.st0{fill:#EA1B3B;}
</style>
<g>
	<path class="st0" d="M37.7,44c0-4.2,2.7-8.4,8.5-8.4s8.5,4.1,8.5,8.4c0,4.2-2.7,8.4-8.5,8.4S37.7,48.2,37.7,44z M50.1,44
		c0-3-1.9-4.6-3.9-4.6c-2.1,0-3.9,1.5-3.9,4.6c0,3,1.9,4.6,3.9,4.6C48.3,48.6,50.1,47.1,50.1,44z M65.8,47c-1.3,0.6-2.8,0.7-3.8,0.7
		c-5.4,0-5.6-3.1-5.6-5.8v-5.9h4.4v5.2c0,1.2,0.9,2.4,3.3,2.4c0.4,0,0.8-0.1,1.7-0.2v-7.4h4.4v15.8h-4.4V47z M78.2,36.1h5.4
		l5.6,15.8h-4.7l-0.9-2.3h-5.4l-0.9,2.3h-4.7L78.2,36.1z M79,46.1h3.6l-1.8-6.3L79,46.1z M91.8,36.1h4.4v6.6l4.8-6.6h5.2l-6,7.7
		l6.2,8.2h-5.5l-4.6-6.8v6.8h-4.4C91.8,51.9,91.8,36.1,91.8,36.1z M106.2,44c0-4.2,2.7-8.4,8.5-8.4c5.8,0,8.5,4.1,8.5,8.4
		c0,4.2-2.7,8.4-8.5,8.4C108.9,52.4,106.2,48.2,106.2,44z M118.6,44c0-3-1.9-4.6-3.9-4.6c-2.1,0-3.9,1.5-3.9,4.6
		c0,3,1.9,4.6,3.9,4.6C116.7,48.6,118.6,47.1,118.6,44z M134.6,36.1c4.8,0,5.3,3.2,5.3,4.4c0,1.7-1.3,3.1-2.7,3.6v0
		c1.2,0.2,3.2,1.2,3.2,4c0,2.2-1.7,3.8-5.8,3.8h-8.5V36.1H134.6z M133.3,42.7c1.9,0,2.3-0.9,2.3-1.4c0-0.8-0.6-1.5-2.3-1.5h-2.7v2.9
		H133.3z M133.5,48.8c0.8,0,2.6,0,2.6-1.7c0-1.6-1.8-1.6-2.6-1.6h-2.9v3.3H133.5z M142,44c0-4.2,2.7-8.4,8.5-8.4
		c5.8,0,8.5,4.1,8.5,8.4c0,4.2-2.7,8.4-8.5,8.4C144.7,52.4,142,48.2,142,44z M154.4,44c0-3-1.9-4.6-3.9-4.6c-2.1,0-3.9,1.5-3.9,4.6
		c0,3,1.9,4.6,3.9,4.6C152.6,48.6,154.4,47.1,154.4,44z M39.5,61.1v3.2h-0.9v-6.7h0.9v2.8h3.4v-2.8h0.9v6.7h-0.9v-3.2H39.5z
		 M46.7,62.5l-0.6,1.7h-1l2.5-6.7h1l2.5,6.7h-1l-0.6-1.7C49.5,62.5,46.7,62.5,46.7,62.5z M46.9,61.8h2.3l-1.2-3.3L46.9,61.8z
		 M53,58.3h-2.2v-0.8H56v0.8h-2.2v6H53V58.3z M59.8,61.6l1.6-4h1l-2.3,5.5c-0.2,0.4-0.3,0.7-0.5,0.9c-0.2,0.2-0.4,0.3-0.6,0.4
		c-0.2,0-0.4,0.1-0.6,0.1c-0.3,0-1.4-0.4-1.6-0.5l0.5-0.8c0.2,0.1,0.8,0.5,1,0.5c0.2,0,0.4-0.1,0.6-0.2c0.2-0.1,0.3-0.4,0.4-0.8
		l-2.6-5h1.1L59.8,61.6z M63.7,57.5h2.7c1.5,0,2.3,0.6,2.3,1.9c0,1.4-0.8,2.1-2.4,2.1h-1.7v2.7h-0.9L63.7,57.5L63.7,57.5z
		 M64.6,58.3v2.5h1.7c0.5,0,0.9-0.1,1.2-0.3c0.2-0.2,0.4-0.6,0.4-1c0-0.4-0.1-0.7-0.4-0.9c-0.3-0.2-0.6-0.3-1.1-0.3
		C66.3,58.3,64.6,58.3,64.6,58.3z M70.2,62.5l-0.6,1.7h-1l2.5-6.7h1l2.5,6.7h-1l-0.6-1.7C73.1,62.5,70.2,62.5,70.2,62.5z M70.5,61.8
		h2.3l-1.2-3.3L70.5,61.8z M75.6,64.3v-0.8c0.1,0,0.2,0,0.2,0c0.9,0,1.3-1,1.3-3.1v-2.9h4.2v6.7h-0.9v-6h-2.4v2.3
		c0,1.3-0.2,2.3-0.6,2.8c-0.4,0.6-0.9,0.8-1.5,0.8C75.9,64.3,75.8,64.3,75.6,64.3z M83.9,57.5v2.7h1.9c0.3,0,0.6,0,0.9,0.1
		s0.6,0.3,0.9,0.6c0.2,0.3,0.4,0.7,0.4,1.3c0,0.7-0.2,1.2-0.7,1.5c-0.4,0.3-0.9,0.4-1.5,0.4H83v-6.7C83,57.5,83.9,57.5,83.9,57.5z
		 M83.9,61v2.5h1.8c0.2,0,0.4,0,0.6-0.1c0.2-0.1,0.4-0.2,0.5-0.4c0.2-0.2,0.2-0.4,0.2-0.8c0-0.8-0.5-1.2-1.5-1.2H83.9z M90.3,61.1
		v3.2h-0.9v-6.7h0.9v2.8h3.4v-2.8h0.9v6.7h-0.9v-3.2H90.3z M97,57.5v2.7h1.9c0.2,0,0.5,0,0.8,0.1c0.3,0.1,0.6,0.3,0.9,0.6
		c0.3,0.3,0.4,0.7,0.4,1.3c0,0.7-0.2,1.2-0.6,1.5c-0.4,0.3-0.9,0.4-1.5,0.4h-2.8v-6.7L97,57.5L97,57.5z M97,61v2.5h1.8
		c0.3,0,0.6-0.1,0.9-0.3c0.3-0.2,0.4-0.5,0.4-1c0-0.4-0.1-0.7-0.3-0.9S99.2,61,98.7,61L97,61L97,61z M101.8,57.5h0.9v6.7h-0.9V57.5z
		 M105.3,60.4h3.1v0.8h-3.1v2.3h3.4v0.8h-4.3v-6.7h4.2v0.8h-3.3C105.3,58.3,105.3,60.4,105.3,60.4z M114,61.1v3.2h-0.9v-6.7h0.9v2.8
		h3.4v-2.8h0.9v6.7h-0.9v-3.2H114z M121.3,62.5l-0.6,1.7h-1l2.5-6.7h1l2.5,6.7h-1l-0.6-1.7C124.1,62.5,121.3,62.5,121.3,62.5z
		 M121.5,61.8h2.3l-1.2-3.3L121.5,61.8z M127.8,58.3v6h-0.9v-6.7h5.7v6.7h-0.9v-6H127.8z M134.9,62.9l3.6-5.4h0.9v6.7h-0.9v-5.4
		l-3.6,5.4H134v-6.7h0.9V62.9z M142.6,58.3h-2.2v-0.8h5.3v0.8h-2.2v6h-0.9L142.6,58.3L142.6,58.3z M147.5,60.6l3-3.1h1.1l-3.2,3.1
		l3.4,3.6h-1.2l-3.2-3.5v3.5h-0.9v-6.7h0.9V60.6z M153.6,62.9l3.6-5.4h0.9v6.7h-0.9v-5.4l-3.6,5.4h-0.9v-6.7h0.9V62.9z M19.1,60
		c-3.4,0-6.1-2.8-6.1-6.1c0-3.4,2.8-6.1,6.1-6.1c3.4,0,6.1,2.8,6.1,6.1C25.2,57.3,22.5,60,19.1,60z M19.1,50.7
		c-1.8,0-3.2,1.4-3.2,3.2c0,1.8,1.4,3.2,3.2,3.2s3.2-1.4,3.2-3.2C22.3,52.1,20.8,50.7,19.1,50.7z M29.4,64.1H1V35.7h28.4V64.1z
		 M3,62.1h24.3V37.7H3V62.1z"/>
</g>
</svg>
