<?xml version="1.0" encoding="utf-8"?>
<!-- Generator: Adobe Illustrator 24.0.1, SVG Export Plug-In . SVG Version: 6.00 Build 0)  -->
<svg version="1.1" id="Layer_1" xmlns="http://www.w3.org/2000/svg" xmlns:xlink="http://www.w3.org/1999/xlink" x="0px" y="0px"
	 viewBox="0 0 127.8 86.6" style="enable-background:new 0 0 127.8 86.6;" xml:space="preserve">
<style type="text/css">
	.st0{fill:#FFFFFF;}
	.st1{fill:#4F4F4F;}
</style>
<path d="M64.3,66c-0.8,0-1.6-0.3-2.2-0.8L36.3,39.3c-4.3-4.4-6.6-10.1-6.6-16.1c0-6.2,2.4-11.9,6.6-16.2c3.9-3.9,9.1-6.2,14.7-6.6
	c0.5,0,1-0.1,1.5-0.1c4.2,0,8.3,1.1,11.8,3.3c3.5-2.1,7.6-3.2,11.9-3.2c6.2,0,11.9,2.4,16.2,6.6c3.9,3.9,6.2,9,6.6,14.6
	c0.3,5.6-1.3,11-4.7,15.4c-0.6,0.8-1.6,1.3-2.6,1.3c-0.8,0-1.5-0.3-2.1-0.8L73.3,21.3L61.2,33.4c-1.8,1.8-4.1,2.7-6.8,2.7
	c-2.7,0-5.1-1-6.8-2.9c-1.8-1.8-2.8-4.2-2.8-6.9c0-2.6,1-5,2.9-6.8L58.8,8.4c-2-0.8-4.1-1.3-6.3-1.3c-0.4,0-0.7,0-1.1,0
	C47.6,7.4,44,9,41,11.8c-3.1,3.1-4.7,7.1-4.7,11.4c0,4.2,1.7,8.4,4.8,11.4L66.5,60c1.3,1.1,1.6,3.2,0.5,4.7
	C66.3,65.5,65.3,66,64.3,66z M73.4,13.3c0.9,0,1.8,0.4,2.4,1l15.2,15.2c1.1-2.3,1.5-4.9,1.4-7.4c-0.3-3.9-2-7.6-4.7-10.3
	c-3.1-3.1-7.1-4.8-11.4-4.8c-4.2,0-8.4,1.7-11.4,4.8c-4.8,4.8-12,12.1-12.4,12.5c-0.6,0.6-0.9,1.4-0.9,2.1s0.3,1.5,0.9,2
	c0.6,0.6,1.2,0.9,2,0.9s1.4-0.3,2-0.9c0.3-0.3,14-13.6,14.6-14.2C71.6,13.7,72.4,13.3,73.4,13.3z M73.5,56.8c-0.9,0-1.8-0.4-2.4-1
	L58.8,43.4c-1.3-1.3-1.3-3.5,0-4.8c0.6-0.6,1.5-1,2.4-1c0.9,0,1.8,0.4,2.4,1L75.9,51c0.6,0.6,1,1.5,1,2.4c0,0.9-0.4,1.8-1,2.4
	C75.2,56.5,74.4,56.8,73.5,56.8z M82.8,47.6c-0.9,0-1.8-0.4-2.4-1L68.7,34.9c-0.6-0.6-1-1.5-1-2.4c0-0.9,0.4-1.8,1-2.4
	c0.6-0.6,1.5-1,2.4-1s1.8,0.4,2.4,1l11.6,11.7c1.3,1.3,1.3,3.5,0,4.8C84.5,47.3,83.7,47.6,82.8,47.6z"/>
<path class="st0" d="M84.1,42.1c1,1,1,2.6,0,3.6s-2.6,1-3.6,0L68.9,34c-1-1-1-2.6,0-3.6s2.6-1,3.6,0L84.1,42.1z M62.6,38.9
	c-1-1-2.6-1-3.6,0s-1,2.6,0,3.6l12.2,12.4c1,1,2.6,1,3.6,0s1-2.6,0-3.6L62.6,38.9z M59.8,7.8C57,6.4,54,5.8,50.9,6
	C47,6.2,43.1,7.9,40,10.9c-3.3,3.3-5,7.6-5,12c0,4.3,1.7,8.7,5,12l25.4,25.4c1.1,0.9,1.2,2.5,0.4,3.6c-0.9,1.1-2.5,1.2-3.6,0.3
	L36.4,38.4c-4.2-4.3-6.4-9.9-6.4-15.5s2.1-11.3,6.4-15.6c3.9-3.9,9-6,14.2-6.4c4.6-0.3,9.3,0.8,13.3,3.4c3.6-2.3,7.7-3.4,11.9-3.4
	c5.6,0,11.3,2.1,15.6,6.4c3.9,3.9,6,8.9,6.4,14.1c0.3,5.2-1.2,10.5-4.5,14.8c-0.8,1.1-2.5,1.3-3.5,0.4l-17-16.8L60.1,32.5
	c-1.7,1.7-3.8,2.5-6.2,2.5s-4.6-0.9-6.2-2.6c-3.4-3.4-3.4-9.1,0.1-12.5L59.8,7.8z M92.7,21.7c-0.3-3.9-1.9-7.8-4.9-10.8
	c-3.3-3.3-7.6-5-12-5c-4.3,0-8.7,1.7-12,5c0,0-12.3,12.3-12.5,12.6c-1.5,1.5-1.5,3.8,0,5.3c0.7,0.7,1.6,1.1,2.6,1.1s1.9-0.4,2.6-1.1
	c0.3-0.3,14.6-14.2,14.6-14.2c1-1,2.6-1,3.6,0l16,16C92.2,27.9,92.9,24.8,92.7,21.7z"/>
<g>
	<path class="st1" d="M0,86.4V72.5h6.7c1.2,0,2.1,0.3,2.7,0.8s0.8,1.4,0.8,2.6c0,0.9-0.1,1.6-0.3,2c-0.2,0.6-0.7,1-1.5,1.2
		c0.9,0.2,1.4,0.6,1.7,1.1c0.3,0.4,0.4,1.2,0.4,2.1c0,1.3-0.3,2.3-0.8,2.9c-0.6,0.7-1.5,1.1-2.8,1.1H0V86.4z M1.5,73.9v4.8H6
		c1,0,1.7-0.2,2.1-0.5c0.4-0.4,0.6-1,0.6-2c0-0.9-0.1-1.4-0.4-1.7C8,74.2,7.4,74,6.6,74H1.5V73.9z M1.5,80v5h4.3
		c1.3,0,2.1-0.1,2.5-0.4C8.8,84.3,9,83.5,9,82.5c0-1.1-0.2-1.8-0.5-2.1c-0.3-0.3-1-0.4-2.1-0.4H1.5z"/>
	<path class="st1" d="M11.8,86.4l5.1-13.9h2.2l5.2,13.9h-1.6l-1-2.9h-7l-1.1,2.9H11.8z M21.1,82.2L18,73.7l-3.1,8.5H21.1z"/>
	<path class="st1" d="M28.3,72.5l4.9,11.9l4.9-11.9h2.5v13.9h-1.5V73.6l-5.2,12.8h-1.3l-5.3-12.7v12.7h-1.5V72.5H28.3z"/>
	<path class="st1" d="M47.3,72.5h11.2v13.9H57V73.9h-8.1v12.6h-1.5v-14H47.3z"/>
	<path class="st1" d="M60.5,79.5c0-2.9,0.4-4.8,1.1-5.7c0.8-0.9,2.3-1.4,4.7-1.4c2.4,0,3.9,0.4,4.7,1.3c0.7,0.9,1.1,2.8,1.1,5.8
		c0,2.9-0.4,4.8-1.1,5.7c-0.8,0.9-2.3,1.4-4.7,1.4c-2.4,0-3.9-0.4-4.7-1.3C60.9,84.3,60.5,82.4,60.5,79.5z M62.1,79.5
		c0,2.5,0.2,4,0.7,4.7s1.7,1,3.6,1s3-0.3,3.5-1s0.7-2.2,0.7-4.7s-0.2-4.1-0.7-4.7c-0.5-0.7-1.7-1-3.5-1c-1.9,0-3.1,0.3-3.6,1
		C62.3,75.4,62.1,77,62.1,79.5z"/>
	<path class="st1" d="M76.7,72.5l4.9,11.9l4.9-11.9H89v13.9h-1.5V73.6l-5.2,12.8H81l-5.3-12.7v12.7h-1.5V72.5H76.7z"/>
	<path class="st1" d="M91.2,79.5c0-2.9,0.4-4.8,1.1-5.7c0.8-0.9,2.3-1.4,4.7-1.4c2.4,0,3.9,0.4,4.7,1.3c0.7,0.9,1.1,2.8,1.1,5.8
		c0,2.9-0.4,4.8-1.1,5.7c-0.8,0.9-2.3,1.4-4.7,1.4c-2.4,0-3.9-0.4-4.7-1.3C91.5,84.3,91.2,82.4,91.2,79.5z M92.7,79.5
		c0,2.5,0.2,4,0.7,4.7s1.7,1,3.6,1s3-0.3,3.5-1s0.7-2.2,0.7-4.7s-0.2-4.1-0.7-4.7c-0.5-0.7-1.7-1-3.6-1s-3.1,0.3-3.6,1
		C92.9,75.4,92.7,77,92.7,79.5z"/>
	<path class="st1" d="M104.7,72.5h1.5V76c0,1.2,0.3,2,0.9,2.4c0.4,0.3,1.3,0.4,2.7,0.4c1.1,0,1.9,0,2.4-0.1c0.5,0,1-0.1,1.4-0.2
		v-6.1h1.5v13.9h-1.5v-6.5c-0.5,0.1-1.1,0.2-1.9,0.2s-1.5,0.1-2.3,0.1c-1.9,0-3.1-0.3-3.8-0.9s-1-1.8-1-3.5v-3.2H104.7z"/>
	<path class="st1" d="M119,72.5v6.2h4.6c1.5,0,2.6,0.3,3.2,0.8s0.9,1.5,0.9,3c0,1.4-0.3,2.4-0.9,3.1c-0.6,0.6-1.7,0.9-3.1,0.9h-6.2
		v-14H119z M119,80v5h4.6c1.1,0,1.8-0.2,2.2-0.6c0.3-0.4,0.5-1,0.5-2s-0.2-1.7-0.6-2s-1.1-0.4-2.3-0.4H119z"/>
</g>
</svg>
