<?xml version="1.0" encoding="utf-8"?>
<!-- Generator: Adobe Illustrator 24.0.1, SVG Export Plug-In . SVG Version: 6.00 Build 0)  -->
<svg version="1.1" id="Layer_1" xmlns="http://www.w3.org/2000/svg" xmlns:xlink="http://www.w3.org/1999/xlink" x="0px" y="0px"
	 viewBox="0 0 120 13.3" style="enable-background:new 0 0 120 13.3;" xml:space="preserve">
<g>
	<path d="M0,13.2V0.1h6.3c1.1,0,2,0.2,2.5,0.7s0.8,1.3,0.8,2.5c0,0.9-0.1,1.5-0.2,1.9C9.1,5.7,8.6,6.1,8,6.3
		c0.8,0.2,1.4,0.6,1.6,1.1c0.2,0.4,0.4,1.1,0.4,2c0,1.2-0.2,2.2-0.7,2.8c-0.5,0.7-1.4,1-2.6,1H0z M1.4,1.4v4.5h4.1
		c1,0,1.6-0.2,2-0.5S8,4.4,8,3.5c0-0.8-0.1-1.4-0.4-1.6C7.4,1.5,6.9,1.4,6.1,1.4H1.4z M1.4,7.2v4.7h4c1.2,0,2-0.1,2.4-0.4
		c0.5-0.3,0.7-1,0.7-2S8.3,7.8,8,7.5C7.7,7.3,7.1,7.2,6.1,7.2H1.4z"/>
	<path d="M11.1,13.2l4.8-13.1H18l4.9,13.1h-1.5l-1-2.7h-6.6l-1,2.7H11.1z M19.8,9.2l-2.9-8l-2.9,8H19.8z"/>
	<path d="M26.6,0.1l4.6,11.2l4.6-11.2h2.4v13.1h-1.4v-12l-4.9,12h-1.3l-5-11.9v11.9h-1.4V0.1H26.6z"/>
	<path d="M44.4,0.1h10.5v13.1h-1.4V1.4h-7.6v11.8h-1.4L44.4,0.1L44.4,0.1z"/>
	<path d="M56.8,6.7c0-2.8,0.4-4.5,1.1-5.4C58.6,0.4,60.1,0,62.3,0s3.7,0.4,4.4,1.3c0.7,0.8,1.1,2.6,1.1,5.4c0,2.7-0.4,4.5-1.1,5.4
		c-0.7,0.8-2.2,1.3-4.4,1.3c-2.2,0-3.7-0.4-4.4-1.2C57.2,11.2,56.8,9.4,56.8,6.7z M58.3,6.7c0,2.3,0.2,3.8,0.7,4.4s1.6,0.9,3.3,0.9
		c1.8,0,2.9-0.3,3.3-0.9c0.5-0.6,0.7-2.1,0.7-4.4s-0.2-3.8-0.7-4.5c-0.4-0.6-1.6-0.9-3.3-0.9c-1.8,0-2.9,0.3-3.4,0.9
		C58.5,2.9,58.3,4.3,58.3,6.7z"/>
	<path d="M72.1,0.1l4.6,11.2l4.6-11.2h2.4v13.1h-1.4v-12l-4.9,12h-1.3l-5-11.9v11.9h-1.4V0.1H72.1z"/>
	<path d="M85.6,6.7c0-2.8,0.4-4.5,1.1-5.4C87.4,0.4,88.9,0,91.1,0s3.7,0.4,4.4,1.3c0.7,0.8,1.1,2.6,1.1,5.4c0,2.7-0.4,4.5-1.1,5.4
		c-0.7,0.8-2.2,1.3-4.4,1.3c-2.2,0-3.7-0.4-4.4-1.2C86,11.2,85.6,9.4,85.6,6.7z M87,6.7c0,2.3,0.2,3.8,0.7,4.4S89.3,12,91,12
		c1.8,0,2.9-0.3,3.3-0.9C94.8,10.5,95,9,95,6.7s-0.2-3.8-0.7-4.5c-0.4-0.6-1.6-0.9-3.3-0.9c-1.8,0-2.9,0.3-3.4,0.9
		C87.3,2.9,87,4.3,87,6.7z"/>
	<path d="M98.3,0.1h1.4v3.3c0,1.2,0.3,1.9,0.8,2.2c0.4,0.3,1.3,0.4,2.5,0.4c1,0,1.8,0,2.2-0.1c0.5,0,0.9-0.1,1.3-0.2V0.1h1.4v13.1
		h-1.4V7.1c-0.5,0.1-1.1,0.2-1.8,0.2c-0.7,0-1.4,0.1-2.2,0.1c-1.8,0-2.9-0.3-3.5-0.8c-0.6-0.6-0.9-1.7-0.9-3.3V0.1H98.3z"/>
	<path d="M111.8,0.1v5.8h4.4c1.4,0,2.4,0.3,3,0.8s0.9,1.4,0.9,2.8c0,1.3-0.3,2.3-0.9,2.9c-0.6,0.6-1.6,0.9-3,0.9h-5.8V0.1H111.8z
		 M111.8,7.2v4.7h4.3c1,0,1.7-0.2,2-0.6c0.3-0.3,0.5-1,0.5-1.9c0-1-0.2-1.6-0.5-1.9S117,7.1,116,7.1h-4.2V7.2z"/>
</g>
</svg>
