<?xml version="1.0" encoding="utf-8"?>
<!-- Generator: Adobe Illustrator 24.0.1, SVG Export Plug-In . SVG Version: 6.00 Build 0)  -->
<svg version="1.1" id="Layer_1" xmlns="http://www.w3.org/2000/svg" xmlns:xlink="http://www.w3.org/1999/xlink" x="0px" y="0px"
	 viewBox="0 0 127.8 86.6" style="enable-background:new 0 0 127.8 86.6;" xml:space="preserve">
<style type="text/css">
	.st0{fill:url(#SVGID_1_);}
	.st1{fill:#BB2025;}
</style>
<radialGradient id="SVGID_1_" cx="63.895" cy="31.8808" r="32.8865" gradientUnits="userSpaceOnUse">
	<stop  offset="0" style="stop-color:#F9AE42"/>
	<stop  offset="7.515688e-02" style="stop-color:#F6973B"/>
	<stop  offset="0.1818" style="stop-color:#F47C34"/>
	<stop  offset="0.2908" style="stop-color:#F2692E"/>
	<stop  offset="0.4028" style="stop-color:#F05E2B"/>
	<stop  offset="0.522" style="stop-color:#F05A2A"/>
	<stop  offset="1" style="stop-color:#BC202E"/>
</radialGradient>
<path class="st0" d="M84.1,41.2c1,1,1,2.6,0,3.6c-1,1-2.6,1-3.6,0L68.9,33.1c-1-1-1-2.6,0-3.6c1-1,2.6-1,3.6,0L84.1,41.2z M62.6,38
	c-1-1-2.6-1-3.6,0c-1,1-1,2.6,0,3.6L71.2,54c1,1,2.6,1,3.6,0c1-1,1-2.6,0-3.6L62.6,38z M59.8,6.9c-2.8-1.4-5.8-2-8.9-1.8
	C47,5.3,43.1,7,40,10c-3.3,3.3-5,7.6-5,12c0,4.3,1.7,8.7,5,12l25.4,25.4c1.1,0.9,1.2,2.5,0.4,3.6c-0.9,1.1-2.5,1.2-3.6,0.3
	L36.4,37.5C32.2,33.2,30,27.6,30,22c0-5.6,2.1-11.3,6.4-15.6c3.9-3.9,9-6,14.2-6.4c4.6-0.3,9.3,0.8,13.3,3.4C67.5,1.1,71.6,0,75.8,0
	c5.6,0,11.3,2.1,15.6,6.4c3.9,3.9,6,8.9,6.4,14.1c0.3,5.2-1.2,10.5-4.5,14.8c-0.8,1.1-2.5,1.3-3.5,0.4L72.8,18.9L60.1,31.6
	c-1.7,1.7-3.8,2.5-6.2,2.5c-2.4,0-4.6-0.9-6.2-2.6c-3.4-3.4-3.4-9.1,0.1-12.5L59.8,6.9z M92.7,20.8c-0.3-3.9-1.9-7.8-4.9-10.8
	c-3.3-3.3-7.6-5-12-5c-4.3,0-8.7,1.7-12,5c0,0-12.3,12.3-12.5,12.6c-1.5,1.5-1.5,3.8,0,5.3c0.7,0.7,1.6,1.1,2.6,1.1
	c1,0,1.9-0.4,2.6-1.1c0.3-0.3,14.6-14.2,14.6-14.2c1-1,2.6-1,3.6,0l16,16C92.2,27,92.9,23.9,92.7,20.8z"/>
<g>
	<path class="st1" d="M0,86.4V72.5h6.7c1.2,0,2.1,0.3,2.7,0.8c0.6,0.5,0.8,1.4,0.8,2.6c0,0.9-0.1,1.6-0.3,2c-0.2,0.6-0.7,1-1.5,1.2
		c0.9,0.2,1.4,0.6,1.7,1.1c0.3,0.4,0.4,1.2,0.4,2.1c0,1.3-0.3,2.3-0.8,2.9c-0.6,0.7-1.5,1.1-2.8,1.1H0z M1.5,73.9v4.8H6
		c1,0,1.7-0.2,2.1-0.5c0.4-0.4,0.6-1,0.6-2c0-0.9-0.1-1.4-0.4-1.7c-0.3-0.3-0.9-0.5-1.7-0.5H1.5z M1.5,80v5h4.3
		c1.3,0,2.1-0.1,2.5-0.4c0.5-0.3,0.7-1.1,0.7-2.1c0-1.1-0.2-1.8-0.5-2.1c-0.3-0.3-1-0.4-2.1-0.4H1.5z"/>
	<path class="st1" d="M11.8,86.4l5.1-13.9h2.2l5.2,13.9h-1.6l-1-2.9h-7l-1.1,2.9H11.8z M21.1,82.2L18,73.7l-3.1,8.5H21.1z"/>
	<path class="st1" d="M28.3,72.5l4.9,11.9l4.9-11.9h2.5v13.9h-1.5V73.6l-5.2,12.8h-1.3l-5.3-12.7v12.7h-1.5V72.5H28.3z"/>
	<path class="st1" d="M47.3,72.5h11.2v13.9H57V73.9h-8.1v12.6h-1.5V72.5z"/>
	<path class="st1" d="M60.5,79.5c0-2.9,0.4-4.8,1.1-5.7c0.8-0.9,2.3-1.4,4.7-1.4c2.4,0,3.9,0.4,4.7,1.3c0.7,0.9,1.1,2.8,1.1,5.8
		c0,2.9-0.4,4.8-1.1,5.7c-0.8,0.9-2.3,1.4-4.7,1.4c-2.4,0-3.9-0.4-4.7-1.3C60.9,84.3,60.5,82.4,60.5,79.5z M62.1,79.5
		c0,2.5,0.2,4,0.7,4.7c0.5,0.7,1.7,1,3.6,1c1.9,0,3-0.3,3.5-1c0.5-0.7,0.7-2.2,0.7-4.7c0-2.5-0.2-4.1-0.7-4.7c-0.5-0.7-1.7-1-3.5-1
		c-1.9,0-3.1,0.3-3.6,1C62.3,75.4,62.1,77,62.1,79.5z"/>
	<path class="st1" d="M76.7,72.5l4.9,11.9l4.9-11.9h2.5v13.9h-1.5V73.6l-5.2,12.8H81l-5.3-12.7v12.7h-1.5V72.5H76.7z"/>
	<path class="st1" d="M91.2,79.5c0-2.9,0.4-4.8,1.1-5.7c0.8-0.9,2.3-1.4,4.7-1.4c2.4,0,3.9,0.4,4.7,1.3c0.7,0.9,1.1,2.8,1.1,5.8
		c0,2.9-0.4,4.8-1.1,5.7c-0.8,0.9-2.3,1.4-4.7,1.4c-2.4,0-3.9-0.4-4.7-1.3C91.5,84.3,91.2,82.4,91.2,79.5z M92.7,79.5
		c0,2.5,0.2,4,0.7,4.7c0.5,0.7,1.7,1,3.6,1c1.9,0,3-0.3,3.5-1c0.5-0.7,0.7-2.2,0.7-4.7c0-2.5-0.2-4.1-0.7-4.7c-0.5-0.7-1.7-1-3.6-1
		c-1.9,0-3.1,0.3-3.6,1C92.9,75.4,92.7,77,92.7,79.5z"/>
	<path class="st1" d="M104.7,72.5h1.5v3.5c0,1.2,0.3,2,0.9,2.4c0.4,0.3,1.3,0.4,2.7,0.4c1.1,0,1.9,0,2.4-0.1c0.5,0,1-0.1,1.4-0.2
		v-6.1h1.5v13.9h-1.5v-6.5c-0.5,0.1-1.1,0.2-1.9,0.2s-1.5,0.1-2.3,0.1c-1.9,0-3.1-0.3-3.8-0.9s-1-1.8-1-3.5V72.5z"/>
	<path class="st1" d="M119,72.5v6.2h4.6c1.5,0,2.6,0.3,3.2,0.8c0.6,0.5,0.9,1.5,0.9,3c0,1.4-0.3,2.4-0.9,3.1
		c-0.6,0.6-1.7,0.9-3.1,0.9h-6.2V72.5H119z M119,80v5h4.6c1.1,0,1.8-0.2,2.2-0.6c0.3-0.4,0.5-1,0.5-2c0-1-0.2-1.7-0.6-2
		c-0.4-0.3-1.1-0.4-2.3-0.4H119z"/>
</g>
</svg>
